SplineFontDB: 1.0
FontName: Kinnari-Italic
FullName: Kinnari Italic
FamilyName: Kinnari
Weight: Medium
Copyright: Kinnari Italic by TLWG, based on Kinnari Normal and Norasi Italic.
Version: 001.000
ItalicAngle: -15.5
UnderlinePosition: -70
UnderlineWidth: 25
Ascent: 800
Descent: 200
NeedsXUIDChange: 1
FSType: 0
PfmFamily: 17
TTFWeight: 500
TTFWidth: 5
Panose: 0 0 0 0 0 0 0 0 0 0
LineGap: 138
VLineGap: 0
OS2WinAscent: 0
OS2WinAOffset: 1
OS2WinDescent: 0
OS2WinDOffset: 1
HheadAscent: 0
HheadAOffset: 1
HheadDescent: 0
HheadDOffset: 1
ScriptLang: 5
 1 DFLT 1 dflt 
 1 thai 4 KUY  PAL  THA  dflt 
 1 latn 1 dflt 
 1 thai 1 dflt 
 1 thai 1 PAL  
ContextSub: glyph 0 4 ' RQD' 0 0 0 1
 String: 15 uni0E0D uni0E10
 BString: 0 
 FString: 0 
 1
  SeqLookup: 0 'nds0'
EndFPST
ChainSub: coverage 0 1 'ccmp' 0 0 0 1
 2 0 0
  Coverage: 19 uni0E4B uni0E4B.low
  Coverage: 7 uni0E4D
 2
  SeqLookup: 0 'amni'
  SeqLookup: 1 'G006'
EndFPST
ChainSub: coverage 0 1 'ccmp' 0 0 0 1
 2 0 0
  Coverage: 19 uni0E4A uni0E4A.low
  Coverage: 7 uni0E4D
 2
  SeqLookup: 0 'amni'
  SeqLookup: 1 'G005'
EndFPST
ChainSub: coverage 0 1 'ccmp' 0 0 0 1
 2 0 0
  Coverage: 19 uni0E49 uni0E49.low
  Coverage: 7 uni0E4D
 2
  SeqLookup: 0 'amni'
  SeqLookup: 1 'G004'
EndFPST
ChainSub: coverage 0 1 'ccmp' 0 0 0 1
 2 0 0
  Coverage: 19 uni0E48 uni0E48.low
  Coverage: 7 uni0E4D
 2
  SeqLookup: 0 'amni'
  SeqLookup: 1 'G003'
EndFPST
ChainSub: coverage 0 1 'ccmp' 0 0 0 1
 1 0 1
  Coverage: 15 uni0E0D uni0E10
  FCoverage: 23 uni0E38 uni0E39 uni0E3A
 1
  SeqLookup: 0 'ndsc'
EndFPST
ChainSub: coverage 0 1 'ccmp' 0 0 0 1
 1 2 0
  Coverage: 39 uni0E48 uni0E49 uni0E4A uni0E4B uni0E4C
  BCoverage: 23 uni0E38 uni0E39 uni0E3A

StartChar: .notdef
Encoding: 0 0 0
Width: 384
Flags: W
HStem: 0 23<28 384> 568 23<126 482>
DStem: 126 591 144 568 0 0 28 23 482 568 510 591 366 23 384 0
Fore
144 568 m 1
 28 23 l 1
 366 23 l 1
 482 568 l 1
 144 568 l 1
384 0 m 1
 0 0 l 1
 126 591 l 1
 510 591 l 1
 384 0 l 1
EndSplineSet
EndChar
StartChar: exclam
Encoding: 33 33 2
Width: 332
Flags: W
HStem: -12 107<87 93> 646 20G<244 275.5>
Fore
138 177 m 1
 120 182 l 1
 161 371 168 407 192 551 c 0
 207 634 226 666 262 666 c 0
 289 666 302 649 302 617 c 0
 302 587 291 555 264 494 c 0
 217 391 193 333 138 177 c 1
91 95 m 0
 120 95 145 70 145 41 c 0
 145 13 120 -12 89 -12 c 0
 62 -12 40 12 40 42 c 0
 40 70 64 95 91 95 c 0
EndSplineSet
EndChar
StartChar: quotedbl
Encoding: 34 34 3
Width: 418
Flags: W
HStem: 646 20G<209.5 231 388 408.5>
Fore
344 420 m 1
 324 420 l 1
 331 523 340 601 346 625 c 0
 352 647 376 666 400 666 c 0
 417 666 432 653 432 637 c 0
 432 621 401 545 344 420 c 1
166 420 m 1
 144 420 l 1
 152 523 161 601 167 625 c 0
 171 647 196 666 223 666 c 0
 239 666 253 653 253 637 c 0
 253 621 223 546 166 420 c 1
EndSplineSet
EndChar
StartChar: numbersign
Encoding: 35 35 4
Width: 499
Flags: W
HStem: 0 21G<18 79 208 270> 212 55<12 97 179 289 371 454> 212 252<86 289 253 454> 410 54<85 171 253 363 444 529> 657 20G<272 333 463 524>
DStem: 97 212 158 212 18 0 79 0 171 410 233 410 119 267 179 267 272 677 333 677 192 464 253 464 289 212 349 212 208 0 270 0 363 410 423 410 309 267 371 267 463 677 524 677 382 464 444 464
Fore
464 267 m 1xd8
 454 212 l 1xd8
 349 212 l 1xa8
 270 0 l 1
 208 0 l 1
 289 212 l 1xc8
 158 212 l 1xa8
 79 0 l 1
 18 0 l 1
 97 212 l 1xc8
 1 212 l 1xa8
 13 267 l 1
 119 267 l 1
 171 410 l 1
 76 410 l 1xd8
 86 464 l 1
 192 464 l 1
 272 677 l 1
 333 677 l 1
 253 464 l 1
 382 464 l 1
 463 677 l 1
 524 677 l 1
 444 464 l 1xa8
 541 464 l 1
 529 410 l 1
 423 410 l 1
 371 267 l 1
 464 267 l 1xd8
363 410 m 1
 233 410 l 1
 179 267 l 1
 309 267 l 1
 363 410 l 1
EndSplineSet
EndChar
StartChar: dollar
Encoding: 36 36 5
Width: 499
Flags: W
HStem: 642 26<302 341>
VStem: 123 78<513 538> 379 77<163 190>
DStem: 182 1 215 0 160 -89 193 -89 258 330 289 306 189 32 221 25 335 642 369 633 283 420 313 395 357 731 393 731 341 668 376 664
Fore
497 612 m 1
 469 498 l 1
 454 499 l 1
 453 574 431 609 369 633 c 1
 313 395 l 1
 431 305 456 270 456 190 c 0
 456 120 420 60 360 29 c 0
 322 10 289 3 215 0 c 1
 193 -89 l 1
 160 -89 l 1
 182 1 l 1
 119 15 67 37 31 67 c 1
 59 190 l 1
 75 193 l 1
 85 88 111 51 189 32 c 1
 258 330 l 1
 207 366 186 382 166 410 c 0
 135 445 123 476 123 513 c 0
 123 565 151 612 198 639 c 0
 239 664 267 668 341 668 c 1
 357 731 l 1
 393 731 l 1
 376 664 l 1
 423 652 464 636 497 612 c 1
283 420 m 1
 335 642 l 1
 296 642 287 640 268 633 c 0
 226 618 201 583 201 538 c 0
 201 494 220 464 283 420 c 1
289 306 m 1
 221 25 l 1
 327 34 379 79 379 163 c 0
 379 215 363 245 294 300 c 2
 289 306 l 1
EndSplineSet
EndChar
StartChar: percent
Encoding: 37 37 6
Width: 832
Flags: W
HStem: 0 29<587 605> 289 35<198 216> 338 33<681 696> 583 25<430 471> 631 31<295 304>
VStem: 79 76<387 419> 376 27<530 551> 469 74<101 136> 765 25<242 266>
DStem: 570 612 653 677 220 -13 267 -13
Fore
683 371 m 0
 750 371 790 330 790 264 c 0
 790 187 757 108 705 51 c 0
 672 18 631 0 587 0 c 0
 513 0 469 50 469 136 c 0
 469 252 577 371 683 371 c 0
694 338 m 0
 662 338 634 319 606 280 c 0
 573 231 543 149 543 101 c 0
 543 54 564 29 605 29 c 0
 634 29 664 44 686 67 c 0
 732 119 765 196 765 259 c 0
 765 303 732 338 694 338 c 0
653 677 m 1
 267 -13 l 1
 220 -13 l 1
 570 612 l 1
 527 590 504 583 458 583 c 0
 431 583 416 584 395 593 c 1
 397 590 397 590 397 587 c 0
 401 570 403 554 403 541 c 0
 403 489 374 413 335 363 c 0
 297 315 249 289 198 289 c 0
 130 289 79 346 79 419 c 0
 79 542 187 662 297 662 c 0
 324 662 352 653 365 642 c 2
 382 625 l 2
 395 614 420 608 453 608 c 0
 519 608 562 627 612 677 c 1
 653 677 l 1
368 601 m 1
 341 606 333 611 316 624 c 0
 309 630 305 631 300 631 c 0
 237 631 155 494 155 387 c 0
 155 347 179 324 214 324 c 0
 296 324 376 437 376 549 c 0
 376 565 375 579 368 601 c 1
EndSplineSet
EndChar
StartChar: ampersand
Encoding: 38 38 7
Width: 777
Flags: W
HStem: -18 49<595 642> 331 19<530 542.667> 634 32<470 485>
VStem: 76 94<141 164> 324 80<460 504> 517 69<559.014 580>
Fore
530 350 m 1
 715 350 l 1
 715 333 l 1
 665 328 658 322 606 248 c 0
 596 230 558 177 520 125 c 1
 560 59 595 31 642 31 c 0
 665 31 683 40 712 62 c 1
 724 50 l 1
 680 1 645 -18 595 -18 c 0
 541 -18 502 4 457 62 c 1
 354 -4 321 -18 258 -18 c 0
 146 -18 76 42 76 141 c 0
 76 193 100 240 148 280 c 0
 185 309 229 333 331 378 c 1
 330 393 330 403 328 409 c 0
 325 435 324 451 324 460 c 0
 324 582 390 666 483 666 c 0
 542 666 586 625 586 573 c 0
 586 538 567 502 532 472 c 0
 505 447 476 428 415 397 c 1
 438 294 469 209 501 160 c 1
 564 236 580 265 580 299 c 0
 580 321 568 328 530 331 c 1
 530 350 l 1
333 346 m 1
 233 308 170 236 170 164 c 0
 170 91 226 34 297 34 c 0
 349 34 391 51 438 89 c 1
 404 133 369 218 333 346 c 1
410 428 m 1
 454 456 456 458 473 473 c 0
 504 502 517 532 517 577 c 0
 517 617 504 634 472 634 c 0
 428 634 404 592 404 504 c 0
 404 478 406 458 410 428 c 1
EndSplineSet
EndChar
StartChar: quotesingle
Encoding: 39 39 8
Width: 213
Flags: W
HStem: 646 20G<197.5 219>
Fore
152 420 m 1
 132 420 l 1
 138 476 146 593 155 625 c 0
 163 650 187 666 208 666 c 0
 230 666 242 652 242 636 c 0
 242 618 193 510 152 420 c 1
EndSplineSet
EndChar
StartChar: parenleft
Encoding: 40 40 9
Width: 332
Flags: W
VStem: 42 69<85 180>
Fore
160 -174 m 1
 141 -182 l 1
 105 -116 89 -83 76 -41 c 0
 54 28 42 103 42 180 c 0
 42 256 53 318 79 381 c 0
 122 485 171 551 302 669 c 1
 315 653 l 1
 250 586 218 539 186 460 c 0
 141 349 111 205 111 85 c 0
 111 -12 123 -75 160 -174 c 1
EndSplineSet
EndChar
StartChar: parenright
Encoding: 41 41 10
Width: 332
Flags: W
VStem: 220 69<305 401>
Fore
29 -180 m 1
 16 -166 l 1
 78 -101 107 -59 136 6 c 0
 186 113 220 275 220 401 c 0
 220 502 205 583 171 664 c 1
 190 669 l 1
 234 589 250 554 267 485 c 0
 281 425 289 360 289 305 c 0
 289 230 277 167 249 101 c 0
 204 -7 152 -72 29 -180 c 1
EndSplineSet
EndChar
StartChar: asterisk
Encoding: 42 42 11
Width: 499
Flags: W
HStem: 646 20G<300 321>
VStem: 302 17<414 445 476 503>
Fore
319 499 m 2
 319 473 l 1
 362 502 368 505 417 561 c 0
 434 579 441 582 454 582 c 0
 476 582 492 567 492 545 c 0
 492 519 478 508 435 501 c 0
 388 494 371 486 328 458 c 1
 365 439 l 2
 379 432 403 425 431 420 c 0
 475 413 492 401 492 378 c 0
 492 356 475 338 454 338 c 0
 439 338 428 347 409 371 c 0
 382 403 359 423 327 442 c 2
 319 445 l 1
 319 393 324 371 338 330 c 0
 346 311 347 303 347 294 c 0
 347 272 331 255 308 255 c 0
 289 255 272 271 272 293 c 0
 272 302 275 313 283 334 c 0
 297 371 302 395 302 417 c 0
 302 422 302 429 300 445 c 1
 297 442 294 441 286 437 c 0
 253 417 240 404 212 371 c 0
 196 352 180 340 163 340 c 0
 144 340 127 357 127 376 c 0
 127 400 145 413 187 420 c 0
 233 428 250 435 294 461 c 1
 283 469 l 2
 258 483 226 494 189 499 c 0
 144 508 127 519 127 546 c 0
 127 565 144 582 163 582 c 0
 179 582 190 574 209 551 c 0
 242 516 262 498 300 476 c 1
 300 519 297 542 284 587 c 0
 277 608 275 617 275 625 c 0
 275 650 289 666 311 666 c 0
 331 666 346 650 346 627 c 0
 346 617 343 603 335 577 c 0
 324 543 319 521 319 499 c 2
EndSplineSet
EndChar
StartChar: plus
Encoding: 43 43 12
Width: 673
Flags: W
HStem: 0 21G<305 371> 220 66<86 305 371 590>
VStem: 305 66<0 220 286 505>
Fore
305 286 m 1
 305 505 l 1
 371 505 l 1
 371 286 l 1
 590 286 l 1
 590 220 l 1
 371 220 l 1
 371 0 l 1
 305 0 l 1
 305 220 l 1
 86 220 l 1
 86 286 l 1
 305 286 l 1
EndSplineSet
EndChar
StartChar: comma
Encoding: 44 44 13
Width: 249
Flags: W
Fore
4 -129 m 1
 -4 -111 l 1
 48 -78 70 -50 70 -23 c 0
 70 -13 66 -4 51 9 c 0
 32 26 26 37 26 54 c 0
 26 81 48 101 78 101 c 0
 110 101 135 70 135 29 c 0
 135 -26 89 -82 4 -129 c 1
EndSplineSet
EndChar
StartChar: hyphen
Encoding: 45 45 14
Width: 332
Flags: W
HStem: 192 63<62 270>
Fore
283 255 m 1
 270 192 l 1
 48 192 l 1
 63 255 l 1
 283 255 l 1
EndSplineSet
EndChar
StartChar: period
Encoding: 46 46 15
Width: 249
Flags: W
HStem: -12 21G<67 96>
Fore
82 100 m 0
 111 100 138 75 138 42 c 0
 138 13 111 -12 81 -12 c 0
 53 -12 26 15 26 42 c 0
 26 75 53 100 82 100 c 0
EndSplineSet
EndChar
StartChar: slash
Encoding: 47 47 16
Width: 276
Flags: W
HStem: 646 20G<313 387>
DStem: 313 666 387 666 -64 -18 7 -18
Fore
313 666 m 1
 387 666 l 1
 7 -18 l 1
 -64 -18 l 1
 313 666 l 1
EndSplineSet
EndChar
StartChar: zero
Encoding: 48 48 17
Width: 499
Flags: W
HStem: -7 28<191 209> 647 30<332 343>
VStem: 32 79<157 212> 417 80<423 521>
Fore
341 677 m 0
 438 677 497 582 497 423 c 0
 497 278 420 113 319 40 c 0
 278 7 236 -7 193 -7 c 0
 97 -7 32 81 32 212 c 0
 32 448 185 677 341 677 c 0
334 647 m 0
 290 647 250 617 215 554 c 0
 163 461 111 262 111 157 c 0
 111 70 144 21 196 21 c 0
 242 21 283 56 321 122 c 0
 378 223 417 388 417 521 c 0
 417 602 388 647 334 647 c 0
EndSplineSet
EndChar
StartChar: one
Encoding: 49 49 18
Width: 499
Flags: W
HStem: 0 15<48 61.1667 297 328>
VStem: 401 8<669 675>
DStem: 299 560 403 640 161 67 261 122
Fore
48 0 m 1
 48 15 l 1
 127 21 149 31 161 67 c 1
 299 560 l 2
 305 579 306 587 306 595 c 0
 306 614 291 625 268 625 c 2
 211 623 l 1
 211 639 l 1
 223 640 230 642 231 642 c 2
 322 661 l 1
 401 675 l 2
 401 677 404 677 404 677 c 2
 407 677 409 672 409 669 c 0
 409 664 407 655 403 640 c 2
 261 122 l 1
 259 116 l 1
 258 113 256 107 253 100 c 0
 246 75 242 56 242 47 c 0
 242 25 264 15 312 15 c 2
 328 15 l 1
 328 0 l 1
 48 0 l 1
EndSplineSet
EndChar
StartChar: two
Encoding: 50 50 19
Width: 499
Flags: W
HStem: 0 76<111 368> 603 74<242 290>
VStem: 366 87<480 505>
Fore
400 139 m 1
 417 132 l 1
 368 0 l 1
 12 0 l 1
 12 18 l 1
 223 242 l 2
 289 311 333 374 357 428 c 0
 363 441 366 460 366 480 c 0
 366 551 312 603 242 603 c 0
 182 603 138 574 101 508 c 1
 81 516 l 1
 108 587 136 623 187 650 c 0
 217 666 255 677 290 677 c 0
 381 677 453 602 453 505 c 0
 453 439 420 390 303 272 c 2
 111 81 l 1
 111 76 l 1
 300 76 l 2
 354 76 376 89 400 139 c 1
EndSplineSet
EndChar
StartChar: three
Encoding: 51 51 20
Width: 499
Flags: W
HStem: -7 98<59 127> 634 43<290 327>
VStem: 327 79<195 249> 379 87<536 554>
Fore
179 567 m 1xd0
 163 573 l 1
 195 636 256 677 327 677 c 0xe0
 406 677 466 623 466 549 c 0xd0
 466 480 431 448 311 401 c 1
 311 398 l 1
 376 368 406 321 406 249 c 0
 406 160 356 76 277 29 c 0
 234 4 185 -7 127 -7 c 0
 56 -7 15 15 15 53 c 0
 15 78 31 91 59 91 c 0
 78 91 94 83 123 63 c 0
 152 41 176 31 195 31 c 0
 234 31 281 59 305 100 c 0
 318 123 327 160 327 195 c 0xe0
 327 274 293 330 231 350 c 0
 207 360 193 360 141 360 c 1
 141 376 l 1
 229 393 272 407 313 437 c 0
 357 464 379 501 379 543 c 0
 379 598 343 634 290 634 c 0
 248 634 212 612 179 567 c 1xd0
EndSplineSet
EndChar
StartChar: four
Encoding: 52 52 21
Width: 499
Flags: W
HStem: 0 21G<214 293> 176 66<357 439> 657 20G<438 479>
DStem: 264 179 338 176 214 0 293 0 374 562 479 677 277 242 357 242 438 677 369 562 21 245 64 245
Fore
453 242 m 1
 439 176 l 1
 338 176 l 1
 293 0 l 1
 214 0 l 1
 264 179 l 1
 1 179 l 1
 21 245 l 1
 438 677 l 1
 479 677 l 1
 357 242 l 1
 453 242 l 1
277 242 m 1
 374 562 l 1
 369 562 l 1
 64 245 l 1
 64 242 l 1
 277 242 l 1
EndSplineSet
EndChar
StartChar: five
Encoding: 53 53 22
Width: 499
Flags: W
HStem: -7 42<122 179> 595 71<234 469>
VStem: 350 69<242 280>
DStem: 234 666 237 595 130 448 199 507
Fore
237 595 m 1
 199 507 l 1
 280 486 316 472 353 437 c 0
 395 395 419 341 419 280 c 0
 419 122 286 -7 122 -7 c 0
 56 -7 15 15 15 50 c 0
 15 75 32 89 56 89 c 0
 70 89 86 83 111 64 c 0
 141 42 158 35 179 35 c 0
 270 35 350 133 350 242 c 0
 350 294 330 346 297 371 c 0
 261 400 229 412 130 434 c 1
 130 448 l 1
 234 666 l 1
 491 666 l 1
 469 595 l 1
 237 595 l 1
EndSplineSet
EndChar
StartChar: six
Encoding: 54 54 23
Width: 499
Flags: W
HStem: -7 26<197 214> 412 35<259 291>
VStem: 29 76<149 204> 374 87<264 286>
Fore
521 686 m 1
 521 669 l 1
 403 656 270 555 199 428 c 1
 204 426 l 1
 231 439 264 447 291 447 c 0
 391 447 461 374 461 271 c 0
 461 120 349 -7 212 -7 c 0
 103 -7 29 76 29 204 c 0
 29 347 107 489 234 583 c 0
 319 646 387 671 521 686 c 1
259 412 m 0
 212 412 180 391 152 346 c 0
 126 300 105 217 105 149 c 0
 105 67 142 19 204 19 c 0
 246 19 281 40 312 85 c 0
 349 138 374 215 374 284 c 0
 374 360 330 412 259 412 c 0
EndSplineSet
EndChar
StartChar: seven
Encoding: 55 55 24
Width: 499
Flags: W
HStem: -7 21G<79 149> 593 73<157 444>
Fore
538 656 m 1
 149 -7 l 1
 79 -7 l 1
 445 590 l 1
 444 593 l 1
 223 593 l 2
 164 593 138 579 89 521 c 1
 75 530 l 1
 157 666 l 1
 532 666 l 1
 538 656 l 1
EndSplineSet
EndChar
StartChar: eight
Encoding: 56 56 25
Width: 499
Flags: W
HStem: -7 22<215 250> 653 24<318 334>
VStem: 29 69<152 173> 138 77<524 543> 369 75<154 175> 425 69<535 543>
Fore
330 382 m 1xf4
 415 294 444 240 444 173 c 0xf8
 444 70 352 -7 229 -7 c 0
 146 -7 86 22 53 79 c 0
 38 104 29 133 29 161 c 0
 29 249 100 319 226 360 c 1
 160 434 138 472 138 526 c 0
 138 615 211 677 318 677 c 0
 420 677 494 617 494 535 c 0
 494 464 447 420 330 382 c 1xf4
248 344 m 1
 229 337 229 337 226 335 c 0
 148 300 98 230 98 155 c 0
 98 75 154 15 233 15 c 0
 311 15 369 75 369 155 c 0
 369 211 357 229 248 344 c 1
311 398 m 1
 335 412 335 412 344 415 c 0
 400 444 425 482 425 535 c 0xf4
 425 605 382 653 318 653 c 0
 255 653 215 609 215 541 c 0
 215 498 233 472 311 398 c 1
EndSplineSet
EndChar
StartChar: nine
Encoding: 57 57 26
Width: 499
Flags: W
HStem: 229 46<220 256> 650 27<306 328>
VStem: 69 88<397 431> 417 75<458 519>
Fore
23 -18 m 1
 23 1 l 1
 103 18 152 44 224 105 c 1
 286 163 335 227 352 272 c 1
 349 274 l 1
 296 242 261 229 220 229 c 0
 130 229 69 305 69 409 c 0
 69 548 185 677 311 677 c 0
 420 677 492 589 492 458 c 0
 492 324 423 189 308 98 c 0
 226 34 158 6 23 -18 c 1
318 650 m 0
 284 650 253 637 229 612 c 0
 186 568 157 488 157 415 c 0
 157 327 193 275 256 275 c 0
 294 275 335 291 362 318 c 0
 393 347 417 439 417 519 c 0
 417 601 379 650 318 650 c 0
EndSplineSet
EndChar
StartChar: colon
Encoding: 58 58 27
Width: 332
Flags: W
HStem: -12 112<97 115> 330 111<202 211>
Fore
105 100 m 0
 136 100 161 75 161 42 c 0
 161 13 136 -12 104 -12 c 0
 75 -12 50 15 50 42 c 0
 50 75 75 100 105 100 c 0
205 441 m 0
 236 441 261 416 261 384 c 0
 261 354 236 330 204 330 c 0
 174 330 149 354 149 384 c 0
 149 416 174 441 205 441 c 0
EndSplineSet
EndChar
StartChar: semicolon
Encoding: 59 59 28
Width: 332
Flags: W
HStem: 330 111<201 207>
Fore
37 -129 m 1
 26 -111 l 1
 79 -78 103 -50 103 -23 c 0
 103 -13 97 -4 82 9 c 0
 63 26 57 37 57 54 c 0
 57 81 79 101 108 101 c 0
 141 101 166 70 166 29 c 0
 166 -26 120 -82 37 -129 c 1
205 441 m 0
 236 441 261 416 261 384 c 0
 261 354 236 330 204 330 c 0
 174 330 149 354 149 384 c 0
 149 416 174 441 205 441 c 0
EndSplineSet
EndChar
StartChar: less
Encoding: 60 60 29
Width: 673
Flags: W
DStem: 83 220 171 253 592 -10 592 62 592 516 592 444 83 286 171 253
Fore
592 -10 m 1
 83 220 l 1
 83 286 l 1
 592 516 l 1
 592 444 l 1
 171 253 l 1
 592 62 l 1
 592 -10 l 1
EndSplineSet
EndChar
StartChar: equal
Encoding: 61 61 30
Width: 673
Flags: W
HStem: 120 66<86 590> 319 68<86 590>
Fore
590 387 m 1
 590 319 l 1
 86 319 l 1
 86 387 l 1
 590 387 l 1
590 186 m 1
 590 120 l 1
 86 120 l 1
 86 186 l 1
 590 186 l 1
EndSplineSet
EndChar
StartChar: greater
Encoding: 62 62 31
Width: 673
Flags: W
DStem: 83 444 83 516 504 253 592 286 504 253 592 220 83 62 83 -10
Fore
83 -10 m 1
 83 62 l 1
 504 253 l 1
 83 444 l 1
 83 516 l 1
 592 286 l 1
 592 220 l 1
 83 -10 l 1
EndSplineSet
EndChar
StartChar: question
Encoding: 63 63 32
Width: 499
Flags: W
HStem: -12 104<185 187> 642 22<307 326>
VStem: 132 105<40 42> 185 79<541 555> 398 74<535 557>
Fore
215 174 m 1xd8
 199 176 l 1
 215 275 229 297 311 393 c 1
 376 463 398 505 398 557 c 0
 398 611 369 642 318 642 c 0
 275 642 248 624 248 595 c 0
 248 586 250 580 256 567 c 0
 261 555 264 549 264 542 c 0
 264 521 246 507 223 507 c 0
 199 507 185 524 185 555 c 0
 185 620 242 664 324 664 c 0
 413 664 472 612 472 535 c 0
 472 475 453 447 338 354 c 0
 267 297 237 259 223 204 c 2
 215 174 l 1xd8
185 92 m 0
 212 92 237 69 237 40 c 0xe8
 237 13 212 -12 185 -12 c 0xd8
 155 -12 132 12 132 40 c 0xe8
 132 69 155 92 185 92 c 0
EndSplineSet
EndChar
StartChar: at
Encoding: 64 64 33
Width: 919
Flags: W
HStem: -18 39<470 504> 139 43<410 451> 636 30<480 504>
VStem: 119 82<301 335> 321 72<248 271> 766 40<365 383>
Fore
587 450 m 1
 598 486 l 1
 666 486 l 1
 601 234 l 2
 599 227 598 218 598 212 c 0
 598 186 611 171 636 171 c 0
 661 171 686 183 705 202 c 0
 741 242 766 308 766 368 c 0
 766 513 637 636 480 636 c 0
 318 636 201 499 201 313 c 0
 201 142 324 21 494 21 c 0
 560 21 608 34 686 67 c 1
 699 40 l 1
 603 -4 554 -18 482 -18 c 0
 278 -18 119 130 119 319 c 0
 119 513 278 666 480 666 c 0
 664 666 806 539 806 376 c 0
 806 248 721 138 623 138 c 0
 576 138 539 167 533 209 c 1
 497 166 453 139 410 139 c 0
 360 139 321 187 321 250 c 0
 321 321 352 398 403 450 c 0
 434 482 475 499 516 499 c 0
 551 499 565 491 587 450 c 1
530 456 m 0
 505 458 472 438 442 406 c 0
 410 368 393 318 393 265 c 0
 393 212 415 182 451 182 c 0
 507 182 564 281 570 394 c 0
 573 431 557 454 530 456 c 0
EndSplineSet
EndChar
StartChar: A
Encoding: 65 65 34
Width: 610
Flags: W
HStem: 0 16<125.8 136 318 328.667 552.6 564> 226 36<174 374> 648 20G<368 394>
DStem: 325 521 394 668 369 262 488 103 368 668 325 521 78 168 174 262 368 668 154 226 78 168 97 113 374 226 394 668 394 95 488 103
Fore
564 16 m 1
 564 0 l 1
 318 0 l 1
 318 16 l 1
 382 22 395 31 395 69 c 0
 395 78 395 86 394 95 c 1
 374 226 l 1
 154 226 l 1
 97 113 l 2
 81 79 78 70 78 51 c 0
 78 26 85 21 136 16 c 1
 136 0 l 1
 -51 0 l 1
 -51 16 l 1
 -12 23 -1 35 78 168 c 1
 368 668 l 1
 394 668 l 1
 488 103 l 1
 501 29 507 21 564 16 c 1
174 262 m 1
 369 262 l 1
 325 521 l 1
 174 262 l 1
EndSplineSet
EndChar
StartChar: B
Encoding: 66 66 35
Width: 610
Flags: W
HStem: 0 29<217.349 250> 331 32<237 289.393> 623 30<130 394> 637 16<130 140.333>
VStem: 431 108<191 214> 486 101<495 518>
DStem: 196 532 313 595 73 89 248 363
Fore
-7 0 m 1xe8
 -7 16 l 1
 48 26 56 32 73 89 c 1
 196 532 l 1
 204 557 207 582 207 596 c 0
 207 624 192 631 130 637 c 1xd8
 130 653 l 1
 388 653 l 2
 517 653 587 601 587 505 c 0xe4
 587 466 573 432 545 409 c 0
 513 379 483 368 413 352 c 1
 464 330 485 316 505 294 c 1
 527 272 539 237 539 201 c 0
 539 82 431 0 274 0 c 2
 -7 0 l 1xe8
237 331 m 1
 226 280 220 256 207 212 c 0
 183 132 171 83 171 72 c 0
 171 45 193 29 234 29 c 0
 357 29 431 97 431 204 c 0
 431 258 406 302 365 319 c 0
 346 327 303 331 237 331 c 1
313 595 m 2
 248 363 l 1
 338 363 387 371 420 390 c 0
 463 415 486 458 486 516 c 0
 486 589 450 623 371 623 c 0xe4
 331 623 319 617 313 595 c 2
EndSplineSet
EndChar
StartChar: C
Encoding: 67 67 36
Width: 666
Flags: W
HStem: -18 44<327 353> 630 36<465 482>
VStem: 66 113<221 255>
Fore
652 464 m 1
 634 469 l 1
 624 576 573 630 480 630 c 0
 415 630 352 602 305 554 c 0
 226 472 179 352 179 231 c 0
 179 103 242 26 353 26 c 0
 435 26 494 57 583 145 c 1
 601 130 l 1
 510 26 431 -18 327 -18 c 0
 174 -18 66 89 66 243 c 0
 66 464 259 666 472 666 c 0
 504 666 543 661 589 649 c 0
 609 645 623 642 630 642 c 0
 650 642 661 647 668 664 c 1
 688 664 l 1
 652 464 l 1
EndSplineSet
EndChar
StartChar: D
Encoding: 68 68 37
Width: 720
Flags: W
HStem: 0 29<216 266> 623 30<130 394> 637 16<130 140.333>
VStem: 589 111<382 411>
DStem: 196 532 313 595 73 89 192 163
Fore
130 637 m 1xb0
 130 653 l 1xd0
 409 653 l 2
 586 653 700 548 700 384 c 0
 700 268 643 158 546 86 c 0
 469 31 362 0 245 0 c 2
 -7 0 l 1
 -7 16 l 1
 48 26 56 32 73 89 c 1
 196 532 l 2
 204 557 207 582 207 596 c 0
 207 623 192 631 130 637 c 1xb0
313 595 m 2
 192 163 l 2
 174 103 170 81 170 67 c 0
 170 41 189 29 234 29 c 0
 338 29 420 60 479 120 c 0
 546 187 589 300 589 409 c 0
 589 486 562 549 513 586 c 0
 480 609 431 623 374 623 c 0
 334 623 319 617 313 595 c 2
EndSplineSet
EndChar
StartChar: E
Encoding: 69 69 38
Width: 610
Flags: W
HStem: 0 34<238 505> 325 38<302 333> 620 33<138 448> 637 16<138 148.167>
DStem: 204 532 319 595 81 89 253 360
Fore
634 653 m 1xd0
 603 499 l 1
 582 502 l 1
 583 519 584 535 584 546 c 0
 584 606 549 620 393 620 c 0xe0
 335 620 325 617 319 595 c 2
 253 360 l 1
 289 362 319 363 333 363 c 0
 423 368 432 374 470 458 c 1
 488 454 l 1
 420 223 l 1
 400 227 l 1
 404 249 407 262 407 278 c 0
 407 296 404 305 400 311 c 0
 390 319 360 327 322 325 c 0
 311 325 278 327 245 328 c 1
 234 290 226 256 212 212 c 0
 187 125 176 78 176 67 c 0
 176 42 201 34 256 34 c 0
 331 34 398 42 437 60 c 0
 479 81 505 105 552 170 c 1
 568 163 l 1
 505 0 l 1
 -1 0 l 1
 -1 16 l 1
 56 26 63 34 81 89 c 1
 204 532 l 2
 208 549 214 584 214 596 c 0
 214 623 199 631 138 637 c 1xd0
 138 653 l 1xe0
 634 653 l 1xd0
EndSplineSet
EndChar
StartChar: F
Encoding: 70 70 39
Width: 610
Flags: W
HStem: 0 16<7 15.1429 241.333 261> 325 35<264 335> 620 33<146 456> 637 16<146 157>
DStem: 212 532 330 595 89 89 264 360 212 532 255 328 89 89 193 105
Fore
645 653 m 1xd0
 612 499 l 1
 592 502 l 1
 593 514 593 516 595 521 c 0
 595 535 595 539 595 545 c 0
 595 606 560 620 391 620 c 0xe0
 350 620 335 614 330 595 c 1
 264 360 l 1
 432 363 435 365 480 454 c 1
 498 450 l 1
 422 215 l 1
 404 220 l 1
 412 250 413 264 413 278 c 0
 413 299 406 312 391 319 c 0
 382 324 375 325 335 325 c 0
 313 325 291 327 255 328 c 1
 193 105 l 2
 187 83 185 67 185 60 c 0
 185 29 202 19 261 16 c 1
 261 0 l 1
 7 0 l 1
 7 16 l 1
 64 23 72 29 89 89 c 1
 212 532 l 1
 220 557 224 582 224 596 c 0
 224 625 212 631 146 637 c 1xd0
 146 653 l 1xe0
 645 653 l 1xd0
EndSplineSet
EndChar
StartChar: G
Encoding: 71 71 40
Width: 720
Flags: W
HStem: -18 37<338 367> 300 19<456 485> 631 35<452 471>
VStem: 53 110<223 255>
Fore
707 662 m 1
 659 464 l 1
 642 469 l 1
 636 513 628 533 612 560 c 0
 583 605 527 631 463 631 c 0
 397 631 335 605 290 558 c 0
 211 475 163 347 163 224 c 0
 163 92 234 19 365 19 c 0
 409 19 447 31 469 53 c 0
 480 64 483 73 505 145 c 0
 527 220 535 248 535 270 c 0
 535 287 519 297 485 300 c 0
 480 300 469 302 456 303 c 1
 456 319 l 1
 722 319 l 1
 722 303 l 1
 658 299 642 287 625 231 c 1
 576 44 l 1
 499 1 428 -18 338 -18 c 0
 252 -18 179 9 127 60 c 0
 81 108 53 179 53 246 c 0
 53 466 245 666 456 666 c 0
 497 666 539 658 589 642 c 0
 611 636 623 631 633 631 c 0
 659 631 677 642 693 666 c 1
 707 662 l 1
EndSplineSet
EndChar
StartChar: H
Encoding: 72 72 41
Width: 720
Flags: W
HStem: 0 16<228.714 237 354 363.429 617.333 628> 327 41<248 521> 637 16<130 140.333 388 403 520 528.429>
DStem: 196 532 302 562 73 89 248 368 196 532 236 327 73 89 170 82 521 327 686 562 456 89 554 82 579 532 686 562 533 368 554 82
Fore
768 653 m 1
 768 637 l 1
 710 627 702 621 686 562 c 1
 554 82 l 2
 551 75 549 67 549 59 c 0
 549 29 564 22 628 16 c 1
 628 0 l 1
 354 0 l 1
 354 16 l 1
 420 23 439 38 456 89 c 1
 521 327 l 1
 236 327 l 1
 170 82 l 2
 168 75 167 67 167 60 c 0
 167 31 179 23 237 16 c 1
 237 0 l 1
 -7 0 l 1
 -7 16 l 1
 48 26 56 32 73 89 c 1
 196 532 l 2
 204 557 207 580 207 595 c 0
 207 623 192 631 130 637 c 1
 130 653 l 1
 403 653 l 1
 403 637 l 1
 343 633 316 614 302 562 c 1
 248 368 l 1
 533 368 l 1
 579 532 l 2
 586 557 590 580 590 595 c 0
 590 623 579 630 520 637 c 1
 520 653 l 1
 768 653 l 1
EndSplineSet
EndChar
StartChar: I
Encoding: 73 73 42
Width: 332
Flags: W
HStem: 0 16<227.857 236> 637 16<138 146.143>
DStem: 196 532 302 562 73 89 179 120
Fore
-7 0 m 1
 -7 16 l 1
 48 26 56 32 73 89 c 1
 196 532 l 2
 204 557 207 580 207 595 c 0
 207 623 195 630 138 637 c 1
 138 653 l 1
 384 653 l 1
 384 637 l 1
 327 627 319 621 302 562 c 1
 179 120 l 2
 170 88 168 76 168 57 c 0
 168 29 179 23 236 16 c 1
 236 0 l 1
 -7 0 l 1
EndSplineSet
EndChar
StartChar: J
Encoding: 74 74 43
Width: 443
Flags: W
HStem: -18 31<111 124> 637 16<237 247.5>
VStem: -6 92<53 80>
DStem: 302 532 409 562 171 67 306 192
Fore
491 653 m 1
 491 637 l 1
 434 628 428 623 409 562 c 1
 306 192 l 2
 286 116 265 70 237 40 c 0
 207 1 163 -18 111 -18 c 0
 41 -18 -6 18 -6 70 c 0
 -6 103 13 125 40 125 c 0
 64 125 88 103 88 78 c 2
 88 67 l 1
 86 62 86 59 86 53 c 0
 86 26 98 13 122 13 c 0
 146 13 160 28 171 67 c 2
 302 532 l 2
 311 560 313 582 313 596 c 0
 313 623 300 631 237 637 c 1
 237 653 l 1
 491 653 l 1
EndSplineSet
EndChar
StartChar: K
Encoding: 75 75 44
Width: 666
Flags: W
HStem: 0 16<246 255 607.5 618> 634 19<499 527>
DStem: 212 532 318 562 89 89 265 369 212 532 259 349 89 89 196 120 259 349 347 375 379 141 521 72
Fore
722 653 m 1
 722 637 l 1
 699 633 675 623 647 601 c 2
 347 375 l 1
 521 72 l 1
 549 25 555 22 618 16 c 1
 618 0 l 1
 343 0 l 1
 343 16 l 1
 356 18 368 19 372 19 c 0
 404 22 417 29 417 45 c 0
 417 64 404 100 379 141 c 2
 259 349 l 1
 196 120 l 1
 190 100 l 2
 185 79 183 70 183 60 c 0
 183 29 192 23 255 16 c 1
 255 0 l 1
 7 0 l 1
 7 16 l 1
 66 25 70 29 89 89 c 1
 212 532 l 2
 220 557 223 580 223 595 c 0
 223 623 208 631 146 637 c 1
 146 653 l 1
 419 653 l 1
 419 637 l 1
 360 633 333 612 318 562 c 1
 265 369 l 1
 417 475 l 2
 505 538 561 590 561 615 c 0
 561 625 551 631 527 634 c 0
 523 634 513 636 499 637 c 1
 499 653 l 1
 722 653 l 1
EndSplineSet
EndChar
StartChar: L
Encoding: 76 76 45
Width: 555
Flags: W
HStem: 0 37<232 501> 637 16<130 140.333 388 403>
DStem: 196 532 302 562 73 89 179 120
Fore
403 653 m 1
 403 637 l 1
 343 633 316 614 302 562 c 1
 179 120 l 2
 174 101 168 78 168 70 c 0
 168 44 193 37 270 37 c 0
 357 37 398 42 434 59 c 0
 478 81 504 113 539 185 c 1
 560 179 l 1
 501 0 l 1
 -7 0 l 1
 -7 16 l 1
 48 26 56 32 73 89 c 1
 196 532 l 2
 204 557 207 580 207 595 c 0
 207 623 192 631 130 637 c 1
 130 653 l 1
 403 653 l 1
EndSplineSet
EndChar
StartChar: M
Encoding: 77 77 46
Width: 832
Flags: W
HStem: 0 16<-18 -9.33333 169.8 180 461 470.286 722.667 734> 637 16<133 150.333>
DStem: 186 519 236 546 81 146 119 113 236 546 315 653 297 0 371 160 691 561 791 562 562 91 668 120 706 653 691 561 371 160 313 0
Fore
873 653 m 1
 873 637 l 1
 814 628 809 623 791 562 c 1
 668 120 l 1
 659 89 658 76 658 59 c 0
 658 28 666 22 734 16 c 1
 734 0 l 1
 461 0 l 1
 461 16 l 1
 526 23 546 38 562 91 c 1
 691 561 l 1
 313 0 l 1
 297 0 l 1
 236 546 l 1
 119 113 l 1
 113 97 108 70 108 60 c 0
 108 32 129 21 180 16 c 1
 180 0 l 1
 -18 0 l 1
 -18 16 l 1
 34 22 48 42 81 146 c 1
 186 519 l 2
 187 521 187 526 189 529 c 0
 193 543 196 555 198 560 c 0
 204 577 208 592 208 601 c 0
 208 623 185 634 133 637 c 1
 133 653 l 1
 315 653 l 1
 371 160 l 1
 706 653 l 1
 873 653 l 1
EndSplineSet
EndChar
StartChar: N
Encoding: 78 78 47
Width: 666
Flags: W
HStem: 0 16<-21 -12.7143 168.6 179> 637 16<116 127.75 527 536.5>
DStem: 202 582 231 535 83 164 117 113 231 535 277 653 461 -15 485 154 587 535 623 488 485 154 479 -15
Fore
727 653 m 1
 727 637 l 1
 664 623 661 617 623 488 c 2
 479 -15 l 1
 461 -15 l 1
 231 535 l 1
 117 113 l 1
 111 92 108 72 108 59 c 0
 108 31 127 21 179 16 c 1
 179 0 l 1
 -21 0 l 1
 -21 16 l 1
 37 23 45 37 83 164 c 1
 202 582 l 1
 185 620 163 633 116 637 c 1
 116 653 l 1
 277 653 l 1
 485 154 l 1
 587 535 l 1
 587 535 587 539 589 542 c 0
 596 562 598 574 598 586 c 0
 598 623 584 631 527 637 c 1
 527 653 l 1
 727 653 l 1
EndSplineSet
EndChar
StartChar: O
Encoding: 79 79 48
Width: 720
Flags: W
HStem: -18 33<276 301> 633 33<459 482>
VStem: 60 106<185 221>
Fore
475 666 m 0
 608 666 706 560 699 417 c 0
 688 192 486 -18 278 -18 c 4
 151 -18 60 81 60 221 c 0
 60 338 119 460 220 554 c 0
 300 625 390 666 475 666 c 0
464 633 m 0
 393 633 331 595 275 514 c 0
 215 428 166 278 166 185 c 0
 166 76 211 15 294 15 c 0
 365 15 428 54 482 133 c 0
 546 227 595 374 595 480 c 0
 595 576 543 633 464 633 c 0
EndSplineSet
EndChar
StartChar: P
Encoding: 80 80 49
Width: 610
Flags: W
HStem: 0 16<0 8.14286> 305 36<301 336> 623 30<146 385> 637 16<146 154.286>
VStem: 502 103<504 518>
DStem: 201 516 322 595 82 89 250 347 201 516 242 313 82 89 189 120
Fore
146 637 m 1xd8
 146 653 l 1xe8
 394 653 l 2
 530 653 605 601 605 504 c 0
 605 445 576 390 526 353 c 0
 483 322 416 305 334 305 c 0
 293 305 267 308 242 313 c 1
 189 120 l 2
 179 83 177 75 177 62 c 0
 177 28 182 25 245 16 c 1
 245 0 l 1
 0 0 l 1
 0 16 l 1
 57 23 64 29 82 89 c 1
 201 516 l 1
 212 560 217 582 217 595 c 0
 217 621 204 630 146 637 c 1xd8
322 595 m 2
 250 347 l 1
 278 343 286 341 303 341 c 0
 365 341 404 350 435 368 c 0
 479 393 502 439 502 504 c 0
 502 551 491 582 464 599 c 0
 445 612 407 623 368 623 c 0
 340 623 328 617 322 595 c 2
EndSplineSet
EndChar
StartChar: Q
Encoding: 81 81 50
Width: 720
Flags: W
HStem: -183 67<429 483> 633 33<448 483>
VStem: 60 106<183 221> 595 104<434 480>
Fore
278 -16 m 1
 226 -73 l 1
 250 -73 l 1
 250 -73 252 -73 256 -72 c 0
 262 -70 309 -81 360 -92 c 0
 437 -111 458 -116 483 -116 c 0
 557 -116 598 -97 653 -38 c 1
 668 -48 l 1
 642 -85 628 -100 605 -117 c 0
 554 -157 483 -183 429 -183 c 0
 393 -183 338 -173 277 -157 c 0
 233 -144 204 -138 185 -138 c 0
 145 -138 107 -148 69 -168 c 1
 59 -154 l 1
 136 -100 145 -92 236 -12 c 1
 192 -1 170 7 144 29 c 0
 89 70 60 139 60 221 c 0
 60 338 119 458 220 554 c 1
 300 625 390 666 470 666 c 0
 603 666 699 568 699 434 c 0
 699 275 598 113 450 29 c 0
 394 -1 356 -12 278 -16 c 1
464 633 m 0
 393 633 331 595 275 514 c 0
 214 428 166 278 166 183 c 0
 166 78 212 18 293 18 c 0
 366 18 428 56 483 135 c 0
 546 227 595 374 595 480 c 0
 595 576 545 633 464 633 c 0
EndSplineSet
EndChar
StartChar: R
Encoding: 82 82 51
Width: 610
Flags: W
HStem: 0 16<222.286 231 552.333 567> 623 30<132 381>
VStem: 483 104<495 513>
DStem: 190 532 308 595 67 89 243 366 190 532 231 330 67 89 174 120 296 324 391 333 419 0 483 88
Fore
567 16 m 1
 567 0 l 1
 419 0 l 1
 296 324 l 1
 231 330 l 1
 174 120 l 1
 166 85 163 72 163 62 c 0
 163 29 170 23 231 16 c 1
 231 0 l 1
 -13 0 l 1
 -13 16 l 1
 42 25 50 31 67 89 c 1
 190 532 l 1
 198 560 204 583 204 595 c 0
 204 606 196 618 189 623 c 0
 179 630 174 631 132 637 c 1
 132 653 l 1
 379 653 l 2
 514 653 587 602 587 508 c 0
 587 464 570 425 538 395 c 0
 501 365 469 350 391 333 c 1
 483 88 l 1
 502 37 523 19 567 16 c 1
308 595 m 2
 243 366 l 1
 267 362 278 360 294 360 c 0
 419 360 483 412 483 511 c 0
 483 584 442 623 359 623 c 0
 327 623 313 617 308 595 c 2
EndSplineSet
EndChar
StartChar: S
Encoding: 83 83 52
Width: 499
Flags: W
HStem: -18 36<207 231> 633 33<309 332>
VStem: 130 90<499 532> 344 87<149 182>
Fore
469 469 m 1
 450 472 l 1
 448 538 439 571 417 596 c 0
 397 620 366 633 330 633 c 0
 261 633 220 595 220 532 c 0
 220 482 229 469 318 376 c 0
 409 286 431 248 431 182 c 0
 431 69 344 -18 229 -18 c 0
 198 -18 171 -12 125 4 c 0
 100 15 83 18 73 18 c 0
 53 18 42 7 35 -15 c 1
 18 -15 l 1
 51 208 l 1
 70 207 l 1
 70 199 69 190 69 183 c 0
 69 88 132 18 215 18 c 0
 289 18 344 75 344 149 c 0
 344 193 331 220 284 268 c 0
 277 275 264 291 245 311 c 0
 229 330 215 343 207 352 c 0
 146 416 130 445 130 499 c 0
 130 598 205 666 309 666 c 0
 340 666 372 661 394 652 c 0
 417 645 428 642 439 642 c 0
 461 642 472 646 485 666 c 1
 508 666 l 1
 469 469 l 1
EndSplineSet
EndChar
StartChar: T
Encoding: 84 84 53
Width: 555
Flags: W
HStem: 0 16<64 77.2 346 354> 618 35<101 315 101 492>
DStem: 315 618 416 618 171 89 277 120
Fore
633 653 m 1
 589 491 l 1
 573 492 l 1
 574 508 576 524 576 538 c 0
 576 593 543 618 472 618 c 2
 416 618 l 1
 277 120 l 1
 268 86 265 75 265 62 c 0
 265 31 277 22 316 19 c 0
 324 19 338 18 354 16 c 1
 354 0 l 1
 64 0 l 1
 64 16 l 1
 130 21 155 37 171 89 c 1
 315 618 l 1
 163 620 130 603 78 495 c 1
 59 499 l 1
 101 653 l 1
 633 653 l 1
EndSplineSet
EndChar
StartChar: U
Encoding: 85 85 54
Width: 720
Flags: W
HStem: -18 41<317 344> 637 16<127 138 390.429 400 565 576>
VStem: 103 89<139 148>
Fore
765 653 m 1
 765 637 l 1
 703 623 699 618 661 488 c 2
 579 204 l 2
 535 53 451 -18 319 -18 c 0
 193 -18 103 51 103 146 c 0
 103 187 116 250 145 359 c 2
 198 551 l 1
 202 568 205 584 205 596 c 0
 205 625 193 631 127 637 c 1
 127 653 l 1
 400 653 l 1
 400 637 l 1
 333 630 316 617 294 546 c 0
 294 541 291 535 290 527 c 0
 223 296 192 174 192 141 c 0
 192 70 249 23 333 23 c 0
 401 23 456 54 495 116 c 0
 517 149 532 190 549 255 c 0
 555 274 560 291 562 305 c 0
 611 473 637 576 637 590 c 0
 637 603 630 618 620 624 c 0
 608 631 598 634 565 637 c 1
 565 653 l 1
 765 653 l 1
EndSplineSet
EndChar
StartChar: V
Encoding: 86 86 55
Width: 610
Flags: W
HStem: 637 16<76 84 307 316 502 509.333 665 688>
DStem: 155 502 242 571 240 -18 308 127
Fore
688 653 m 1
 688 637 l 1
 665 636 649 624 631 598 c 2
 259 -18 l 1
 240 -18 l 1
 155 502 l 1
 133 627 132 630 76 637 c 1
 76 653 l 1
 316 653 l 1
 316 637 l 1
 253 630 240 620 240 586 c 0
 240 580 240 576 242 571 c 1
 308 127 l 1
 513 483 l 2
 546 541 565 584 565 603 c 0
 565 623 546 631 502 637 c 1
 502 653 l 1
 688 653 l 1
EndSplineSet
EndChar
StartChar: W
Encoding: 87 87 56
Width: 832
Flags: W
HStem: 637 16<70 78.5 299.143 308 368 390.375 368 425 596 605 721 730>
DStem: 149 499 234 568 212 -18 278 163 451 510 453 437 278 163 231 -18 458 437 538 564 508 -18 579 163 765 530 831 565 579 163 527 -18
Fore
907 653 m 1
 907 637 l 1
 869 625 858 617 831 565 c 2
 527 -18 l 1
 508 -18 l 1
 458 437 l 1
 453 437 l 1
 231 -18 l 1
 212 -18 l 1
 149 499 l 1
 138 590 133 609 122 621 c 0
 113 630 104 633 70 637 c 1
 70 653 l 1
 308 653 l 1
 308 637 l 1
 246 630 234 621 234 582 c 0
 234 580 234 573 234 568 c 1
 278 163 l 1
 451 510 l 1
 442 579 l 1
 435 628 425 636 368 637 c 1
 368 653 l 1
 605 653 l 1
 605 637 l 1
 551 631 538 620 538 579 c 1
 538 564 l 1
 579 163 l 1
 765 530 l 2
 778 557 787 582 787 598 c 0
 787 625 775 631 721 637 c 1
 721 653 l 1
 907 653 l 1
EndSplineSet
EndChar
StartChar: X
Encoding: 88 88 57
Width: 610
Flags: W
HStem: 0 16<185 185 294 307.2 557 567> 637 16<76 85.5 332.286 340 447 455.333>
DStem: 168 576 284 541 274 313 343 393 274 313 291 270 190 215 141 97 291 270 360 349 359 104 463 89 488 560 530 542 343 393 360 349
Fore
655 653 m 1
 655 637 l 1
 612 623 582 601 530 542 c 1
 360 349 l 1
 463 89 l 1
 488 29 497 23 567 16 c 1
 567 0 l 1
 294 0 l 1
 294 16 l 1
 360 21 371 26 371 56 c 0
 371 70 366 86 359 104 c 2
 291 270 l 1
 141 97 l 2
 127 82 120 64 120 50 c 0
 120 25 138 16 185 16 c 1
 185 0 l 1
 -29 0 l 1
 -29 16 l 1
 23 26 53 53 190 215 c 0
 204 231 237 271 274 313 c 1
 168 576 l 2
 149 623 133 631 76 637 c 1
 76 653 l 1
 340 653 l 1
 340 637 l 1
 286 630 270 621 270 596 c 0
 270 583 272 565 284 541 c 1
 343 393 l 1
 488 560 l 2
 502 576 508 587 508 601 c 0
 508 624 497 631 447 637 c 1
 447 653 l 1
 655 653 l 1
EndSplineSet
EndChar
StartChar: Y
Encoding: 89 89 58
Width: 555
Flags: W
HStem: 0 16<78 91.2 360 368> 637 16<320 330 444 456>
DStem: 245 302 344 306 183 89 315 205
Fore
91 637 m 1
 91 653 l 1
 330 653 l 1
 330 637 l 1
 270 631 258 625 258 601 c 0
 258 586 270 543 294 457 c 0
 311 404 313 391 325 347 c 1
 340 365 346 374 363 393 c 0
 467 514 513 579 513 606 c 0
 513 623 499 631 472 634 c 0
 467 636 456 636 444 637 c 1
 444 653 l 1
 633 653 l 1
 633 637 l 1
 603 623 595 617 562 576 c 2
 344 306 l 1
 315 205 l 2
 313 201 312 193 309 185 c 0
 286 107 278 78 278 56 c 0
 278 31 291 21 331 19 c 0
 337 18 352 18 368 16 c 1
 368 0 l 1
 78 0 l 1
 78 16 l 1
 144 21 166 37 183 89 c 1
 245 302 l 1
 167 571 l 1
 149 625 146 628 91 637 c 1
EndSplineSet
EndChar
StartChar: Z
Encoding: 90 90 59
Width: 555
Flags: W
HStem: 0 37<123 499> 617 36<120 473>
DStem: 473 617 606 639 -6 15 123 37
Fore
606 653 m 1
 606 639 l 1
 123 37 l 1
 284 37 l 2
 366 37 416 44 450 64 c 0
 483 83 502 107 535 171 c 1
 554 168 l 1
 499 0 l 1
 -6 0 l 1
 -6 15 l 1
 473 617 l 1
 302 617 l 2
 227 617 174 603 145 580 c 0
 126 562 114 546 92 502 c 1
 75 507 l 1
 120 653 l 1
 606 653 l 1
EndSplineSet
EndChar
StartChar: bracketleft
Encoding: 91 91 60
Width: 388
Flags: W
HStem: -152 26<148 209> 636 28<218 384>
DStem: 218 664 275 601 21 -152 116 -78
Fore
384 636 m 1
 322 636 l 2
 293 636 281 627 275 601 c 2
 116 -78 l 2
 111 -92 111 -92 111 -98 c 0
 111 -117 127 -126 160 -126 c 2
 215 -126 l 1
 209 -152 l 1
 21 -152 l 1
 218 664 l 1
 391 664 l 1
 384 636 l 1
EndSplineSet
EndChar
StartChar: backslash
Encoding: 92 92 61
Width: 276
Flags: W
HStem: 646 20G<-41 31>
DStem: -41 666 31 666 248 -18 319 -18
Fore
-41 666 m 1
 31 666 l 1
 319 -18 l 1
 248 -18 l 1
 -41 666 l 1
EndSplineSet
EndChar
StartChar: bracketright
Encoding: 93 93 62
Width: 388
Flags: W
HStem: -152 26<18 185> 636 28<192 253>
DStem: 289 587 382 664 127 -89 185 -152
Fore
19 -126 m 1
 81 -126 l 2
 111 -126 120 -119 127 -89 c 2
 289 587 l 2
 291 603 291 605 291 609 c 0
 291 627 275 636 243 636 c 2
 186 636 l 1
 193 664 l 1
 382 664 l 1
 185 -152 l 1
 12 -152 l 1
 19 -126 l 1
EndSplineSet
EndChar
StartChar: asciicircum
Encoding: 94 94 63
Width: 421
Flags: W
HStem: 646 20G<182 242>
DStem: 182 666 211 590 0 300 67 300 211 590 242 666 354 300 422 300
Fore
67 300 m 1
 0 300 l 1
 182 666 l 1
 242 666 l 1
 422 300 l 1
 354 300 l 1
 211 590 l 1
 67 300 l 1
EndSplineSet
EndChar
StartChar: underscore
Encoding: 95 95 64
Width: 499
Flags: W
HStem: -125 50<0 499>
Fore
499 -125 m 1
 0 -125 l 1
 0 -75 l 1
 499 -75 l 1
 499 -125 l 1
EndSplineSet
EndChar
StartChar: grave
Encoding: 96 96 65
Width: 219
Flags: W
Fore
312 453 m 1
 290 442 l 1
 267 485 212 579 205 603 c 0
 198 625 217 650 237 661 c 0
 256 669 284 669 290 646 c 0
 297 621 308 505 312 453 c 1
EndSplineSet
EndChar
StartChar: a
Encoding: 97 97 66
Width: 499
Flags: W
HStem: -12 50<119 160>
VStem: 18 83<98 117> 297 74<31 54>
DStem: 458 441 458 441 397 434 464 438
Fore
464 110 m 1
 476 100 l 1
 401 9 376 -10 337 -10 c 0
 309 -10 297 1 297 31 c 0
 297 56 300 67 319 146 c 1
 231 22 189 -12 119 -12 c 0
 56 -12 18 29 18 100 c 0
 18 258 171 441 303 441 c 0
 346 441 375 420 382 382 c 1
 394 431 l 1
 397 434 l 1
 458 441 l 1
 464 438 l 1
 463 429 461 428 458 417 c 0
 412 245 371 75 371 54 c 0
 371 47 376 41 384 41 c 0
 393 41 406 51 437 82 c 0
 442 89 450 95 464 110 c 1
309 419 m 0
 270 422 223 390 182 333 c 0
 139 270 101 167 101 113 c 0
 101 67 125 38 160 38 c 0
 187 38 223 56 246 82 c 0
 315 157 365 274 365 357 c 0
 365 393 343 417 309 419 c 0
EndSplineSet
EndChar
StartChar: b
Encoding: 98 98 67
Width: 499
Flags: W
HStem: -12 24<150 169> 393 48<318 357>
VStem: 23 85<40 45> 388 85<304 323>
DStem: 160 546 268 678 23 45 164 290
Fore
110 643 m 1
 110 661 l 1
 177 668 212 674 264 683 c 1
 268 678 l 1
 223 507 215 480 164 290 c 1
 234 400 287 441 357 441 c 0
 423 441 473 391 473 321 c 0
 473 164 308 -12 157 -12 c 0
 100 -12 23 19 23 42 c 2
 23 45 l 1
 160 546 l 1
 161 554 l 1
 163 560 164 565 166 573 c 0
 171 595 174 606 174 617 c 0
 174 639 168 642 110 643 c 1
318 393 m 0
 270 393 226 354 182 277 c 0
 139 204 108 105 108 45 c 0
 108 23 125 12 155 12 c 0
 198 12 242 34 278 70 c 0
 337 133 388 240 388 306 c 0
 388 359 360 393 318 393 c 0
EndSplineSet
EndChar
StartChar: c
Encoding: 99 99 68
Width: 443
Flags: W
HStem: -12 37<177 207> 420 21<300 321>
VStem: 29 87<139 149> 338 87<350 362>
Fore
350 105 m 1
 366 97 l 1
 306 21 250 -12 177 -12 c 0
 83 -12 29 44 29 139 c 0
 29 294 170 441 319 441 c 0
 379 441 425 406 425 360 c 0
 425 334 404 313 376 313 c 0
 353 313 338 328 338 352 c 0
 338 360 340 368 347 381 c 0
 352 390 353 395 353 400 c 0
 353 412 338 420 315 420 c 0
 275 420 236 401 207 372 c 0
 151 313 116 224 116 139 c 0
 116 67 149 25 207 25 c 0
 256 25 294 47 350 105 c 1
EndSplineSet
EndChar
StartChar: d
Encoding: 100 100 69
Width: 499
Flags: W
HStem: -12 49<120 160>
VStem: 15 88<103 124> 287 76<32 60>
Fore
463 111 m 1
 475 101 l 1
 423 28 371 -13 330 -13 c 0
 305 -13 287 4 287 32 c 0
 287 56 289 70 300 122 c 1
 231 21 187 -12 120 -12 c 0
 56 -12 15 32 15 103 c 0
 15 253 177 441 308 441 c 0
 346 441 365 425 372 382 c 1
 416 546 l 2
 431 598 431 603 431 617 c 0
 431 639 423 642 369 643 c 1
 369 661 l 1
 434 666 469 672 521 683 c 1
 527 678 l 1
 476 478 456 398 428 306 c 0
 395 196 363 75 363 60 c 0
 363 48 371 40 381 40 c 0
 398 40 409 48 463 111 c 1
311 417 m 0
 283 420 246 401 218 372 c 0
 152 302 103 186 103 103 c 0
 103 64 126 37 160 37 c 0
 252 37 356 209 356 360 c 0
 356 397 341 416 311 417 c 0
EndSplineSet
EndChar
StartChar: e
Encoding: 101 101 70
Width: 443
Flags: W
HStem: -12 46<163 212> 417 24<311 333>
VStem: 31 88<109 133> 346 66<371 381>
Fore
357 108 m 1
 371 97 l 1
 311 29 234 -12 163 -12 c 0
 85 -12 31 45 31 126 c 0
 31 275 187 441 333 441 c 0
 382 441 412 415 412 374 c 0
 412 287 306 211 157 190 c 2
 127 186 l 1
 120 154 119 139 119 125 c 0
 119 70 155 34 212 34 c 0
 255 34 286 50 357 108 c 1
152 252 m 2
 135 208 l 1
 221 229 259 248 296 283 c 0
 327 312 346 349 346 379 c 0
 346 401 333 417 311 417 c 0
 261 417 186 341 152 252 c 2
EndSplineSet
EndChar
StartChar: f
Encoding: 102 102 71
Width: 276
Flags: W
HStem: -207 21<-68 -58> 395 33<41 125 211 313> 656 22<331 340>
VStem: -146 65<-170 -146> -146 76<-148 -142> 354 69<612 645>
DStem: 125 395 204 395 37 -23 132 76
Fore
35 395 m 1xf4
 42 428 l 1
 133 428 l 1
 164 524 185 570 214 609 c 0
 250 656 289 678 338 678 c 0
 387 678 423 650 423 612 c 0
 423 590 404 573 382 573 c 0
 360 573 346 589 346 612 c 0
 346 620 347 625 352 634 c 0
 354 639 354 642 354 645 c 0
 354 650 346 656 333 656 c 0
 277 656 240 584 211 428 c 1
 319 428 l 1
 313 395 l 1
 204 395 l 1
 132 76 l 1
 91 -108 21 -207 -67 -207 c 0
 -111 -207 -146 -180 -146 -146 c 0xf4
 -146 -123 -130 -105 -110 -105 c 0
 -89 -105 -70 -122 -70 -144 c 0xec
 -70 -149 -72 -152 -76 -160 c 0
 -79 -164 -81 -167 -81 -170 c 0
 -81 -179 -72 -186 -60 -186 c 0
 -18 -186 15 -130 37 -23 c 1
 125 395 l 1
 35 395 l 1xf4
EndSplineSet
EndChar
StartChar: g
Encoding: 103 103 72
Width: 499
Flags: W
HStem: -207 22<169 200> 151 20<230 246> 366 38<412 472> 419 22<283.463 299>
VStem: 7 56<-96 -78> 97 77<248 270> 325 60<-89 -60> 352 79<311 349> 352 120<349 404>
Fore
472 404 m 1xfc80
 472 366 l 1xfc80
 422 366 l 1
 428 346 431 327 431 311 c 0xfd
 431 231 337 151 246 151 c 0
 237 151 223 152 215 154 c 0
 212 155 209 155 208 155 c 0
 195 155 171 129 171 114 c 0
 171 100 198 83 242 72 c 0
 337 47 385 3 385 -60 c 0xfe
 385 -146 300 -207 174 -207 c 0
 75 -207 7 -161 7 -92 c 0
 7 -45 26 -26 125 40 c 1
 105 53 98 64 98 78 c 0
 98 103 116 122 174 163 c 1
 119 187 97 218 97 270 c 0
 97 365 186 441 297 441 c 0
 335 441 368 431 395 413 c 0
 403 407 409 404 412 404 c 2
 472 404 l 1xfc80
148 28 m 0
 141 28 98 -4 85 -22 c 0
 69 -41 63 -59 63 -82 c 0
 63 -146 110 -185 190 -185 c 0
 267 -185 325 -144 325 -89 c 0xfe
 325 -44 289 -16 182 18 c 0
 166 22 157 25 152 26 c 0
 151 26 149 28 148 28 c 0
296 419 m 0
 231 419 174 338 174 248 c 0
 174 201 196 171 234 171 c 0
 268 171 299 193 321 234 c 0
 340 270 352 313 352 349 c 0xfd
 352 395 333 419 296 419 c 0
EndSplineSet
EndChar
StartChar: h
Encoding: 104 104 73
Width: 499
Flags: W
HStem: -9 47<333 382> 390 51<341 382> 642 14<111 118.5>
VStem: 289 79<34 56> 371 77<363 374>
DStem: 154 513 272 678 19 0 152 230
Fore
464 117 m 1
 478 105 l 1
 417 18 382 -9 333 -9 c 0
 305 -9 289 7 289 34 c 0
 289 45 294 76 308 125 c 2
 363 333 l 2
 368 349 371 360 371 365 c 0
 371 378 357 390 341 390 c 0
 308 390 239 328 187 249 c 0
 146 187 133 154 94 0 c 1
 19 0 l 1
 154 513 l 2
 160 535 163 548 164 549 c 0
 173 579 179 603 179 617 c 0
 179 631 154 647 141 642 c 0
 139 642 138 642 138 642 c 2
 111 642 l 1
 111 656 l 1
 171 664 209 669 268 683 c 1
 272 678 l 1
 152 230 l 1
 246 375 316 441 382 441 c 0
 420 441 448 415 448 374 c 0
 448 350 429 275 400 182 c 0
 382 129 368 66 368 56 c 0
 368 47 374 38 382 38 c 0
 398 38 412 48 464 117 c 1
EndSplineSet
EndChar
StartChar: i
Encoding: 105 105 74
Width: 276
Flags: W
HStem: -12 49<95 141> 548 105<207 223>
VStem: 48 77<45 53>
DStem: 119 333 229 439 70 155 141 117
Fore
223 114 m 1
 234 103 l 1
 179 19 141 -12 95 -12 c 0
 64 -12 48 9 48 45 c 0
 48 66 56 97 70 155 c 2
 119 333 l 1
 125 352 127 368 127 376 c 0
 127 395 119 398 64 400 c 1
 64 416 l 1
 104 419 125 422 226 441 c 1
 229 439 l 1
 141 117 l 1
 139 116 l 1
 139 113 l 1
 138 105 133 98 133 95 c 0
 127 76 125 62 125 51 c 0
 125 44 132 37 141 37 c 0
 149 37 164 45 182 63 c 0
 190 75 198 82 223 114 c 1
214 653 m 0
 242 653 264 628 264 599 c 0
 264 571 242 548 215 548 c 0
 186 548 167 568 167 601 c 0
 167 631 187 653 214 653 c 0
EndSplineSet
EndChar
StartChar: j
Encoding: 106 106 75
Width: 276
Flags: W
HStem: -207 22<-47 -28> 400 16<73 104> 548 105<224 229>
VStem: -125 69<-173 -146> -125 83<-148 -139> 179 96<592 610>
DStem: 130 289 246 439 59 -3 142 28
Fore
246 439 m 1xf4
 142 28 l 2
 103 -130 42 -207 -45 -207 c 0
 -91 -207 -125 -182 -125 -146 c 0xf4
 -125 -122 -107 -104 -83 -104 c 0
 -62 -104 -42 -120 -42 -141 c 0xec
 -42 -149 -45 -154 -51 -163 c 0
 -56 -167 -56 -168 -56 -173 c 0
 -56 -180 -50 -185 -38 -185 c 0
 1 -185 25 -141 59 -3 c 2
 130 289 l 1
 142 333 146 359 146 369 c 0
 146 379 144 388 141 393 c 0
 135 395 116 401 107 401 c 2
 100 400 l 1
 73 400 l 1
 73 416 l 1
 104 417 154 425 243 441 c 1
 246 439 l 1xf4
226 653 m 0
 253 653 275 628 275 599 c 0
 275 571 253 548 227 548 c 0
 198 548 179 568 179 601 c 0
 179 631 199 653 226 653 c 0
EndSplineSet
EndChar
StartChar: k
Encoding: 107 107 76
Width: 443
Flags: W
HStem: -12 53<318 354> 412 16<278 304 445.667 461>
DStem: 141 483 267 678 15 0 146 221 141 483 138 180 15 0 89 0
Fore
415 108 m 1
 429 98 l 1
 384 15 357 -12 318 -12 c 0
 289 -12 271 7 239 70 c 0
 221 107 195 168 179 212 c 1
 138 180 l 1
 89 0 l 1
 15 0 l 1
 141 483 l 1
 144 492 l 2
 145 499 148 511 152 524 c 0
 166 571 171 598 174 615 c 1
 173 634 154 642 105 640 c 1
 105 656 l 1
 166 664 204 669 262 683 c 1
 267 678 l 1
 146 221 l 1
 164 233 176 243 190 253 c 0
 283 325 333 374 333 394 c 0
 333 404 319 412 294 412 c 2
 278 412 l 1
 278 428 l 1
 461 428 l 1
 461 412 l 1
 415 409 382 390 236 258 c 1
 253 220 268 183 272 170 c 0
 312 75 333 41 354 41 c 0
 369 41 381 53 398 83 c 2
 415 108 l 1
EndSplineSet
EndChar
StartChar: l
Encoding: 108 108 77
Width: 276
Flags: W
HStem: -12 44<89 132> 640 16<119 126.25>
VStem: 40 77<43 52>
DStem: 182 599 278 678 45 70 127 100
Fore
229 123 m 1
 242 114 l 1
 176 18 141 -12 89 -12 c 0
 57 -12 40 9 40 45 c 0
 40 50 42 60 45 70 c 2
 182 599 l 1
 185 608 186 614 186 617 c 0
 186 633 166 640 119 640 c 1
 119 656 l 1
 177 664 215 669 274 683 c 1
 278 678 l 1
 127 100 l 1
 127 97 126 92 125 89 c 0
 120 69 117 57 117 50 c 0
 117 40 122 32 132 32 c 0
 149 32 168 47 201 89 c 0
 209 101 220 111 229 123 c 1
EndSplineSet
EndChar
StartChar: m
Encoding: 109 109 78
Width: 720
Flags: W
HStem: -9 47<555 603> 390 51<334 374>
VStem: 354 77<365 381> 516 74<37 54> 593 76<350 368>
DStem: 586 333 669 350 527 103 601 100
Fore
688 117 m 1
 705 105 l 1
 699 98 l 2
 646 23 602 -9 555 -9 c 0
 529 -9 516 7 516 37 c 0
 516 47 519 66 527 103 c 1
 586 333 l 1
 590 352 593 363 593 368 c 0
 593 379 584 390 573 390 c 0
 543 390 494 346 445 277 c 0
 394 207 374 157 334 0 c 1
 259 0 l 1
 322 234 354 354 354 365 c 0
 354 379 347 390 334 390 c 0
 300 390 240 333 185 248 c 0
 149 196 135 160 86 0 c 1
 12 0 l 1
 25 51 28 62 51 144 c 0
 86 270 110 360 110 372 c 0
 110 387 97 394 70 394 c 2
 45 394 l 1
 45 410 l 1
 129 425 149 429 207 441 c 1
 209 439 l 1
 151 230 l 1
 243 375 313 441 374 441 c 0
 409 441 431 416 431 381 c 0
 431 362 416 305 391 229 c 1
 460 338 501 387 549 419 c 0
 574 434 595 441 612 441 c 0
 647 441 672 415 672 378 c 0
 672 372 669 354 669 350 c 2
 601 100 l 1
 595 75 590 59 590 54 c 0
 590 44 596 38 603 38 c 0
 620 38 640 56 668 91 c 0
 671 95 680 105 688 117 c 1
EndSplineSet
EndChar
StartChar: n
Encoding: 110 110 79
Width: 499
Flags: W
HStem: 0 21G<15 89> 390 51<337 376>
VStem: 287 75<45 56> 360 82<360 379>
DStem: 110 350 212 439 15 0 146 221 209 441 209 441 48 410 212 439 347 286 434 324 303 120 376 117
Fore
460 117 m 1xe0
 475 104 l 1
 404 12 379 -9 334 -9 c 0
 300 -9 287 7 287 45 c 0xe0
 287 56 290 69 303 120 c 1
 347 286 l 2
 354 316 360 349 360 360 c 0
 360 379 352 390 337 390 c 0
 300 390 249 340 189 248 c 0
 145 180 136 158 89 0 c 1
 15 0 l 1
 110 350 l 1
 111 354 111 360 111 368 c 0
 111 387 100 393 48 394 c 1
 48 410 l 1
 135 426 157 431 209 441 c 1
 212 439 l 1
 146 221 l 1
 249 381 312 441 376 441 c 0
 415 441 442 416 442 379 c 0xd0
 442 366 438 344 434 324 c 1
 376 117 l 1
 362 62 362 62 362 54 c 0
 362 45 371 38 378 38 c 0
 393 38 410 54 439 91 c 2
 460 117 l 1xe0
EndSplineSet
EndChar
StartChar: o
Encoding: 111 111 80
Width: 499
Flags: W
HStem: -12 22<174 191> 420 21<306 325>
VStem: 26 85<101 129> 384 85<300 327>
Fore
325 441 m 0
 410 441 469 384 469 300 c 0
 469 226 428 141 362 76 c 0
 305 19 240 -12 174 -12 c 4
 83 -12 26 42 26 129 c 0
 26 286 174 441 325 441 c 0
313 420 m 0
 270 420 229 390 189 334 c 0
 141 264 111 174 111 101 c 0
 111 45 142 10 189 10 c 0
 231 10 270 35 308 88 c 0
 352 152 384 253 384 327 c 0
 384 382 356 420 313 420 c 0
EndSplineSet
EndChar
StartChar: p
Encoding: 112 112 81
Width: 499
Flags: W
HStem: -205 16<-75 -53.5> -12 19<154.149 182>
VStem: 379 90<306 330>
DStem: 208 441 211 441 54 419 212 439 208 441 215 437 54 419 212 428
Fore
56 404 m 1
 54 419 l 1
 208 441 l 1
 209 442 l 1
 209 442 211 442 211 441 c 1
 212 439 l 1
 214 438 215 437 215 437 c 1
 212 428 l 1
 183 328 l 1
 242 409 289 441 354 441 c 0
 425 441 469 394 469 316 c 0
 469 157 315 -12 168 -12 c 0
 146 -12 127 -7 103 6 c 1
 83 -67 66 -146 66 -160 c 0
 66 -182 83 -190 130 -190 c 1
 130 -205 l 1
 -75 -205 l 1
 -75 -189 l 1
 -32 -187 -19 -176 -7 -130 c 0
 -1 -101 23 -6 50 94 c 0
 85 226 122 368 122 376 c 0
 122 393 95 412 82 404 c 0
 81 404 79 404 79 404 c 1
 56 404 l 1
316 398 m 0
 267 401 209 352 182 284 c 0
 152 209 117 79 117 45 c 0
 117 23 138 7 166 7 c 0
 217 7 265 40 308 98 c 0
 350 160 379 246 379 312 c 0
 379 371 360 395 316 398 c 0
EndSplineSet
EndChar
StartChar: q
Encoding: 113 113 82
Width: 499
Flags: W
HStem: -209 16<149 160> -12 54<127 167> 419 22<312 333>
VStem: 25 86<103 121>
DStem: 333 152 483 426 245 -141 319 -151
Fore
391 -190 m 1
 391 -209 l 1
 149 -209 l 1
 149 -193 l 1
 215 -187 231 -180 245 -141 c 1
 333 152 l 1
 245 26 198 -12 127 -12 c 4
 64 -12 25 34 25 105 c 0
 25 256 186 441 318 441 c 0
 359 441 379 425 395 379 c 1
 410 426 l 1
 483 426 l 1
 319 -151 l 2
 318 -155 316 -160 316 -163 c 0
 316 -182 337 -190 374 -190 c 2
 391 -190 l 1
321 419 m 0
 291 419 259 401 229 371 c 0
 163 305 111 193 111 119 c 0
 111 72 133 42 167 42 c 0
 190 42 218 54 245 76 c 0
 312 133 379 275 379 357 c 0
 379 393 354 419 321 419 c 0
EndSplineSet
EndChar
StartChar: r
Encoding: 114 114 83
Width: 388
Flags: W
HStem: 0 21G<45 122> 376 65<313 365>
Fore
122 0 m 1
 45 0 l 1
 126 291 l 1
 142 360 142 360 142 374 c 0
 142 393 129 401 107 401 c 0
 100 401 97 401 73 397 c 1
 73 415 l 1
 146 426 155 428 229 441 c 1
 231 439 l 1
 179 223 l 1
 192 258 l 2
 208 297 248 357 289 398 c 0
 315 426 341 441 365 441 c 0
 393 441 412 420 412 390 c 0
 412 357 395 340 366 340 c 0
 346 340 338 346 330 362 c 0
 325 372 319 376 313 376 c 0
 297 376 270 346 236 289 c 0
 190 212 173 170 122 0 c 1
EndSplineSet
EndChar
StartChar: s
Encoding: 115 115 84
Width: 388
Flags: W
HStem: -12 22<152 162> 7 139<37 56> 303 120<322 346> 417 24<227 241>
VStem: 108 74<331 365> 229 76<86 119>
Fore
37 146 m 1x4c
 53 146 l 1x4c
 67 51 100 10 154 10 c 0
 198 10 229 42 229 86 c 0
 229 116 211 151 171 202 c 0
 130 256 108 299 108 331 c 0
 108 398 157 441 230 441 c 0x9c
 246 441 261 439 286 431 c 0
 305 426 315 423 322 423 c 0
 335 423 344 428 352 442 c 1
 366 442 l 1
 346 303 l 1
 330 303 l 1x2c
 319 381 290 417 237 417 c 0
 204 417 182 397 182 365 c 0
 182 337 198 306 236 259 c 0
 283 201 305 157 305 119 c 0
 305 42 245 -12 160 -12 c 0x9c
 144 -12 127 -7 105 -1 c 0
 85 4 67 7 56 7 c 0
 45 7 40 3 32 -13 c 1
 16 -13 l 1
 37 146 l 1x4c
EndSplineSet
EndChar
StartChar: t
Encoding: 116 116 85
Width: 276
Flags: W
HStem: -12 50<85 133> 395 33<215 291>
VStem: 37 82<26 59>
DStem: 132 395 207 395 60 122 119 63
Fore
296 428 m 1
 291 395 l 1
 207 395 l 1
 119 63 l 2
 119 60 119 59 119 59 c 0
 119 45 125 38 133 38 c 0
 149 38 166 54 214 117 c 1
 227 110 l 1
 164 18 130 -12 85 -12 c 0
 59 -12 37 4 37 26 c 0
 37 35 45 70 54 100 c 0
 57 108 59 111 60 122 c 1
 132 395 l 1
 59 395 l 1
 57 398 57 401 57 401 c 0
 57 413 64 419 89 428 c 0
 122 437 183 486 223 538 c 0
 229 545 231 546 237 546 c 0
 242 546 245 543 245 536 c 0
 245 532 l 1
 215 428 l 1
 296 428 l 1
EndSplineSet
EndChar
StartChar: u
Encoding: 117 117 86
Width: 499
Flags: W
HStem: -9 47<337 378> 400 15<59 70.4>
VStem: 42 77<44 67> 289 79<40 56>
DStem: 104 309 211 439 67 167 120 76
Fore
461 117 m 1
 475 108 l 1
 407 12 384 -9 337 -9 c 0
 308 -9 289 9 289 40 c 0
 289 60 305 129 334 236 c 1
 220 42 166 -12 95 -12 c 0
 60 -12 42 7 42 44 c 0
 42 62 48 97 67 167 c 1
 104 309 l 2
 113 343 119 368 119 376 c 0
 119 382 113 393 107 394 c 0
 98 398 97 400 59 400 c 1
 59 415 l 1
 116 420 151 428 208 441 c 1
 211 439 l 1
 120 76 l 2
 119 73 119 70 119 67 c 0
 119 53 127 42 141 42 c 0
 171 42 221 92 281 187 c 0
 327 261 334 277 391 432 c 1
 464 432 l 1
 387 133 l 2
 368 62 368 62 368 56 c 0
 368 44 371 38 378 38 c 0
 394 38 409 53 461 117 c 1
EndSplineSet
EndChar
StartChar: v
Encoding: 118 118 87
Width: 443
Flags: W
VStem: 333 93<382 407>
Fore
21 403 m 1
 21 416 l 1
 59 422 114 432 132 437 c 0
 141 439 146 441 152 441 c 0
 161 441 161 439 182 337 c 0
 193 264 201 211 207 70 c 1
 237 103 l 2
 309 176 375 287 375 333 c 0
 375 343 371 352 357 363 c 0
 338 379 333 391 333 407 c 0
 333 428 349 441 371 441 c 0
 400 441 426 415 426 382 c 0
 426 346 400 280 365 230 c 0
 264 88 170 -18 145 -18 c 0
 138 -18 136 -12 136 18 c 0
 136 75 125 226 114 294 c 0
 100 387 89 404 51 404 c 0
 40 404 32 404 21 403 c 1
EndSplineSet
EndChar
StartChar: w
Encoding: 119 119 88
Width: 666
Flags: W
HStem: 404 16<31 42>
VStem: 557 90<390 407>
DStem: 341 331 403 426 371 12 435 75
Fore
16 404 m 1
 16 417 l 1
 28 419 38 420 42 420 c 0
 75 426 100 431 110 434 c 0
 123 438 133 441 141 441 c 0
 152 441 154 434 166 371 c 0
 176 300 187 196 190 126 c 1
 382 431 l 2
 387 438 390 439 395 439 c 0
 401 439 403 437 403 426 c 1
 435 75 l 1
 565 237 601 291 601 334 c 0
 601 346 595 356 579 371 c 0
 562 387 557 394 557 407 c 0
 557 428 573 441 596 441 c 0
 625 441 647 419 647 390 c 0
 647 325 573 199 437 37 c 0
 432 31 428 26 428 25 c 0
 400 -7 390 -18 382 -18 c 0
 375 -18 374 -15 371 12 c 1
 341 331 l 1
 253 174 l 2
 223 122 204 86 198 76 c 0
 163 7 145 -18 133 -18 c 0
 125 -18 123 -10 122 29 c 1
 117 117 l 1
 114 196 103 302 89 359 c 0
 83 397 73 407 45 404 c 0
 40 404 37 404 37 404 c 2
 16 404 l 1
EndSplineSet
EndChar
StartChar: x
Encoding: 120 120 89
Width: 443
Flags: W
HStem: -12 78<7 23> 368 73<404 416>
Fore
401 111 m 1
 416 103 l 1
 357 13 333 -12 294 -12 c 0
 262 -12 249 4 236 56 c 2
 207 176 l 1
 164 119 144 91 116 59 c 0
 66 -1 54 -12 23 -12 c 0
 -7 -12 -26 4 -26 31 c 0
 -26 51 -12 66 7 66 c 0
 15 66 26 63 40 56 c 0
 48 50 59 47 64 47 c 0
 76 47 97 64 116 95 c 1
 198 212 l 1
 168 335 l 2
 155 395 149 404 125 404 c 0
 116 404 105 401 67 393 c 1
 64 409 l 1
 75 412 l 2
 136 432 170 441 192 441 c 0
 220 441 230 420 245 353 c 2
 255 297 l 1
 324 404 362 441 406 441 c 0
 431 441 447 425 447 404 c 0
 447 382 434 368 412 368 c 0
 404 368 397 371 385 376 c 0
 375 382 368 385 360 385 c 0
 343 385 308 341 264 264 c 1
 264 249 274 204 299 103 c 0
 300 100 300 92 303 85 c 0
 311 57 319 44 334 44 c 0
 346 44 357 54 379 83 c 0
 390 97 394 103 401 111 c 1
EndSplineSet
EndChar
StartChar: y
Encoding: 121 121 90
Width: 443
Flags: W
HStem: -207 84<15 26> 404 35<45 145>
VStem: 333 93<387 404>
Fore
15 400 m 1
 15 417 l 1
 29 419 42 422 47 423 c 0
 100 434 136 439 145 439 c 0
 149 439 152 439 154 441 c 2
 158 441 l 2
 173 441 229 275 245 187 c 2
 264 72 l 1
 349 212 387 291 387 331 c 0
 387 346 379 354 360 365 c 0
 340 378 333 390 333 404 c 0
 333 426 349 441 371 441 c 0
 401 441 426 416 426 387 c 0
 426 337 398 265 330 142 c 0
 223 -56 91 -207 26 -207 c 0
 -1 -207 -23 -187 -23 -163 c 0
 -23 -141 -7 -123 15 -123 c 0
 26 -123 37 -127 53 -141 c 0
 63 -148 70 -151 76 -151 c 0
 89 -151 101 -144 122 -122 c 0
 133 -108 152 -83 185 -42 c 0
 199 -23 205 -7 205 7 c 0
 205 25 182 142 164 207 c 0
 119 379 103 404 45 404 c 0
 35 404 28 403 15 400 c 1
EndSplineSet
EndChar
StartChar: z
Encoding: 122 122 91
Width: 388
Flags: W
HStem: -81 21<268 283> 368 60<97 308>
VStem: 294 69<-10 4>
DStem: 308 368 379 417 -1 -4 89 73
Fore
81 309 m 1
 64 313 l 1
 97 428 l 1
 379 428 l 1
 379 417 l 1
 89 73 l 1
 148 60 167 47 211 -10 c 0
 245 -53 256 -60 281 -60 c 0
 297 -60 308 -54 308 -45 c 0
 308 -42 306 -37 303 -29 c 0
 297 -19 294 -9 294 0 c 0
 294 18 308 31 328 31 c 0
 349 31 363 16 363 -4 c 0
 363 -45 319 -81 270 -81 c 0
 242 -81 207 -67 157 -37 c 0
 110 -7 78 4 53 4 c 0
 37 4 23 0 7 -13 c 1
 -1 -4 l 1
 308 368 l 1
 163 368 l 2
 116 368 103 359 81 309 c 1
EndSplineSet
EndChar
StartChar: braceleft
Encoding: 123 123 92
Width: 399
Flags: W
VStem: 51 75<-100 -96> 117 75<190 200>
DStem: 218 546 294 552 170 369 250 384
Fore
407 687 m 1x40
 404 677 l 1
 341 661 316 631 294 552 c 2
 250 384 l 2
 229 300 202 272 138 255 c 1
 176 237 192 220 192 192 c 0x40
 192 174 174 97 148 1 c 0
 132 -59 126 -85 126 -100 c 0
 126 -138 141 -155 179 -166 c 1
 176 -177 l 1
 83 -174 51 -154 51 -100 c 0x80
 51 -76 62 -29 83 45 c 0
 105 122 117 174 117 198 c 0
 117 227 104 242 64 255 c 1
 129 272 151 296 170 369 c 1
 218 546 l 1
 249 653 294 687 407 687 c 1x40
EndSplineSet
EndChar
StartChar: bar
Encoding: 124 124 93
Width: 273
Flags: W
HStem: 646 20G<105 171>
VStem: 105 66<-18 666>
Fore
105 -18 m 1
 105 666 l 1
 171 666 l 1
 171 -18 l 1
 105 -18 l 1
EndSplineSet
EndChar
StartChar: braceright
Encoding: 125 125 94
Width: 399
Flags: W
VStem: 208 75<310 320> 274 75<609 624>
DStem: 149 126 230 141 105 -42 182 -37
Fore
221 677 m 1x40
 224 687 l 1
 315 684 349 664 349 609 c 0x40
 349 587 338 539 316 464 c 0
 294 388 283 335 283 312 c 0
 283 283 296 270 335 255 c 1
 271 237 249 214 230 141 c 1
 182 -37 l 1
 151 -144 105 -177 -7 -177 c 1
 -4 -166 l 1
 59 -149 83 -122 105 -42 c 2
 149 126 l 2
 171 209 196 237 264 255 c 1
 224 272 208 291 208 318 c 0x80
 208 335 226 412 252 508 c 0
 267 565 274 596 274 609 c 0
 274 646 259 665 221 677 c 1x40
EndSplineSet
EndChar
StartChar: asciitilde
Encoding: 126 126 95
Width: 540
Flags: W
Fore
448 303 m 1
 502 271 l 1
 456 207 425 186 379 186 c 0
 334 186 316 192 227 240 c 0
 209 249 189 253 168 253 c 0
 138 253 120 242 94 204 c 1
 40 234 l 1
 86 299 117 319 163 319 c 0
 208 319 226 313 315 267 c 0
 333 256 353 252 374 252 c 0
 404 252 422 264 448 303 c 1
EndSplineSet
EndChar
StartChar: uni0E10.descless
Encoding: 128 63232 96
Width: 484
Flags: W
HStem: -8 43<276 295> 190 39<185 200> 319 39<218 231>
DStem: 149 439 208 472 390 370 452 401 225 198 316 270 199 106 263 78 404 321 480 332 336 77 417 106
Fore
589 571 m 0
 589 571 l 0
 551.249 502.924 499.71 488.086 462.115 488.086 c 0
 438.962 488.086 421.098 493.713 415 496 c 0
 362.593 515.49 325.005 525.601 295.656 525.601 c 0
 257.243 525.601 232.943 508.281 208 472 c 1
 452 401 l 1
 462.378 394.614 484.864 392.688 484.864 361.646 c 0
 484.864 353.803 483.429 344.102 480 332 c 2
 417 106 l 2
 399 41 351 -8 276 -8 c 0
 225.143 -8 194.472 27.6605 194.472 74.1455 c 0
 194.472 84.3311 195.945 95.0363 199 106 c 2
 225 198 l 1
 211 192 200 190 185 190 c 0
 144.964 190 124.49 214.896 124.49 248.259 c 0
 124.49 258.23 126.319 268.956 130 280 c 1
 145 324 184 358 231 358 c 0
 231.944 358.012 232.879 358.018 233.805 358.018 c 0
 294.849 358.018 319.587 331.564 319.587 295.482 c 0
 319.587 287.407 318.348 278.85 316 270 c 2
 263 78 l 2
 261.661 73.5378 260.97 68.9262 260.97 64.4541 c 0
 260.97 48.8818 269.355 35 288 35 c 0
 313 35 331 58 336 77 c 2
 404 321 l 2
 407.146 332.185 408.826 340.805 408.826 347.542 c 0
 408.826 360.079 403.009 366.097 390 370 c 2
 149 439 l 1
 170.64 477.362 234.854 594.098 334.978 594.098 c 0
 336.642 594.098 338.316 594.065 340 594 c 0
 386.085 594 454.287 560.321 513.244 560.321 c 0
 537.443 560.321 560.085 565.995 579 582 c 0
 582.86 585.158 586.35 586.715 588.866 586.715 c 0
 591.353 586.715 592.888 585.194 592.888 582.194 c 0
 592.888 579.578 591.721 575.838 589 571 c 0
196 229 m 0
 230.255 229 252.592 261.505 252.592 287.446 c 0
 252.592 304.67 242.745 319 220 319 c 0
 186.253 319 164.127 286.315 164.127 260.34 c 0
 164.127 243.211 173.747 229 196 229 c 0
EndSplineSet
KernsSLIF: 212 46 0 0 215 46 0 0 214 46 0 0 213 46 0 0
EndChar
StartChar: uni0E34.left
Encoding: 129 63233 97
Width: 0
Flags: W
Fore
-62 654 m 4
 -62 654 l 0
 -82 667 -183 722 -250 731 c 0
 -280.605 736.158 -310.855 738.005 -338.148 738.005 c 0
 -390.224 738.005 -431.534 731.281 -444 728 c 1
 -392.011 828.197 -298.92 892.654 -208.647 892.654 c 0
 -203.419 892.654 -198.201 892.438 -193 892 c 0
 -106.261 886.326 -53.0365 826.765 -53.0365 728.768 c 0
 -53.0365 705.877 -55.9406 680.889 -62 654 c 4
-94 719 m 1
 -100 803 -141 834 -209 843 c 0
 -215.195 843.854 -221.424 844.264 -227.649 844.264 c 0
 -279.711 844.264 -331.525 815.621 -361 779 c 1
 -361 779 -343.25 780.5 -317.875 780.5 c 0
 -292.5 780.5 -259.5 779 -229 773 c 0
 -143 756 -94 719 -94 719 c 1
EndSplineSet
EndChar
StartChar: uni0E35.left
Encoding: 130 63234 98
Width: 0
Flags: W
DStem: -67 951 -3 951 -95 852 -56 762
Fore
-62 654 m 0
 -62 654 l 0
 -82 667 -183 720 -250 731 c 0
 -281.637 736.158 -312.209 738.005 -339.48 738.005 c 0
 -391.515 738.005 -431.534 731.281 -444 728 c 1
 -401.087 815.733 -305.43 892.553 -214.264 892.553 c 0
 -209.83 892.553 -205.406 892.371 -201 892 c 0
 -168 891 -126 883 -95 852 c 1
 -67 951 l 1
 -3 951 l 5
 -56 762 l 1
 -56 762 -53.7244 750.053 -53.7244 728.891 c 0
 -53.7244 710.373 -55.4667 684.8 -62 654 c 0
-94 719 m 1
 -100 803 -141 834 -209 843 c 0
 -215.195 843.854 -221.424 844.264 -227.649 844.264 c 0
 -279.711 844.264 -331.525 815.621 -361 779 c 1
 -361 779 -343.25 780.5 -317.875 780.5 c 0
 -292.5 780.5 -259.5 779 -229 773 c 0
 -143 756 -94 719 -94 719 c 1
EndSplineSet
EndChar
StartChar: uni0E36.left
Encoding: 131 63235 99
Width: 0
Flags: W
HStem: 905 41<-53 -38>
Fore
-75 822 m 0
 -75 822 l 0
 -44.0159 822 -23.3665 852.635 -23.3665 876.681 c 0
 -23.3665 892.215 -31.9841 905 -52 905 c 0
 -82.4743 905 -102.919 874.168 -102.919 850.087 c 0
 -102.919 834.658 -94.5257 822 -75 822 c 0
-94 719 m 1
 -94 719 l 0
 -100 803 -141 834 -209 843 c 0
 -215.195 843.854 -221.424 844.264 -227.649 844.264 c 0
 -279.711 844.264 -331.525 815.621 -361 779 c 1
 -361 779 -343.25 780.5 -317.875 780.5 c 0
 -292.5 780.5 -259.5 779 -229 773 c 0
 -143 756 -94 719 -94 719 c 1
-62 654 m 1
 -82 667 -183 720 -250 731 c 0
 -281.637 736.158 -312.209 738.005 -339.48 738.005 c 0
 -391.515 738.005 -431.534 731.281 -444 728 c 1
 -400.182 817.542 -301.92 892.565 -211.448 892.565 c 0
 -206.943 892.565 -202.458 892.379 -198 892 c 0
 -158 889 -135 877 -135 877 c 1
 -128 908 -90 946 -38 946 c 0
 -0.976888 946 21.1546 920.278 21.1546 887.212 c 0
 21.1546 880.088 20.1272 872.622 18 865 c 0
 8 829 -22 791 -60 783 c 1
 -60 783 -53.0039 762.423 -53.0039 726.814 c 0
 -53.0039 706.915 -55.1887 682.321 -62 654 c 1
EndSplineSet
EndChar
StartChar: uni0E37.left
Encoding: 132 63236 100
Width: 0
Flags: W
DStem: -177 951 -124 951 -196 889 -144 877 -63 951 -7 951 -93 845 -56 763
Fore
-62 654 m 0
 -62 654 l 0
 -82 667 -183 720 -250 731 c 0
 -281.637 736.158 -312.209 738.005 -339.48 738.005 c 0
 -391.515 738.005 -431.534 731.281 -444 728 c 1
 -387.358 838.586 -288.683 890.972 -218.47 890.972 c 0
 -210.588 890.972 -203.065 890.312 -196 889 c 1
 -177 951 l 1
 -124 951 l 1
 -144 877 l 1
 -114 869 -93 845 -93 845 c 1
 -63 951 l 1
 -7 951 l 1
 -56 763 l 5
 -56 763 -52.4997 750.272 -52.4997 726.789 c 0
 -52.4997 708.644 -54.5897 684.077 -62 654 c 0
-94 719 m 1
 -100 803 -141 834 -209 843 c 0
 -215.195 843.854 -221.424 844.264 -227.649 844.264 c 0
 -279.711 844.264 -331.525 815.621 -361 779 c 1
 -361 779 -343.25 780.5 -317.875 780.5 c 0
 -292.5 780.5 -259.5 779 -229 773 c 0
 -143 756 -94 719 -94 719 c 1
EndSplineSet
EndChar
StartChar: ellipsis
Encoding: 133 8230 101
Width: 951
Flags: W
HStem: -14 21G<142.114 169.5 459.271 486.5 776.693 804>
Fore
860 45 m 0
 860 45 l 0
 851 12 819 -14 789 -14 c 0
 764.386 -14 749.869 4.84936 749.869 28.7395 c 0
 749.869 33.9666 750.564 39.435 752 45 c 0
 761 74 793 101 821 101 c 0
 845.07 101 862.251 83.0888 862.251 59.8455 c 0
 862.251 55.0846 861.53 50.1001 860 45 c 0
544 45 m 0
 544 45 l 0
 535 12 501 -14 472 -14 c 0
 446.542 -14 431.875 4.88342 431.875 28.8043 c 0
 431.875 34.0117 432.57 39.4579 434 45 c 0
 443 74 474 101 504 101 c 0
 528.229 101 546.176 82.8506 546.176 59.3827 c 0
 546.176 54.762 545.481 49.9351 544 45 c 0
226 45 m 0
 217 12 185 -14 154 -14 c 0
 130.228 -14 115.863 4.81474 115.863 28.6737 c 0
 115.863 33.9207 116.558 39.4116 118 45 c 0
 127 74 159 101 186 101 c 0
 210.917 101 228.246 83.0639 228.246 59.7971 c 0
 228.246 55.0509 227.525 50.0829 226 45 c 0
EndSplineSet
EndChar
StartChar: uni0E48.low_left
Encoding: 134 63237 102
Width: 0
Flags: W
DStem: -80 926 -8 926 -147 685 -75 685
Fore
-8 926 m 1
 -75 685 l 1
 -147 685 l 5
 -80 926 l 1
 -8 926 l 1
EndSplineSet
EndChar
StartChar: uni0E49.low_left
Encoding: 135 63238 103
Width: 0
Flags: W
HStem: 776 35<-304 -292> 902 35<-269 -257>
Fore
40 931 m 1
 40 931 l 0
 -60.3512 694.974 -257.378 667.767 -345.667 667.767 c 0
 -367.353 667.767 -382.479 669.408 -388 670 c 1
 -379 703 l 1
 -370 707 -309 734 -279 780 c 1
 -279 780 -289 776 -304 776 c 0
 -345.724 776 -363.762 801.422 -363.762 832.063 c 0
 -363.762 878.531 -322.276 937 -259 937 c 0
 -202.967 937 -194.095 899.644 -194.095 875.986 c 0
 -194.095 865.022 -196 857 -196 857 c 1
 -222 765 -293 716 -293 716 c 1
 -293 714 l 1
 -230 723 -92 766 -38 931 c 1
 40 931 l 1
-292 811 m 0
 -257.525 811 -234.756 844.289 -234.756 870.6 c 0
 -234.756 887.789 -244.475 902 -267 902 c 0
 -302.492 902 -325.68 869.069 -325.68 842.828 c 0
 -325.68 825.447 -315.508 811 -292 811 c 0
EndSplineSet
EndChar
StartChar: uni0E4A.low_left
Encoding: 136 63239 104
Width: 0
Flags: W
HStem: 667 21G<-360.775 -317.5> 849 54<-288 -273>
Fore
16 906 m 1
 16 906 l 0
 -14 768 -105 684 -230 670 c 1
 -224 694 l 1
 -183.475 715.87 -159.088 768.359 -159.088 806.487 c 0
 -159.088 827.633 -166.589 844.362 -183 849 c 1
 -247 811 l 1
 -288 849 l 1
 -323 849 -361 806 -366 768 c 1
 -366 768 -348 800 -301 800 c 0
 -270.809 800 -253.268 780.025 -253.268 754.744 c 0
 -253.268 749.043 -254.16 743.072 -256 737 c 0
 -267 697 -297 667 -338 667 c 0
 -383.549 667 -407.198 697.544 -407.198 744.194 c 0
 -407.198 758.995 -404.817 775.417 -400 793 c 0
 -386 843 -323 903 -273 903 c 1
 -273 903 -234 857 -232 857 c 2
 -169 902 l 1
 -122.484 888.319 -106.956 859.872 -106.956 828.894 c 0
 -106.956 791.943 -129.049 751.39 -147 728 c 1
 -83 766 -48 834 -45 906 c 1
 16 906 l 1
-286 733 m 0
 -284.77 737.393 -284.204 741.4 -284.204 745.021 c 0
 -284.204 762.007 -296.663 770.5 -311.5 770.5 c 0
 -329.5 770.5 -351 758 -358 733 c 0
 -359.069 728.973 -359.563 725.276 -359.563 721.911 c 0
 -359.563 704.804 -346.791 696.25 -331.75 696.25 c 0
 -313.75 696.25 -292.5 708.5 -286 733 c 0
EndSplineSet
EndChar
StartChar: uni0E4B.low_left
Encoding: 137 63240 105
Width: 0
Flags: W
HStem: 676 21G<-200 -146> 776 58<-267 -173 -98 -7>
DStem: -173 776 -116 776 -200 676 -146 676 -158 836 -98 836 -267 834 9 834 -132 935 -69 935 -158 836 -98 836
Fore
-7 777 m 1
 -116 776 l 1
 -146 676 l 1
 -200 676 l 1
 -173 776 l 1
 -283 777 l 1
 -267 834 l 1
 -158 836 l 1
 -132 935 l 1
 -69 935 l 1
 -98 836 l 1
 9 834 l 1
 -7 777 l 1
EndSplineSet
MinimumDistance: x6,11 x5,0 
EndChar
StartChar: uni0E4C.low_left
Encoding: 138 63241 106
Width: 0
Flags: W
HStem: 670 33<-228 -216>
Fore
49 954 m 1
 49 954 l 0
 9 846 -121 823 -153 817 c 2
 -155 816 l 1
 -135.23 812.339 -126.719 793.13 -126.719 771.72 c 0
 -126.719 763.89 -127.858 755.766 -130 748 c 0
 -141 707 -180 670 -227 670 c 0
 -265.787 670 -286.867 695.199 -286.867 727.05 c 0
 -286.867 733.794 -285.922 740.836 -284 748 c 0
 -273 786 -249 831 -143 860 c 0
 -91 876 -30 906 -16 968 c 1
 49 954 l 1
-218 703 m 0
 -184.761 703 -162.845 734.044 -162.845 758.61 c 0
 -162.845 774.694 -172.239 788 -194 788 c 0
 -227.747 788 -249.873 757.131 -249.873 732.599 c 0
 -249.873 716.422 -240.253 703 -218 703 c 0
EndSplineSet
EndChar
StartChar: uni0E48.low
Encoding: 139 63242 107
Width: 0
Flags: W
HStem: 670 21G<15 87>
DStem: 82 914 154 914 15 670 87 670
AnchorPoint: "AboveBase" 77.8311 645.12 mark 0
Fore
154 914 m 1
 87 670 l 1
 15 670 l 1
 82 914 l 1
 154 914 l 1
EndSplineSet
Substitution: 0 65534 'amni' uni0E4D
EndChar
StartChar: uni0E49.low
Encoding: 140 63243 108
Width: 0
Flags: W
HStem: 776 37<-79 -64> 919 36<-40 -28>
AnchorPoint: "AboveBase" 77.8311 645.12 mark 0
Fore
283 952 m 1
 283 952 l 0
 188.368 696.413 -23.3644 667.83 -117.266 667.83 c 0
 -139.461 667.83 -155.073 669.426 -161 670 c 1
 -151 705 l 1
 -143 708 -81 733 -49 780 c 1
 -49 780 l 1
 -49 780 -62 776 -78 776 c 0
 -124.524 776 -144.642 804.303 -144.642 838.4 c 0
 -144.642 890.052 -98.4761 955 -28 955 c 0
 32.4545 955 43.0374 916.603 43.0374 890.24 c 0
 43.0374 876.92 40.3357 866.671 40 866 c 0
 12 765 -66 716 -66 716 c 1
 -64 716 l 1
 -64 716 134 722 206 952 c 1
 283 952 l 1
-68 813 m 0
 -26.3244 813 1.1236 851.67 1.1236 882.297 c 0
 1.1236 902.377 -10.6756 919 -38 919 c 0
 -78.1481 919 -104.975 879.776 -104.975 849.049 c 0
 -104.975 829.263 -93.8519 813 -68 813 c 0
EndSplineSet
Substitution: 0 65534 'amni' uni0E4D
EndChar
StartChar: uni0E4A.low
Encoding: 141 63244 109
Width: 0
Flags: W
HStem: 668 21G<-175.677 -128> 876 56<-93 -75>
AnchorPoint: "AboveBase" 77.8311 645.12 mark 0
Fore
265 926 m 1
 265 926 l 0
 231 799 130 691 -27 670 c 1
 -19 699 l 1
 26.6173 723.764 54.8227 784.201 54.8227 828.004 c 0
 54.8227 851.417 46.7645 870.078 29 876 c 1
 -46 831 l 1
 -50 836 -93 876 -93 876 c 1
 -131 876 -181 816 -182 777 c 1
 -181 777 l 1
 -181 777 -159 814 -110 814 c 0
 -77.8534 814 -55.726 791.099 -55.726 761.644 c 0
 -55.726 756.28 -56.4596 750.699 -58 745 c 0
 -70 702 -105 668 -151 668 c 0
 -200.354 668 -223.985 704.346 -223.985 754.46 c 0
 -223.985 771.363 -221.297 789.831 -216 809 c 0
 -201 862 -132 931 -75 932 c 1
 -73 931 -31 883 -29 883 c 2
 42 932 l 1
 93.9231 915.077 109.899 882.621 109.899 849.085 c 0
 109.899 795.426 69 739 69 739 c 1
 71 739 l 2
 127 770 189 852 192 926 c 1
 265 926 l 1
-93 739 m 0
 -91.5422 744.193 -90.873 748.914 -90.873 753.161 c 0
 -90.873 772.22 -104.349 781.75 -120.5 781.75 c 0
 -140.25 781.75 -164 767.5 -172 739 c 0
 -173.29 734.356 -173.885 730.111 -173.885 726.266 c 0
 -173.885 707.755 -160.103 698.5 -143.75 698.5 c 0
 -124 698.5 -100.5 712 -93 739 c 0
EndSplineSet
Substitution: 0 65534 'amni' uni0E4D
EndChar
StartChar: uni0E4B.low
Encoding: 142 63245 110
Width: 0
Flags: W
HStem: 677 21G<22 79> 777 62<-43 48 127 216>
DStem: 48 777 108 777 22 677 79 677 64 840 127 840 -43 839 233 839 91 942 157 942 64 840 127 840
AnchorPoint: "AboveBase" 77.8311 645.12 mark 0
Fore
216 779 m 1
 108 777 l 1
 79 677 l 1
 22 677 l 1
 48 777 l 1
 -60 779 l 1
 -43 839 l 1
 64 840 l 1
 91 942 l 1
 157 942 l 1
 127 840 l 1
 233 839 l 1
 216 779 l 1
EndSplineSet
MinimumDistance: x6,11 x5,0 
Substitution: 0 65534 'amni' uni0E4D
EndChar
StartChar: uni0E4C.low
Encoding: 143 63246 111
Width: 0
Flags: W
HStem: 668 39<-12 1>
AnchorPoint: "AboveBase" 77.8311 645.12 mark 0
Fore
263 949 m 1
 263 949 l 0
 215 854 100 833 65 826 c 2
 62 825 l 1
 85.7026 820.69 94.96 800.388 94.96 777.803 c 0
 94.96 768.944 93.5357 759.734 91 751 c 0
 79 707 35 668 -12 668 c 0
 -56.7673 668 -76.2442 692.057 -76.2442 725.152 c 0
 -76.2442 734.195 -74.7899 743.913 -72 754 c 0
 -61 793 -38 837 72 871 c 0
 126 888 175 917 200 971 c 1
 263 949 l 1
-1 707 m 0
 31.2204 707 52.723 739.154 52.723 764.366 c 0
 52.723 780.627 43.7796 794 23 794 c 0
 -12.7775 794 -35.7547 763.066 -35.7547 738.089 c 0
 -35.7547 721.179 -25.2225 707 -1 707 c 0
EndSplineSet
EndChar
StartChar: uni0E0D.descless
Encoding: 144 63247 112
Width: 762
Flags: W
HStem: -8 37<514 532> 392 44<214 232 214 364> 574 20G<753 827>
DStem: 490 407 565 413 408 112 478 101 753 594 827 594 616 100 691 104
Fore
827 594 m 1
 691 104 l 1
 691 104 l 0
 677 54 600 -8 515 -8 c 0
 445.439 -8 403.943 32.2992 403.943 83.5952 c 0
 403.943 92.7677 405.27 102.292 408 112 c 2
 490 407 l 1
 494.875 425.213 497.119 441.479 497.119 455.897 c 0
 497.119 519.501 453.453 547.128 399.395 547.128 c 0
 332.487 547.128 249.659 504.806 214 436 c 1
 376 436 l 1
 364 392 l 1
 354 392 319 392 317 392 c 0
 275 392 262 341 262 341 c 1
 261 338 210 154 210 154 c 1
 226.208 159.403 240.268 161.816 252.296 161.816 c 0
 291.544 161.816 309.152 136.114 309.152 104.7 c 0
 309.152 56.6494 267.957 -4.76397 200 -8 c 0
 197.772 -8.09582 195.6 -8.14286 193.481 -8.14286 c 0
 131.397 -8.14286 115.57 32.2466 115.57 69.4545 c 0
 115.57 83.987 117.984 98.0342 121 109 c 2
 181 324 l 2
 195 375 232 392 232 392 c 1
 152 392 l 1
 192.755 526.804 318.96 598.272 422.206 598.272 c 0
 503.442 598.272 570.465 554.026 570.465 461.575 c 0
 570.465 446.646 568.718 430.46 565 413 c 1
 478 101 l 2
 475.931 93.4781 474.924 86.239 474.924 79.4425 c 0
 474.924 50.0965 493.71 29 527 29 c 0
 569 29 605 60 616 100 c 2
 753 594 l 1
 827 594 l 1
211 32 m 0
 211 32 l 0
 247 32 270.4 64.04 270.4 89.672 c 0
 270.4 106.76 260 121 236 121 c 0
 201.525 121 178.756 88.4422 178.756 62.7103 c 0
 178.756 45.8982 188.475 32 211 32 c 0
EndSplineSet
EndChar
StartChar: quoteleft
Encoding: 145 8216 113
Width: 317
Flags: W
HStem: 456 21G<271.066 313.5>
Fore
377 524 m 0
 366 482 334 456 293 456 c 0
 249.133 456 233.062 487.537 233.062 524.037 c 0
 233.062 537.461 235.236 551.556 239 565 c 0
 257 630 338 700 404 728 c 1
 410 700 l 1
 368 679 305 624 295 588 c 0
 293.931 584.793 292.862 582.157 292.862 580.398 c 0
 292.862 578.867 293.673 578 296 578 c 0
 303.2 578 313.64 585.29 328.778 585.29 c 0
 330.46 585.29 332.2 585.2 334 585 c 0
 360.315 584.178 379.867 568.478 379.867 542.35 c 0
 379.867 536.705 378.954 530.574 377 524 c 0
EndSplineSet
EndChar
StartChar: quoteright
Encoding: 146 8217 114
Width: 317
Flags: W
Fore
268 659 m 0
 279 700 311 727 352 727 c 0
 395.867 727 411.938 695.463 411.938 658.572 c 0
 411.938 645.005 409.764 630.713 406 617 c 0
 388 553 307 482 240 455 c 1
 235 482 l 1
 276 504 340 559 350 594 c 0
 351 597.5 352 600.25 352 602.125 c 0
 352 604 351 605 348 605 c 0
 341.7 605 331.35 597.71 316.221 597.71 c 0
 314.54 597.71 312.8 597.8 311 598 c 0
 284.685 598.822 265.133 614.522 265.133 640.65 c 0
 265.133 646.295 266.046 652.426 268 659 c 0
EndSplineSet
EndChar
StartChar: quotedblleft
Encoding: 147 8220 115
Width: 451
Flags: W
HStem: 456 21G<213.066 255.5 448.066 490.5>
Fore
554 524 m 0
 554 524 l 0
 543 482 511 456 470 456 c 0
 426.133 456 410.062 487.537 410.062 524.037 c 0
 410.062 537.461 412.236 551.556 416 565 c 0
 434 630 514 700 582 728 c 1
 587 700 l 1
 546 679 482 624 472 588 c 0
 471 585 470 582.5 470 580.75 c 0
 470 579 471 578 474 578 c 0
 479.4 578 490.47 585.29 505.752 585.29 c 0
 507.45 585.29 509.2 585.2 511 585 c 0
 537.315 584.178 556.867 568.478 556.867 542.35 c 0
 556.867 536.705 555.954 530.574 554 524 c 0
318 524 m 0
 307 482 276 456 235 456 c 0
 191.133 456 175.062 487.537 175.062 524.037 c 0
 175.062 537.461 177.236 551.556 181 565 c 0
 199 630 279 700 346 728 c 1
 350 700 l 1
 309 679 246 624 236 588 c 0
 234.931 584.793 233.862 582.157 233.862 580.398 c 0
 233.862 578.867 234.673 578 237 578 c 0
 244.2 578 253.83 585.29 269.535 585.29 c 0
 271.28 585.29 273.1 585.2 275 585 c 0
 301.315 584.178 320.867 568.478 320.867 542.35 c 0
 320.867 536.705 319.954 530.574 318 524 c 0
EndSplineSet
EndChar
StartChar: quotedblright
Encoding: 148 8221 116
Width: 451
Flags: W
Fore
224 659 m 0
 224 659 l 0
 235 700 267 727 308 727 c 0
 351.867 727 367.938 695.463 367.938 658.572 c 0
 367.938 645.005 365.764 630.713 362 617 c 0
 344 553 263 482 197 455 c 1
 191 482 l 1
 233 504 295 559 305 594 c 0
 306.117 597.908 307.545 600.881 307.545 602.745 c 0
 307.545 604.219 306.65 605 304 605 c 0
 297.7 605 287.35 597.71 272.221 597.71 c 0
 270.54 597.71 268.8 597.8 267 598 c 0
 240.685 598.822 221.133 614.522 221.133 640.65 c 0
 221.133 646.295 222.046 652.426 224 659 c 0
460 659 m 0
 471 700 502 727 543 727 c 0
 587.271 727 603.099 695.923 603.099 659.382 c 0
 603.099 645.574 600.839 630.986 597 617 c 0
 579 553 498 482 432 455 c 1
 427 482 l 1
 468 504 532 559 542 594 c 0
 543 597.5 544 600.25 544 602.125 c 0
 544 604 543 605 540 605 c 0
 532.8 605 523.17 597.71 508.194 597.71 c 0
 506.53 597.71 504.8 597.8 503 598 c 0
 476.014 598.818 457.053 614.347 457.053 640.213 c 0
 457.053 645.978 457.995 652.257 460 659 c 0
EndSplineSet
EndChar
StartChar: bullet
Encoding: 149 8226 117
Width: 367
Flags: W
HStem: 430 20G<273.5 336.913>
Fore
396 319 m 0
 376 247 306 189 235 189 c 0
 179.07 189 142.759 228.237 142.759 282.229 c 0
 142.759 293.881 144.45 306.22 148 319 c 0
 167 392 239 450 308 450 c 0
 365.826 450 401.762 411.527 401.762 357.812 c 0
 401.762 345.574 399.897 332.545 396 319 c 0
EndSplineSet
EndChar
StartChar: endash
Encoding: 150 8211 118
Width: 732
Flags: W
HStem: 214 47<103 759>
Fore
759 214 m 1
 91 214 l 1
 104 261 l 1
 772 261 l 1
 759 214 l 1
EndSplineSet
EndChar
StartChar: emdash
Encoding: 151 8212 119
Width: 1464
Flags: W
HStem: 214 47<92 1503>
Fore
1503 214 m 1
 80 214 l 1
 93 261 l 1
 1516 261 l 1
 1503 214 l 1
EndSplineSet
EndChar
StartChar: uni0E31.left
Encoding: 152 63248 120
Width: 0
Flags: W
HStem: 871 41<-143 -132>
Fore
315 908 m 1
 315 908 l 0
 233.594 749.711 65.5815 677.071 -65.2822 677.071 c 0
 -165.906 677.071 -244.565 720.018 -245 800 c 0
 -245 854 -197 911 -132 912 c 0
 -130.41 912.084 -128.839 912.125 -127.288 912.125 c 0
 -91.7874 912.125 -67 890.284 -67 851 c 0
 -69 774 -138 745 -138 745 c 1
 -108.394 733.696 -78.6602 728.734 -49.5942 728.734 c 0
 83.3325 728.734 202.28 832.507 231 908 c 1
 315 908 l 1
-167 780 m 0
 -132.817 780 -109.812 813.907 -109.812 840.326 c 0
 -109.812 857.188 -119.183 871 -141 871 c 0
 -177.221 871 -201.051 837.837 -201.051 811.551 c 0
 -201.051 794.294 -190.779 780 -167 780 c 0
EndSplineSet
EndChar
StartChar: uni0E4D.left
Encoding: 153 63249 121
Width: 0
Flags: W
HStem: 676 41<-147 -133> 820 43<-109 -95>
Fore
-147 676 m 0
 -147 676 l 0
 -194.068 676 -214.384 705.254 -214.384 740.621 c 0
 -214.384 794.672 -166.932 863 -95 863 c 0
 -48.1295 863 -27.765 833.496 -27.765 797.927 c 0
 -27.765 743.948 -74.665 676 -147 676 c 0
-135 717 m 0
 -95.2895 717 -69.3354 754.287 -69.3354 783.992 c 0
 -69.3354 803.658 -80.7105 820 -107 820 c 0
 -147.726 820 -174.104 783.054 -174.104 753.417 c 0
 -174.104 733.57 -162.274 717 -135 717 c 0
EndSplineSet
EndChar
StartChar: uni0E47.left
Encoding: 154 63250 122
Width: 0
Flags: W
HStem: 668 85<-318 -317.524> 745 55<-259 -247>
Fore
52 995 m 1x80
 52 995 l 0
 29.124 913.3 -17.1141 859.635 -110.709 859.635 c 0
 -131.674 859.635 -155.014 862.327 -181 868 c 0
 -200.183 871.902 -217.569 874.746 -233.261 874.746 c 0
 -265.832 874.746 -291.104 862.492 -310 822 c 0
 -318.367 805.267 -321.376 787.462 -321.376 773.708 c 0
 -321.376 764.448 -320.012 757.024 -318 753 c 1x80
 -318 753 -297 800 -247 800 c 0
 -197 800 -190 746 -168 734 c 1
 -168 734 -168.889 736.667 -168.889 740.815 c 0
 -168.889 742.889 -168.667 745.333 -168 748 c 0
 -154.673 795.878 -114.059 819.637 -79.5897 819.637 c 0
 -50.3546 819.637 -25.539 802.546 -25.539 768.585 c 0
 -25.539 761.465 -26.63 753.602 -29 745 c 0x40
 -44 693 -89 668 -119 668 c 0x80
 -215 668 -206 745 -255 745 c 0x40
 -294.244 745 -308.472 705.872 -308.472 682.072 c 0
 -308.472 676.155 -307.593 671.186 -306 668 c 1
 -340 668 l 1
 -357.434 687.121 -369.175 717.945 -369.175 754.246 c 0
 -369.175 782.493 -362.067 814.055 -345 846 c 0
 -326.965 882.889 -283.395 930.53 -206.575 930.53 c 0
 -189.685 930.53 -171.187 928.227 -151 923 c 0
 -129.972 917.885 -111.447 914.708 -95.2883 914.708 c 0
 -54.5809 914.708 -28.8851 934.869 -16 995 c 1
 52 995 l 1x80
-63 745 m 0x40
 -61.77 749.569 -61.2038 753.736 -61.2038 757.502 c 0
 -61.2038 775.167 -73.6629 784 -88.5 784 c 0
 -106.5 784 -128 771 -135 745 c 0
 -136.23 740.695 -136.796 736.768 -136.796 733.22 c 0
 -136.796 716.573 -124.337 708.25 -109.5 708.25 c 0
 -91.5 708.25 -70 720.5 -63 745 c 0x40
EndSplineSet
EndChar
StartChar: uni0E48.left
Encoding: 155 63251 123
Width: 0
Flags: W
DStem: 3 1226 75 1226 -58 1006 14 1006
Fore
75 1226 m 1
 14 1006 l 1
 -58 1006 l 1
 3 1226 l 1
 75 1226 l 1
EndSplineSet
EndChar
StartChar: uni0E49.left
Encoding: 156 63252 124
Width: 0
Flags: W
HStem: 1078 33<-61 -50> 1195 34<-29 -17>
Fore
268 1229 m 1
 268 1229 l 0
 201.329 1071.66 65.1167 993.335 -83.735 993.335 c 0
 -102.33 993.335 -121.122 994.557 -140 997 c 1
 -131 1026 l 1
 -104 1034 -70 1049 -45 1081 c 1
 -45 1081 -54 1078 -59 1078 c 0
 -99.4185 1078 -116.936 1102.18 -116.936 1131.19 c 0
 -116.936 1174.67 -77.5815 1229 -17 1229 c 0
 32.7931 1229 41.3781 1196.81 41.3781 1174.6 c 0
 41.3781 1162.92 39 1154 39 1154 c 1
 16 1072 -49 1035 -49 1035 c 1
 -50 1032 l 1
 55 1038 151 1098 196 1229 c 1
 268 1229 l 1
-50 1111 m 0
 -17.4895 1111 3.78473 1141.45 3.78474 1165.68 c 0
 3.78474 1181.7 -5.51049 1195 -27 1195 c 0
 -61.0333 1195 -82.9456 1165.05 -82.9456 1140.92 c 0
 -82.9456 1124.64 -72.9667 1111 -50 1111 c 0
EndSplineSet
EndChar
StartChar: uni0E4A.left
Encoding: 157 63253 125
Width: 0
Flags: W
HStem: 1175 54<-38 -23>
Fore
265 1229 m 1
 265 1229 l 0
 234 1091 139 1012 19 995 c 1
 26 1020 l 1
 65.5445 1042.04 89.5396 1094.76 89.5396 1132.93 c 0
 89.5396 1153.65 82.4761 1170.08 67 1175 c 1
 1 1137 l 1
 -38 1175 l 1
 -74 1175 -112 1132 -118 1094 c 1
 -118 1094 -100 1126 -52 1126 c 0
 -21.9809 1126 -3.78238 1104.44 -3.78239 1078.73 c 0
 -3.78239 1073.61 -4.50478 1068.32 -6 1063 c 0
 -17 1023 -47 994 -88 994 c 0
 -134.07 994 -158.915 1024.66 -158.915 1071.49 c 0
 -158.915 1085.65 -156.643 1101.28 -152 1118 c 0
 -138 1169 -74 1229 -23 1229 c 1
 -23 1229 14 1183 16 1183 c 2
 81 1229 l 1
 126.524 1215.93 141.777 1187.82 141.777 1156.96 c 0
 141.777 1119.34 119.126 1077.62 101 1054 c 1
 167 1092 200 1157 204 1229 c 1
 265 1229 l 1
-38 1058 m 0
 -36.581 1062.82 -35.9317 1067.19 -35.9317 1071.1 c 0
 -35.9317 1087.87 -47.8582 1096.25 -62.25 1096.25 c 0
 -80 1096.25 -101.5 1083.5 -109 1058 c 0
 -110.082 1054.09 -110.582 1050.5 -110.582 1047.24 c 0
 -110.582 1030.91 -98.0451 1022.75 -83.25 1022.75 c 0
 -65.5 1022.75 -44.5 1034.5 -38 1058 c 0
EndSplineSet
EndChar
StartChar: uni0E4B.left
Encoding: 158 63254 126
Width: 0
Flags: W
HStem: 1080 58<-115 -28 46 128>
DStem: -28 1080 29 1080 -52 992 2 992 -14 1140 46 1140 -115 1138 144 1138 10 1229 73 1229 -14 1140 46 1140
Fore
128 1081 m 1
 29 1080 l 1
 2 992 l 1
 -52 992 l 1
 -28 1080 l 1
 -131 1081 l 1
 -115 1138 l 1
 -14 1140 l 1
 10 1229 l 1
 73 1229 l 1
 46 1140 l 1
 144 1138 l 1
 128 1081 l 1
EndSplineSet
MinimumDistance: x6,11 x5,0 
EndChar
StartChar: uni0E4C.left
Encoding: 159 63255 127
Width: 0
Flags: W
HStem: 923 29<-46 -35>
Fore
228 1164 m 1
 228 1164 l 0
 168.403 1066.3 25.76 1063.1 25.76 1060.2 c 0
 25.76 1060.14 25.839 1060.07 26 1060 c 0
 42.5648 1051.27 49.8773 1035.37 49.8773 1017.41 c 0
 49.8773 975.742 10.5081 923 -44 923 c 0
 -82.33 923 -102.037 943.618 -102.037 974.548 c 0
 -102.037 981.544 -101.029 989.068 -99 997 c 0
 -82 1057 -27 1091 44 1103 c 0
 70 1107 158 1140 176 1193 c 1
 228 1164 l 1
-37 952 m 0
 -4.99788 952 16.0665 982.261 16.0665 1006.24 c 0
 16.0665 1021.97 6.99788 1035 -14 1035 c 0
 -46.5105 1035 -67.7847 1004.92 -67.7847 980.972 c 0
 -67.7847 965.145 -58.4895 952 -37 952 c 0
EndSplineSet
EndChar
StartChar: uni0E01
Encoding: 161 3585 129
Width: 574
Flags: W
HStem: 0 21G<91 167 402 476> 392 44<214 232 214 364>
DStem: 181 324 262 341 91 0 167 0 515 407 591 413 402 0 476 0
Fore
476 0 m 1
 402 0 l 1
 515 407 l 2
 519.796 424.23 522.013 439.796 522.013 453.754 c 0
 522.013 519.753 472.452 549.789 411.7 549.79 c 0
 340.644 549.79 254.279 508.699 214 436 c 1
 376 436 l 1
 364 392 l 1
 354 392 319 392 317 392 c 0
 276 392 262 341 262 341 c 5
 167 0 l 1
 91 0 l 1
 181 324 l 2
 194 373 232 392 232 392 c 1
 152 392 l 1
 189.128 526.915 323.605 598.663 435.029 598.663 c 0
 522.986 598.663 596.577 553.955 596.577 460.318 c 0
 596.577 445.737 594.792 429.97 591 413 c 1
 476 0 l 1
EndSplineSet
EndChar
StartChar: uni0E02
Encoding: 162 3586 130
Width: 557
Flags: W
HStem: -8 43<340 358> 319 33<203 215> 438 34<234 246> 547 51<305 328>
DStem: 350 453 425 449 253 106 322 78 550 594 625 594 406 77 489 106
Fore
625 594 m 4
 489 106 l 1
 489 106 l 0
 471 40 417 -8 340 -8 c 0
 283.556 -8 248.471 25.7612 248.471 74.4104 c 0
 248.471 84.3702 249.941 94.9541 253 106 c 2
 350 453 l 2
 353.531 466.114 355.344 478.592 355.344 489.921 c 0
 355.344 523.513 339.399 547 305 547 c 0
 255 547 211 513 194 453 c 1
 215 468 224 472 246 472 c 0
 285.255 471.215 301.858 447.47 301.858 418.911 c 0
 301.858 374.718 262.1 319 205 319 c 0
 158.166 319 142.471 352.418 142.471 392.343 c 0
 142.471 417.205 148.557 444.591 157 468 c 0
 181 539 245 598 328 598 c 0
 398.434 598 431.916 556.038 431.916 497.888 c 0
 431.916 482.559 429.589 466.106 425 449 c 2
 322 78 l 2
 320.971 74.397 320.471 70.7645 320.471 67.2188 c 0
 320.471 50.0984 332.118 35 352 35 c 0
 376 35 401 58 406 77 c 2
 550 594 l 1
 625 594 l 4
213 352 m 0
 246.018 352 267.504 382.995 267.504 407.77 c 0
 267.504 424.263 257.982 438 236 438 c 0
 203.998 438 182.933 406.645 182.933 381.8 c 0
 182.933 365.499 192.002 352 213 352 c 0
EndSplineSet
EndChar
StartChar: uni0E03
Encoding: 163 3587 131
Width: 604
Flags: W
HStem: -8 43<386 402> 280 32<188 201> 399 34<220 232> 574 20G<596 670>
DStem: 254 524 273 593 300 452 318 515 400 461 473 461 299 106 367 78 410 591 390 524 318 515 300 452 596 594 670 594 452 77 534 106
Fore
670 594 m 5
 534 106 l 1
 534 106 l 0
 516 40 462 -8 386 -8 c 0
 328.617 -8 294.75 28.6554 294.75 76.0838 c 0
 294.75 85.6859 296.138 95.7296 299 106 c 1
 400 461 l 1
 403.776 475.263 406.143 488.647 406.143 499.378 c 0
 406.143 514.228 401.61 524 390 524 c 1
 300 452 l 1
 254 524 l 1
 224 524 191 482 180 413 c 1
 180 413 197 433 232 433 c 0
 271.142 433 288.087 409.082 288.087 380.16 c 0
 288.087 335.932 248.462 280 188 280 c 0
 142.051 280 125.523 313.713 125.523 357.385 c 0
 125.523 392.599 136.269 434.289 151 470 c 0
 182 545 232 581 273 593 c 1
 318 515 l 1
 410 591 l 1
 456.729 587.985 480.736 558.272 480.736 511.706 c 0
 480.736 496.489 478.172 479.473 473 461 c 1
 367 78 l 1
 365.83 73.9064 365.231 69.7748 365.231 65.7756 c 0
 365.231 49.2589 375.458 35 398 35 c 0
 425 35 447 58 452 77 c 2
 596 594 l 1
 670 594 l 5
199 312 m 0
 233.255 312 255.592 343.421 255.592 368.498 c 0
 255.592 385.147 245.745 399 223 399 c 0
 188.915 399 167.703 367.891 167.703 342.877 c 0
 167.703 326.061 177.291 312 199 312 c 0
EndSplineSet
EndChar
StartChar: uni0E04
Encoding: 164 3588 132
Width: 561
Flags: W
HStem: 0 21G<96 172 393 465> 273 36<314 329> 407 37<351 365> 553 46<383 404>
DStem: 158 224 236 229 96 0 172 0 504 401 576 401 393 0 465 0
Fore
329 309 m 0
 329 309 l 0
 367.982 309 393.296 344.247 393.296 372.464 c 0
 393.296 391.298 382.018 407 356 407 c 0
 318.034 407 293.143 371.41 293.143 343.125 c 0
 293.143 324.475 303.966 309 329 309 c 0
207 321 m 1
 233 376 284 444 363 444 c 0
 407.58 444 426.969 416.908 426.969 384.291 c 0
 426.969 334.963 382.624 273 314 273 c 0
 278 273 264 301 264 301 c 1
 251 280 240 246 236 229 c 2
 172 0 l 1
 96 0 l 1
 158 224 l 2
 159.304 228.562 159.864 233.149 159.864 237.831 c 0
 159.864 266.448 138.945 298.676 138.945 351.189 c 0
 138.945 369.186 141.402 389.566 148 413 c 0
 177 519 289 599 402 599 c 4
 501.494 599 586.308 567.543 586.308 467.809 c 0
 586.308 448.256 583.048 426.079 576 401 c 2
 465 0 l 1
 393 0 l 1
 504 401 l 2
 510.048 422.991 512.837 442.027 512.837 458.452 c 0
 512.837 531.654 457.423 553 388 553 c 0
 295 553 210 479 192 413 c 0
 187.306 397.111 184.958 382.526 184.958 369.716 c 0
 184.958 347.052 192.306 329.944 207 321 c 1
EndSplineSet
EndChar
StartChar: uni0E05
Encoding: 165 3589 133
Width: 560
Flags: W
HStem: 0 21G<96 172 391 464> 273 36<314 329> 407 37<351 365>
DStem: 160 229 239 240 96 0 172 0 307 538 327 594 376 468 391 524 493 594 480 538 391 524 376 468 502 399 575 399 391 0 464 0
Fore
464 0 m 1
 391 0 l 1
 502 399 l 2
 509.649 427.207 517.299 452.443 517.299 474.817 c 0
 517.299 499.242 508.183 520.255 480 538 c 1
 376 468 l 1
 307 538 l 1
 271 528 212 479 194 413 c 0
 189.546 396.897 187.44 382.673 187.44 370.367 c 0
 187.44 346.754 195.195 330.203 209 321 c 1
 240 390 284 444 363 444 c 0
 407.58 444 426.969 416.908 426.969 384.291 c 0
 426.969 334.963 382.624 273 314 273 c 0
 281 273 268 295 268 295 c 1
 255 287 246 267 239 240 c 2
 172 0 l 1
 96 0 l 1
 160 229 l 2
 161.121 233.382 161.609 237.775 161.609 242.233 c 0
 161.609 271.989 139.89 304.66 139.89 356.613 c 0
 139.89 373.252 142.118 391.868 148 413 c 0
 180 530 282 581 327 594 c 1
 391 524 l 1
 493 594 l 1
 520.008 589.089 585.867 563.414 585.867 470.924 c 0
 585.867 450.405 582.626 426.598 575 399 c 2
 464 0 l 1
329 309 m 0
 367.982 309 393.296 344.247 393.296 372.464 c 0
 393.296 391.298 382.018 407 356 407 c 0
 318.034 407 293.143 371.41 293.143 343.125 c 0
 293.143 324.475 303.966 309 329 309 c 0
EndSplineSet
EndChar
StartChar: uni0E06
Encoding: 166 3590 134
Width: 721
Flags: W
HStem: 0 21G<544 621> 280 32<192 204> 399 34<224 237> 574 20G<712 786>
DStem: 258 524 277 593 305 452 323 515 404 461 480 461 329 198 403 190 415 591 394 524 323 515 305 452 712 594 786 594 568 77 621 0
Fore
293 68 m 0
 314 144 l 0
 312.147 144.163 310.324 144.242 308.531 144.242 c 0
 267.341 144.242 242.166 102.524 242.166 72.812 c 0
 242.166 64.0303 244.365 56.2972 249 51 c 1
 252.223 48.5827 259.18 46.3277 266.665 46.3277 c 0
 277.759 46.3277 290.014 51.2809 293 68 c 0
786 594 m 1
 621 0 l 1
 544 0 l 1
 506 134 391 141 391 141 c 1
 369 57 351 -8 269 -8 c 0
 268.685 -8.00239 268.371 -8.00358 268.058 -8.00358 c 0
 217.917 -8.00358 196.71 22.5891 196.71 60.1967 c 0
 196.71 120.182 250.663 198.014 327.204 198.014 c 0
 327.801 198.014 328.4 198.01 329 198 c 1
 404 461 l 1
 404 461 l 0
 407.877 475.646 410.455 489.365 410.455 500.237 c 0
 410.455 514.604 405.954 524 394 524 c 1
 305 452 l 1
 258 524 l 1
 229 524 196 482 184 413 c 1
 184 413 202 433 235 433 c 0
 275.05 433 292.3 408.943 292.3 379.907 c 0
 292.3 335.719 252.347 280 192 280 c 0
 146.051 280 129.523 313.713 129.523 357.385 c 0
 129.523 392.599 140.269 434.289 155 470 c 0
 186 545 235 581 277 593 c 1
 323 515 l 1
 415 591 l 1
 462.261 587.951 487.441 557.592 487.441 510.111 c 0
 487.441 495.303 484.992 478.83 480 461 c 1
 403 190 l 1
 403 190 523 170 568 77 c 1
 712 594 l 1
 786 594 l 1
202 312 m 0
 236.763 312 259.312 343.254 259.312 368.296 c 0
 259.312 385.036 249.237 399 226 399 c 0
 192.923 399 172.144 367.534 172.144 342.45 c 0
 172.144 325.823 181.272 312 202 312 c 0
EndSplineSet
EndChar
StartChar: uni0E07
Encoding: 167 3591 135
Width: 456
Flags: W
HStem: 0 21G<281 360> 418 37<358 376> 556 38<395 417>
Fore
360 0 m 1
 281 0 l 1
 119 269 l 1
 136 326 l 1
 311 98 l 1
 404 432 l 1
 390 419 373 418 361 418 c 0
 313.289 418 292.294 445.822 292.294 479.341 c 0
 292.294 530.13 340.494 594 417 594 c 0
 487.728 594 502.692 559.426 502.692 529.492 c 0
 502.692 510.332 496.561 493.074 495 488 c 0
 495 487 360 0 360 0 c 1
367 455 m 0
 407.218 455 433.384 491.393 433.384 520.488 c 0
 433.384 539.862 421.782 556 395 556 c 0
 355.289 556 329.335 519.437 329.335 490.309 c 0
 329.335 471.025 340.711 455 367 455 c 0
EndSplineSet
EndChar
StartChar: uni0E08
Encoding: 168 3592 136
Width: 538
Flags: W
HStem: -5 43<321 335> 276 40<247 258> 406 41<283 299> 544 54<378 400>
DStem: 284 286 377 355 235 109 301 81 480 419 556 413 386 80 471 109
Fore
471 109 m 1
 471 109 l 0
 453 43 398 -5 321 -5 c 0
 267.854 -5 231.076 32.7162 231.076 81.1346 c 0
 231.076 90.1125 232.341 99.4584 235 109 c 2
 284 286 l 1
 272 280 260 276 247 276 c 0
 206.245 276 186.777 302.609 186.777 335.819 c 0
 186.777 345.798 188.534 356.372 192 367 c 0
 208 413 249 447 299 447 c 0
 300.712 447.041 302.391 447.062 304.039 447.062 c 0
 363.362 447.062 381.986 420.627 381.986 387.79 c 0
 381.986 377.296 380.083 366.148 377 355 c 2
 301 81 l 2
 300.215 77.7026 299.824 74.3805 299.824 71.1228 c 0
 299.824 53.6335 311.083 38 333 38 c 0
 361 38 381 61 386 80 c 2
 480 419 l 2
 483.693 432.364 485.468 444.893 485.468 456.467 c 0
 485.468 510.717 446.46 544 383 544 c 0
 279 544 201 464 184 439 c 1
 157 453 l 1
 193 508 291 598 398 598 c 0
 502.065 598 564.52 553.662 564.52 470.618 c 0
 564.52 453.114 561.745 433.891 556 413 c 2
 471 109 l 1
258 316 m 0
 292.475 316 315.244 348.924 315.244 374.945 c 0
 315.244 391.946 305.525 406 283 406 c 0
 248.525 406 225.756 373.076 225.756 347.055 c 0
 225.756 330.054 235.475 316 258 316 c 0
EndSplineSet
EndChar
StartChar: uni0E09
Encoding: 169 3593 137
Width: 586
Flags: W
HStem: -8 40<443 456> 364 40<232 255>
DStem: 236 240 322 292 169 0 266 91
Fore
536 181 m 0
 536 181 l 0
 533 169 517 164 517 164 c 1
 517 161 l 1
 542.25 154.082 553.861 131.731 553.861 105.451 c 0
 553.861 55.7517 512.336 -8 443 -8 c 0
 405 -8 385 15 384 54 c 0
 384 94 417 127 417 127 c 1
 307 106 249 14 240 0 c 1
 169 0 l 1
 236 240 l 1
 220.633 235.288 207.114 233.167 195.363 233.167 c 0
 152.924 233.167 133.554 260.822 133.554 293.897 c 0
 133.554 341.062 172.942 399.252 241 404 c 0
 245.942 404.333 250.643 404.497 255.112 404.497 c 0
 310.056 404.497 329.893 379.772 329.893 341.456 c 0
 329.893 326.761 326.975 310.066 322 292 c 2
 266 91 l 1
 273 89 l 1
 273 89 332 166 460 172 c 1
 527 415 l 2
 530.289 426.746 531.885 437.978 531.885 448.567 c 0
 531.885 505.59 485.591 544 408 544 c 0
 307 544 217 464 198 439 c 1
 172 453 l 1
 246.705 553.204 351.827 597.576 440.101 597.576 c 0
 533.308 597.576 607.731 548.106 607.731 462.654 c 0
 607.731 448.121 605.579 432.548 601 416 c 2
 601 416 537 183 536 181 c 0
206 272 m 0
 206 272 l 0
 240.693 272 263.902 306.082 263.902 332.758 c 0
 263.902 349.91 254.307 364 232 364 c 0
 196.797 364 173.383 330.109 173.383 303.467 c 0
 173.383 286.213 183.203 272 206 272 c 0
454 32 m 0
 490 32 513.4 64.04 513.4 89.672 c 0
 513.4 106.76 503 121 479 121 c 0
 444.525 121 421.756 88.4422 421.756 62.7103 c 0
 421.756 45.8982 431.475 32 454 32 c 0
EndSplineSet
EndChar
StartChar: uni0E0A
Encoding: 170 3594 138
Width: 556
Flags: W
HStem: 0 49<174 352> 319 33<203 215> 438 34<234 248> 547 49<297 324>
DStem: 348 453 409 398 236 49 313 49
Fore
677 591 m 1
 677 591 l 0
 605 447 498 421 498 421 c 1
 529.419 411.2 543.14 371.904 543.14 320.98 c 0
 543.14 195.685 460.077 -0.00768534 353.16 -0.00768539 c 0
 352.774 -0.00768539 352.387 -0.00512779 352 0 c 2
 161 0 l 1
 175 49 l 1
 236 49 l 1
 348 453 l 2
 351.663 466.805 353.896 480.293 353.896 492.546 c 0
 353.896 523.784 339.378 547 297 547 c 0
 243 547 199 493 193 450 c 1
 209 467 227 472 248 472 c 0
 285.298 470.446 301.161 447.004 301.161 418.917 c 0
 301.161 374.712 261.867 319 205 319 c 0
 158.875 319 140.103 351.131 140.103 393.647 c 0
 140.103 415.654 145.132 440.443 154 465 c 0
 180 539 242 596 324 596 c 4
 413.221 596 429.802 538.362 429.802 495.515 c 0
 429.802 470.169 424 450 424 450 c 1
 426.406 449.86 428.796 449.791 431.17 449.791 c 0
 513.656 449.791 576.532 532.679 595 591 c 1
 677 591 l 1
213 352 m 0
 213 352 l 0
 245.51 352 266.785 383.172 266.785 407.981 c 0
 266.785 424.38 257.49 438 236 438 c 0
 201.967 438 180.054 407.341 180.054 382.635 c 0
 180.054 365.962 190.033 352 213 352 c 0
457 387 m 1
 445.577 394.908 429.522 398.184 414.94 398.184 c 0
 412.926 398.184 410.941 398.121 409 398 c 1
 313 49 l 1
 353 49 l 2
 415.563 49 476.381 215.487 476.381 317.507 c 0
 476.381 349.202 470.511 374.674 457 387 c 1
EndSplineSet
EndChar
StartChar: uni0E0B
Encoding: 171 3595 139
Width: 618
Flags: W
HStem: 0 49<226 402> 280 32<192 204> 399 34<224 237>
DStem: 258 524 277 593 305 452 323 515 405 461 464 399 287 49 363 49 415 591 394 524 323 515 305 452
Fore
509 386 m 0
 509 386 l 0
 493 395 483 399 464 399 c 1
 363 49 l 1
 402 49 l 2
 463.1 50.5468 527.19 219.58 527.19 320.622 c 0
 527.19 350.224 521.689 373.991 509 386 c 0
405 461 m 1
 405 461 l 0
 408.718 475.047 411.071 488.241 411.071 498.888 c 0
 411.071 514.012 406.324 524 394 524 c 1
 305 452 l 1
 258 524 l 1
 229 524 196 482 184 413 c 1
 184 413 202 433 235 433 c 0
 275.05 433 292.3 408.943 292.3 379.907 c 0
 292.3 335.719 252.347 280 192 280 c 0
 146.051 280 129.523 313.713 129.523 357.385 c 0
 129.523 392.599 140.269 434.289 155 470 c 0
 186 545 235 581 277 593 c 1
 323 515 l 1
 415 591 l 1
 462.517 587.934 488.301 557.262 488.301 509.338 c 0
 488.301 494.73 485.906 478.52 481 461 c 2
 478 450 l 1
 480.518 449.86 483.011 449.791 485.478 449.791 c 0
 571.215 449.791 626.532 532.679 645 591 c 1
 727 591 l 1
 662 456 548 422 548 422 c 1
 577.821 409.67 590.951 369.551 590.951 318.64 c 0
 590.951 192.461 510.298 -0.00782776 403.185 -0.0078307 c 0
 402.79 -0.0078307 402.395 -0.00521969 402 0 c 2
 213 0 l 1
 227 49 l 1
 287 49 l 1
 405 461 l 1
202 312 m 0
 236.763 312 259.312 343.254 259.312 368.296 c 0
 259.312 385.036 249.237 399 226 399 c 0
 192.923 399 172.144 367.534 172.144 342.45 c 0
 172.144 325.823 181.272 312 202 312 c 0
EndSplineSet
EndChar
StartChar: uni0E0C
Encoding: 172 3596 140
Width: 777
Flags: W
HStem: -8 39<187 199> 392 44<214 364> 574 20G<769 842>
DStem: 515 407 591 413 448 166 521 163 769 594 842 594 630 94 677 0
Fore
842 594 m 1
 677 0 l 0
 602 0 l 0
 602.552 5.57534 602.815 10.8934 602.815 15.9658 c 0
 602.815 111.881 509 120 509 120 c 1
 490 52 468 -8 397 -8 c 0
 353.398 -8 334.958 18.5016 334.958 50.8234 c 0
 334.958 101.337 379.997 166.066 444.419 166.066 c 0
 445.606 166.066 446.8 166.044 448 166 c 1
 515 407 l 1
 519.935 424.676 522.213 440.589 522.213 454.807 c 0
 522.213 520.631 473.386 550.138 413.288 550.138 c 0
 341.686 550.138 254.086 508.254 214 436 c 1
 376 436 l 1
 364 392 l 1
 354 392 319 392 317 392 c 0
 275 392 262 341 262 341 c 1
 261 338 210 154 210 154 c 1
 221 157 230.861 158.375 239.626 158.375 c 0
 277.862 158.375 295.226 132.205 295.226 100.624 c 0
 295.226 52.5751 255.033 -8 187 -8 c 0
 131.12 -8 115.793 32.5522 115.793 70.0863 c 0
 115.793 84.2729 117.983 98.0283 121 109 c 2
 181 324 l 2
 195 375 232 392 232 392 c 1
 152 392 l 1
 189.651 526.915 324.104 598.663 435.386 598.663 c 0
 523.202 598.663 596.589 553.984 596.588 460.409 c 0
 596.588 445.803 594.8 430.005 591 413 c 1
 521 163 l 1
 521 163 609 149 630 94 c 1
 769 594 l 1
 842 594 l 1
419 61 m 0
 437 126 l 0
 435.218 126.198 433.449 126.294 431.698 126.294 c 0
 398.136 126.294 370.856 91.0048 370.856 61.9852 c 0
 370.856 54.2912 372.773 47.038 377 41 c 1
 381.037 38.1742 387.518 35.5113 394.273 35.5113 c 0
 404.251 35.5113 414.826 41.3217 419 61 c 0
197 31 m 0
 233 31 256.4 63.4 256.4 89.32 c 0
 256.4 106.6 246 121 222 121 c 0
 187.525 121 164.756 88.0763 164.756 62.0554 c 0
 164.756 45.0544 174.475 31 197 31 c 0
EndSplineSet
EndChar
StartChar: uni0E0D
Encoding: 173 3597 141
Width: 762
Flags: W
HStem: -230 32<437 467> -8 37<514 532> 392 44<214 232 214 364> 574 20G<753 827>
DStem: 490 407 565 413 408 112 478 101 753 594 827 594 616 100 691 104
Fore
827 594 m 1
 691 104 l 1
 691 104 l 0
 677 54 600 -8 515 -8 c 0
 445.439 -8 403.943 32.2992 403.943 83.5952 c 0
 403.943 92.7677 405.27 102.292 408 112 c 2
 490 407 l 1
 494.875 425.213 497.119 441.479 497.119 455.897 c 0
 497.119 519.501 453.453 547.128 399.395 547.128 c 0
 332.487 547.128 249.659 504.806 214 436 c 1
 376 436 l 1
 364 392 l 1
 354 392 319 392 317 392 c 0
 275 392 262 341 262 341 c 1
 261 338 210 154 210 154 c 1
 226.208 159.403 240.268 161.816 252.296 161.816 c 0
 291.544 161.816 309.152 136.114 309.152 104.7 c 0
 309.152 56.6494 267.957 -4.76397 200 -8 c 0
 197.772 -8.09582 195.6 -8.14286 193.481 -8.14286 c 0
 131.397 -8.14286 115.57 32.2466 115.57 69.4545 c 0
 115.57 83.987 117.984 98.0342 121 109 c 2
 181 324 l 2
 195 375 232 392 232 392 c 1
 152 392 l 1
 192.755 526.804 318.96 598.272 422.206 598.272 c 0
 503.442 598.272 570.465 554.026 570.465 461.575 c 0
 570.465 446.646 568.718 430.46 565 413 c 1
 478 101 l 2
 475.931 93.4781 474.924 86.239 474.924 79.4425 c 0
 474.924 50.0965 493.71 29 527 29 c 0
 569 29 605 60 616 100 c 2
 753 594 l 1
 827 594 l 1
632 -108 m 1
 632 -108 l 0
 619 -155 559 -230 444 -230 c 0
 363.22 -230 345.905 -183.182 345.905 -146.576 c 0
 345.905 -132.428 348.491 -119.805 351 -112 c 0
 360 -84 389 -38 449 -38 c 0
 480.238 -38 495.619 -56.2969 495.619 -83.3647 c 0
 495.619 -90.9566 494.409 -99.2384 492 -108 c 0
 483 -140 447 -169 413 -169 c 0
 396 -169 389 -163 380 -157 c 1
 387 -180 409 -198 453 -198 c 0
 505 -198 553 -152 566 -106 c 2
 581 -52 l 1
 648 -52 l 1
 632 -108 l 1
211 32 m 0
 211 32 l 0
 247 32 270.4 64.04 270.4 89.672 c 0
 270.4 106.76 260 121 236 121 c 0
 201.525 121 178.756 88.4422 178.756 62.7103 c 0
 178.756 45.8982 188.475 32 211 32 c 0
465 -103 m 0
 466.23 -98.695 466.796 -94.7682 466.796 -91.2196 c 0
 466.796 -74.5732 454.337 -66.25 439.5 -66.25 c 0
 421.5 -66.25 400 -78.5 393 -103 c 0
 391.77 -107.481 391.204 -111.568 391.204 -115.261 c 0
 391.204 -132.587 403.663 -141.25 418.5 -141.25 c 0
 436.5 -141.25 458 -128.5 465 -103 c 0
EndSplineSet
Substitution: 0 65534 'nds0' uni0E0D.descless
Substitution: 0 65534 'ndsc' uni0E0D.descless
EndChar
StartChar: uni0E0E
Encoding: 174 3598 142
Width: 583
Flags: W
HStem: -212 43<114 130> -8 40<93 106> 392 44<222 241 222 374>
DStem: 193 332 270 341 146 163 197 80 525 407 599 407 368 -160 419 -241
AnchorPoint: "BelowBase" 418.186 -245.76 basechar 0
Fore
419 -241 m 5
 345 -241 l 0
 345.063 -240.249 345.094 -239.446 345.094 -238.596 c 0
 345.094 -212.286 315.184 -140.061 259 -111 c 1
 259 -111 200 -212 116 -212 c 0
 70.0834 -212 38.1062 -191.788 38.1062 -151.945 c 0
 38.1062 -144.064 39.3576 -135.414 42 -126 c 0
 55.3236 -77.887 110.835 -39.6361 175.28 -39.6361 c 0
 197.899 -39.6361 221.618 -44.3482 245 -55 c 1
 245 -55 275 -3 314 12 c 1
 344 -5 l 1
 297 -34 281 -69 281 -69 c 1
 350 -97 368 -160 368 -160 c 1
 525 407 l 2
 529.765 424.119 531.968 439.604 531.968 453.505 c 0
 531.968 519.868 481.761 550.171 420.366 550.171 c 0
 348.878 550.171 262.221 509.085 222 436 c 1
 386 436 l 1
 374 392 l 1
 328 392 l 2
 284 392 270 341 270 341 c 1
 197 80 l 2
 182 25 138 -8 93 -8 c 0
 51.244 -8 33.2557 18.4584 33.2557 50.5693 c 0
 33.2557 100.127 76.1023 163.149 140.55 163.149 c 0
 142.35 163.149 144.167 163.1 146 163 c 1
 193 332 l 2
 206 378 241 392 241 392 c 1
 161 392 l 1
 202.185 530.301 333.339 599.057 442.859 599.057 c 0
 532.179 599.057 607.108 553.325 607.108 462.288 c 0
 607.108 445.415 604.534 426.984 599 407 c 2
 419 -241 l 5
104 32 m 0
 104 32 l 0
 138.984 32 161.962 64.3795 161.962 90.0778 c 0
 161.962 106.985 152.016 121 129 121 c 0
 94.5247 121 71.7557 88.4422 71.7557 62.7103 c 0
 71.7557 45.8982 81.4753 32 104 32 c 0
225 -95 m 1
 202 -86 177 -83 157 -83 c 0
 127 -83 94 -94 85 -126 c 0
 83.7035 -130.797 83.1129 -135.073 83.1129 -138.883 c 0
 83.1129 -164.455 109.723 -169 128 -169 c 0
 174 -169 209 -121 225 -95 c 1
EndSplineSet
EndChar
StartChar: uni0E0F
Encoding: 175 3599 143
Width: 583
Flags: W
HStem: -111 43<43 58> -8 40<93 106> 392 44<222 374>
DStem: 193 332 270 341 146 163 197 80 525 407 599 407 369 -155 419 -241
AnchorPoint: "BelowBase" 418.186 -245.76 basechar 0
Fore
104 32 m 0
 104 32 l 0
 138.984 32 161.962 64.3795 161.962 90.0778 c 0
 161.962 106.985 152.016 121 129 121 c 0
 94.5247 121 71.7557 88.4422 71.7557 62.7103 c 0
 71.7557 45.8982 81.4753 32 104 32 c 0
95 -129 m 0
 95 -129 l 0
 81 -117 62 -111 46 -111 c 0
 -1 -111 -16 -135 -22 -154 c 0
 -23.0475 -158.19 -23.7 -162.687 -23.7 -167.152 c 0
 -23.7 -182.896 -15.5846 -198.23 11.9399 -198.23 c 0
 13.8638 -198.23 15.8826 -198.155 18 -198 c 0
 50 -195 70 -164 95 -129 c 0
123 -89 m 1
 144 -63 169 -40 206 -26 c 1
 225 -54 l 1
 195 -66 170 -89 151 -115 c 1
 170 -137 184 -164 185 -187 c 1
 217.666 -138.86 262.156 -114.696 300.589 -114.696 c 0
 329.218 -114.696 354.485 -128.105 369 -155 c 1
 525 407 l 2
 529.765 424.119 531.968 439.604 531.968 453.505 c 0
 531.968 519.868 481.761 550.171 420.366 550.171 c 0
 348.878 550.171 262.221 509.085 222 436 c 1
 386 436 l 1
 374 392 l 1
 328 392 l 2
 284 392 270 341 270 341 c 1
 197 80 l 2
 182 25 138 -8 93 -8 c 0
 50.9529 -8 32.7029 18.8285 32.7029 51.2415 c 0
 32.7029 100.695 75.1869 163.149 140.453 163.149 c 0
 142.284 163.149 144.133 163.1 146 163 c 1
 193 332 l 2
 207 381 243 392 243 392 c 1
 161 392 l 1
 202.185 530.301 333.339 599.057 442.859 599.057 c 0
 532.179 599.057 607.108 553.325 607.108 462.288 c 0
 607.108 445.415 604.534 426.984 599 407 c 2
 419 -241 l 5
 349 -241 l 1
 345.993 -188.874 320.125 -162.875 288.018 -162.875 c 0
 256.065 -162.875 217.932 -188.624 190 -240 c 1
 147 -240 l 1
 147.73 -235.62 148.076 -231.24 148.076 -226.882 c 0
 148.076 -201.39 136.226 -176.642 120 -157 c 1
 90 -197 61 -233 7 -240 c 0
 3.09188 -240.375 -0.627073 -240.555 -4.16454 -240.555 c 0
 -52.7342 -240.555 -67.0903 -206.649 -67.0903 -177.758 c 0
 -67.0903 -169.448 -65.9027 -161.554 -64 -155 c 0
 -47 -95 8 -68 58 -68 c 0
 82 -68 104 -75 123 -89 c 1
EndSplineSet
EndChar
StartChar: uni0E10
Encoding: 176 3600 144
Width: 484
Flags: W
HStem: -276 53<143 262> -233 35<11 23> -186 29<236 259> -83 37<266 276> -8 43<276 294> 190 39<185 200> 319 39<217 231>
DStem: 149 439 208 472 390 370 452 401 225 198 316 270 199 106 263 78 404 321 480 332 336 77 417 106
Fore
589 571 m 0x3e
 589 571 l 0
 551.249 502.924 499.71 488.086 462.115 488.086 c 0
 438.962 488.086 421.098 493.713 415 496 c 0
 362.593 515.49 325.005 525.601 295.656 525.601 c 0
 257.243 525.601 232.943 508.281 208 472 c 1
 452 401 l 1
 462.378 394.614 484.864 392.688 484.864 361.646 c 0
 484.864 353.803 483.429 344.102 480 332 c 2
 417 106 l 2
 399 41 351 -8 276 -8 c 0
 225.143 -8 194.472 27.6605 194.472 74.1455 c 0
 194.472 84.3311 195.945 95.0363 199 106 c 2
 225 198 l 1
 211 192 200 190 185 190 c 0
 144.964 190 124.49 214.896 124.49 248.259 c 0
 124.49 258.23 126.319 268.956 130 280 c 1
 145 324 184 358 231 358 c 0
 231.944 358.012 232.879 358.018 233.805 358.018 c 0
 294.849 358.018 319.587 331.564 319.587 295.482 c 0
 319.587 287.407 318.348 278.85 316 270 c 2
 263 78 l 2
 261.661 73.5378 260.97 68.9262 260.97 64.4541 c 0
 260.97 48.8818 269.355 35 288 35 c 0
 313 35 331 58 336 77 c 2
 404 321 l 2
 407.146 332.185 408.826 340.805 408.826 347.542 c 0
 408.826 360.079 403.009 366.097 390 370 c 2
 149 439 l 1
 170.64 477.362 234.854 594.098 334.978 594.098 c 0
 336.642 594.098 338.316 594.065 340 594 c 0
 386.085 594 454.287 560.321 513.244 560.321 c 0
 537.443 560.321 560.085 565.995 579 582 c 0
 582.86 585.158 586.35 586.715 588.866 586.715 c 0
 591.353 586.715 592.888 585.194 592.888 582.194 c 0
 592.888 579.578 591.721 575.838 589 571 c 0x3e
328 -218 m 1
 328 -218 l 0
 321 -243 301 -276 262 -276 c 2
 89 -276 l 1xbe
 103 -226 l 2
 107 -212 109.5 -199.25 109.5 -186.75 c 0
 109.5 -174.25 107 -162 101 -149 c 1
 99 -161 80 -233 11 -233 c 0x7e
 -19 -233 -35 -214 -35 -178 c 0
 -32.3742 -139.488 5.49156 -94.082 58.4815 -94.082 c 0
 66.0332 -94.082 73.8921 -95.0042 82 -97 c 1
 82 -97 87 -72 101 -57 c 1
 134 -61 l 1
 115.385 -77.9231 113.953 -102.006 113.953 -109.015 c 0
 113.953 -110.29 114 -111 114 -111 c 1
 142.509 -123.218 149.507 -152.023 149.507 -177.361 c 0
 149.507 -201.793 143 -223 143 -223 c 1
 222 -223 l 2xbe
 233 -223 251 -215 255 -201 c 2
 259 -186 l 1
 256.333 -186 248.136 -192.321 232.3 -192.321 c 0
 230.321 -192.321 228.222 -192.222 226 -192 c 0
 196.006 -189.038 183.015 -168.113 183.015 -142.986 c 0
 183.015 -100.498 220.159 -45.9946 275.056 -45.9946 c 0
 275.37 -45.9946 275.685 -45.9964 276 -46 c 0
 326.686 -46 353.697 -68.1471 353.697 -111.107 c 0
 353.697 -117.306 353.135 -123.938 352 -131 c 1
 328 -218 l 1
196 229 m 0
 196 229 l 0
 230.255 229 252.592 261.505 252.592 287.446 c 0
 252.592 304.67 242.745 319 220 319 c 0
 186.253 319 164.127 286.315 164.127 260.34 c 0
 164.127 243.211 173.747 229 196 229 c 0
245 -157 m 0
 245 -157 l 0
 272.492 -157 291.026 -129.381 291.026 -107.889 c 0
 291.026 -94.2021 283.508 -83 266 -83 c 0
 236.471 -83 217.111 -109.874 217.111 -131.232 c 0
 217.111 -145.315 225.529 -157 245 -157 c 0
72 -132 m 1
 72 -132 53 -127 38 -127 c 0
 12.4042 -129.976 -3.97913 -154.566 -3.97913 -173.984 c 0
 -3.97913 -187.188 3.59577 -198 21 -198 c 0x7e
 43 -198 68 -170 72 -132 c 1
EndSplineSet
KernsSLIF: 212 46 1 0 215 46 1 0 214 46 1 0 213 46 1 0
Substitution: 0 65534 'nds0' uni0E10.descless
Substitution: 0 65534 'ndsc' uni0E10.descless
EndChar
StartChar: uni0E11
Encoding: 177 3601 145
Width: 743
Flags: W
HStem: 0 21G<274 349 568 643> 280 32<192 204> 399 34<224 237>
DStem: 258 524 277 593 305 452 323 515 404 461 480 461 274 0 446 347 404 461 409 216 274 0 349 0 415 591 394 524 323 515 305 452 567 498 596 482 446 347 462 312 698 468 772 464 568 0 643 0
Fore
404 461 m 1
 404 461 l 0
 407.877 475.646 410.455 489.365 410.455 500.237 c 0
 410.455 514.604 405.954 524 394 524 c 1
 305 452 l 1
 258 524 l 1
 229 524 196 482 184 413 c 1
 184 413 202 433 235 433 c 0
 275.05 433 292.3 408.943 292.3 379.907 c 0
 292.3 335.719 252.347 280 192 280 c 0
 146.051 280 129.523 313.713 129.523 357.385 c 0
 129.523 392.599 140.269 434.289 155 470 c 0
 186 545 235 581 277 593 c 1
 323 515 l 1
 415 591 l 1
 462.261 587.951 487.441 557.592 487.441 510.111 c 0
 487.441 495.303 484.992 478.83 480 461 c 1
 446 347 l 1
 567 498 l 2
 614.941 557.465 673.082 587.394 716.836 587.394 c 0
 754.97 587.394 782.176 564.66 782.176 518.932 c 0
 782.176 503.308 779 485.001 772 464 c 1
 643 0 l 1
 568 0 l 1
 698 468 l 1
 702.143 479.714 704 489.633 704 497.848 c 0
 704 519.189 691.47 529.042 673.92 529.042 c 0
 650.932 529.042 619.331 512.136 596 482 c 2
 462 312 l 2
 435 275 411 223 409 216 c 2
 349 0 l 5
 274 0 l 1
 404 461 l 1
202 312 m 0
 236.763 312 259.312 343.254 259.312 368.296 c 0
 259.312 385.036 249.237 399 226 399 c 0
 192.923 399 172.144 367.534 172.144 342.45 c 0
 172.144 325.823 181.272 312 202 312 c 0
EndSplineSet
EndChar
StartChar: uni0E12
Encoding: 178 3602 146
Width: 763
Flags: W
HStem: 0 21G<96 172 586 662> 257 36<307 317> 395 40<346 357> 574 20G<752 827>
DStem: 122 94 196 86 96 0 172 0 308 538 329 594 378 468 393 524 495 594 482 538 393 524 378 468 498 401 572 396 442 197 516 194 752 594 827 594 611 88 662 0
Fore
317 293 m 0
 317 293 l 0
 356.421 293 382.601 330.517 382.601 360.045 c 0
 382.601 379.204 371.579 395 346 395 c 0
 308.619 395 283.255 356.696 283.255 327.034 c 0
 283.255 308.292 293.381 293 317 293 c 0
404 63 m 0
 429 151 l 0
 428.752 151.006 428.504 151.009 428.255 151.009 c 0
 396.515 151.009 365.64 100.51 365.64 68.536 c 0
 365.64 60.48 367.6 53.6 372 49 c 0
 374.598 46.4019 380.196 43.8038 386.034 43.8038 c 0
 393.678 43.8038 401.732 48.2583 404 63 c 0
827 594 m 1
 662 0 l 1
 586 0 l 1
 586.686 4.41872 587.011 8.9245 587.011 13.4873 c 0
 587.011 68.8154 539.105 132.524 504 151 c 1
 497 127 486 86 484 81 c 0
 471 32 446 -8 381 -8 c 0
 335.325 -8 316.011 20.2126 316.011 55.7151 c 0
 316.011 114.265 368.542 192.642 442 197 c 1
 498 401 l 2
 507.873 435.77 513.324 461.696 513.324 481.782 c 0
 513.324 508.489 503.688 524.873 482 538 c 1
 378 468 l 1
 308 538 l 1
 264 519 212 475 186 384 c 0
 183.503 373.595 182.218 357.474 182.218 340.106 c 0
 182.218 315.744 184.746 288.93 190 272 c 1
 201.308 228.923 203.917 204.112 203.917 188.981 c 0
 203.917 176.012 202 170.154 202 166 c 1
 225.347 197.752 312.362 249.564 312.362 256.276 c 0
 312.362 256.751 311.926 257 311 257 c 0
 264.577 257 244.775 282.383 244.775 316.587 c 0
 244.775 325.854 246.229 335.768 249 346 c 0
 252 358 281 433 357 435 c 0
 401.607 435 430.093 410.819 430.093 371.255 c 0
 430.093 346.959 419.35 316.861 395 283 c 0
 336 206 227 169 196 86 c 1
 172 0 l 1
 96 0 l 1
 122 94 l 2
 134.158 137.768 137.387 175.744 137.387 210.276 c 0
 137.387 249.394 133.243 284.092 133.243 317.781 c 0
 133.243 339.967 135.04 361.715 141 384 c 0
 182 531 277 578 329 594 c 1
 393 524 l 1
 495 594 l 1
 532.061 584.538 584.666 560.775 584.666 477.115 c 0
 584.666 454.678 580.882 427.933 572 396 c 2
 516 194 l 1
 516 194 601 158 611 88 c 1
 752 594 l 1
 827 594 l 1
EndSplineSet
EndChar
StartChar: uni0E13
Encoding: 179 3603 147
Width: 762
Flags: W
HStem: -8 40<624 637> 392 44<214 234 214 364> 574 20G<752 827>
DStem: 488 410 565 416 374 0 478 101 752 594 827 594 634 169 712 181
Fore
827 594 m 1
 712 181 l 0
 712 181 l 0
 709 169 694 160 694 160 c 1
 719.305 153.067 730.792 130.753 730.792 104.554 c 0
 730.792 55.1764 689.988 -8 624 -8 c 0
 583 -8 561 14 561 52 c 1
 561 94 600 132 600 132 c 1
 515 118 461 18 451 0 c 1
 374 0 l 1
 488 410 l 2
 492.971 428.135 495.256 444.288 495.256 458.564 c 0
 495.256 520.543 452.194 547.159 398.947 547.159 c 0
 331.229 547.159 247.038 504.109 214 436 c 1
 376 436 l 1
 364 392 l 1
 354 392 319 392 317 392 c 0
 275 392 260 335 260 335 c 1
 259 332 210 155 210 155 c 1
 225.592 160.023 239.191 162.275 250.899 162.275 c 0
 290.813 162.275 308.75 136.096 308.75 104.259 c 0
 308.75 56.193 267.865 -4.76836 200 -8 c 0
 197.772 -8.09582 195.6 -8.14286 193.481 -8.14286 c 0
 131.397 -8.14286 115.57 32.2466 115.57 69.4545 c 0
 115.57 83.987 117.984 98.0342 121 109 c 2
 181 326 l 2
 195 376 234 392 234 392 c 1
 152 392 l 1
 192.127 525.58 320.901 598.109 425.138 598.109 c 0
 505.095 598.109 570.615 555.434 570.615 464.902 c 0
 570.615 449.92 568.82 433.627 565 416 c 1
 478 101 l 1
 478 101 533.955 169.59 620.144 169.59 c 0
 624.68 169.59 629.3 169.4 634 169 c 1
 752 594 l 1
 827 594 l 1
635 32 m 0
 635 32 l 0
 669.475 32 692.244 64.5578 692.244 90.2897 c 0
 692.244 107.102 682.525 121 660 121 c 0
 624 121 600.6 88.96 600.6 63.328 c 0
 600.6 46.24 611 32 635 32 c 0
211 32 m 0
 247 32 270.4 64.04 270.4 89.672 c 0
 270.4 106.76 260 121 236 121 c 0
 201.525 121 178.756 88.4422 178.756 62.7103 c 0
 178.756 45.8982 188.475 32 211 32 c 0
EndSplineSet
KernsSLIF: 212 -46 1 0 215 -46 1 0 214 -46 1 0 213 -46 1 0
EndChar
StartChar: uni0E14
Encoding: 180 3604 148
Width: 580
Flags: W
HStem: 0 21G<109 181 410 484> 273 36<333 343> 551 47<404 430>
DStem: 135 94 205 86 109 0 181 0 520 396 594 396 410 0 484 0
Fore
484 0 m 1
 410 0 l 1
 520 396 l 2
 525.067 414.426 527.906 432.587 527.906 449.627 c 0
 527.906 506.57 496.203 551 410 551 c 0
 353 551 236 516 199 384 c 0
 194.967 369.211 193.368 354.938 193.368 340.976 c 0
 193.368 287.583 216.748 238.739 216.748 182.95 c 0
 216.748 177.373 216.514 171.727 216 166 c 1
 239.59 200.913 337.082 265.209 337.082 272.35 c 0
 337.082 272.777 336.733 273 336 273 c 0
 335.434 272.993 334.873 272.99 334.316 272.99 c 0
 279.422 272.99 268.309 306.726 268.309 333.366 c 0
 268.309 345.137 270.478 355.522 272 361 c 0
 277 378 304 447 382 449 c 0
 382.509 449.007 383.015 449.011 383.52 449.011 c 0
 424.573 449.011 451.753 424.311 451.753 385.059 c 0
 451.753 360.309 440.948 329.775 416 296 c 0
 360 220 239 169 205 86 c 1
 181 0 l 1
 109 0 l 1
 135 94 l 2
 147.465 138.872 150.671 177.657 150.671 212.883 c 0
 150.671 250.203 147.072 283.528 147.072 315.867 c 0
 147.072 338.717 148.869 361.074 155 384 c 0
 197 533 336 598 423 598 c 4
 456.212 598 604.003 594.945 604.003 461.988 c 0
 604.003 442.819 600.93 420.95 594 396 c 2
 484 0 l 1
343 309 m 0
 380.966 309 405.857 345.316 405.857 374.178 c 0
 405.857 393.21 395.034 409 370 409 c 0
 330.511 409 304.983 373.202 304.983 344.442 c 0
 304.983 325.135 316.489 309 343 309 c 0
EndSplineSet
EndChar
StartChar: uni0E15
Encoding: 181 3605 149
Width: 580
Flags: W
HStem: 0 21G<109 181 410 484> 258 35<319 330> 395 40<359 370>
DStem: 135 94 202 74 109 0 181 0 326 538 346 594 395 468 410 524 512 594 499 538 410 524 395 468 525 416 594 396 410 0 484 0
Fore
484 0 m 1
 410 0 l 1
 525 416 l 2
 532.586 442.386 536.038 462.137 536.038 477.583 c 0
 536.038 508.969 521.786 522.586 499 538 c 1
 395 468 l 1
 326 538 l 1
 290 528 225 475 199 384 c 0
 196.381 373.088 194.905 355.888 194.905 337.557 c 0
 194.905 313.892 197.365 288.342 203 272 c 0
 222.496 201.107 219.218 172.619 221.698 172.619 c 0
 222.017 172.619 222.431 173.089 223 174 c 0
 243.702 201.288 321.957 251.598 321.957 257.442 c 0
 321.957 257.808 321.649 258 321 258 c 0
 265.558 258 253.754 294.188 253.754 321.918 c 0
 253.754 332.2 255.377 341.319 257 347 c 0
 264 370 295 433 370 435 c 0
 412.543 435 440.26 411.051 440.26 371.824 c 0
 440.26 347.429 429.54 317.126 405 283 c 0
 349 206 236 157 202 74 c 1
 181 0 l 1
 109 0 l 1
 135 94 l 2
 147.465 138.872 150.671 177.657 150.671 212.883 c 0
 150.671 250.203 147.072 283.528 147.072 315.867 c 0
 147.072 338.717 148.869 361.074 155 384 c 0
 195 527 290 574 346 594 c 1
 410 524 l 1
 512 594 l 1
 549.676 585.984 605.345 557.405 605.345 471.174 c 0
 605.345 449.835 601.935 424.964 594 396 c 2
 484 0 l 1
330 293 m 0
 369.421 293 395.601 330.517 395.601 360.045 c 0
 395.601 379.204 384.579 395 359 395 c 0
 320.088 395 294.115 357.295 294.115 327.734 c 0
 294.115 308.674 304.912 293 330 293 c 0
EndSplineSet
EndChar
StartChar: uni0E16
Encoding: 182 3606 150
Width: 574
Flags: W
HStem: 0 21G<402 475> 392 44<212 230 212 363>
DStem: 516 410 590 416 402 0 475 0
Fore
475 0 m 1
 402 0 l 1
 516 410 l 1
 520.21 426.264 522.165 440.994 522.165 454.253 c 0
 522.165 521.057 472.548 550.501 411.893 550.501 c 0
 338.772 550.501 249.61 507.71 212 436 c 1
 375 436 l 1
 363 392 l 1
 352 392 317 392 316 392 c 0
 273 392 259 335 259 335 c 1
 258 332 209 155 209 155 c 1
 224.801 160.023 238.555 162.275 250.374 162.275 c 0
 290.474 162.275 308.309 136.347 308.309 104.718 c 0
 308.309 56.5819 267 -4.75806 200 -8 c 0
 197.748 -8.09582 195.552 -8.14286 193.411 -8.14286 c 0
 130.554 -8.14286 114.591 32.3804 114.591 69.6392 c 0
 114.591 84.106 116.997 98.0807 120 109 c 2
 180 326 l 2
 194 375 230 392 230 392 c 1
 150 392 l 1
 188.257 527.21 322.642 598.702 433.831 598.702 c 0
 521.704 598.702 595.09 554.05 595.09 460.91 c 0
 595.09 447.022 593.458 432.056 590 416 c 1
 475 0 l 1
211 32 m 0
 245.984 32 268.962 64.3795 268.962 90.0778 c 0
 268.962 106.985 259.016 121 236 121 c 0
 201.016 121 178.038 88.6205 178.038 62.9222 c 0
 178.038 46.0151 187.984 32 211 32 c 0
EndSplineSet
EndChar
StartChar: uni0E17
Encoding: 183 3607 151
Width: 624
Flags: W
HStem: 0 21G<158 232 453 525> 418 37<232 245> 556 38<271 290>
DStem: 276 425 368 492 158 0 328 347 276 425 293 216 158 0 232 0 460 498 489 476 328 347 350 312 584 472 655 467 453 0 525 0
Fore
525 0 m 1
 453 0 l 1
 584 472 l 1
 587.753 483.405 589.444 492.871 589.444 500.538 c 0
 589.444 518.482 580.185 526.567 566.451 526.567 c 0
 545.406 526.567 513.852 507.583 489 476 c 6
 350 312 l 2
 321 275 300 240 293 216 c 2
 232 0 l 1
 158 0 l 1
 276 425 l 1
 263 418 247 418 234 418 c 0
 189.628 418 169.898 445.624 169.898 478.985 c 0
 169.898 529.83 215.73 594 290 594 c 0
 360.191 594 374.435 558.503 374.435 529.211 c 0
 374.435 511.346 369.137 495.788 368 492 c 2
 328 347 l 1
 460 498 l 2
 508.517 558.646 565.739 589.477 607.605 589.477 c 0
 642.233 589.477 666.355 568.384 666.355 525.625 c 0
 666.355 509.265 662.824 489.735 655 467 c 1
 525 0 l 1
243 455 m 0
 281.694 455 307.228 491.918 307.228 521.114 c 0
 307.228 540.209 296.306 556 271 556 c 0
 231.798 556 206.054 519.262 206.054 490.1 c 0
 206.054 470.91 217.202 455 243 455 c 0
EndSplineSet
EndChar
StartChar: uni0E18
Encoding: 184 3608 152
Width: 484
Flags: W
HStem: 0 45<61 292>
DStem: 149 439 208 472 390 370 452 401 194 364 268 364 105 45 179 45 404 321 480 332 347 114 418 108
Fore
404 321 m 2
 407.146 332.185 408.826 340.805 408.826 347.542 c 0
 408.826 360.079 403.009 366.097 390 370 c 2
 149 439 l 1
 170.64 477.362 234.854 594.098 334.978 594.098 c 0
 336.642 594.098 338.316 594.065 340 594 c 0
 386.085 594 454.287 560.321 513.244 560.321 c 0
 537.443 560.321 560.085 565.995 579 582 c 0
 582.86 585.158 586.35 586.715 588.866 586.715 c 0
 591.353 586.715 592.888 585.194 592.888 582.194 c 0
 592.888 579.578 591.721 575.838 589 571 c 0
 551.249 502.924 499.71 488.086 462.115 488.086 c 0
 438.962 488.086 421.098 493.713 415 496 c 0
 362.593 515.49 325.005 525.601 295.656 525.601 c 0
 257.243 525.601 232.943 508.281 208 472 c 1
 452 401 l 1
 462.378 394.614 484.864 392.688 484.864 361.646 c 0
 484.864 353.803 483.429 344.102 480 332 c 2
 418 108 l 2
 398 35 353 0 292 0 c 2
 50 0 l 1
 62 45 l 1
 105 45 l 1
 194 364 l 1
 268 364 l 1
 179 45 l 1
 250 45 l 2
 302 45 333 66 347 114 c 2
 404 321 l 2
EndSplineSet
EndChar
StartChar: uni0E19
Encoding: 185 3609 153
Width: 632
Flags: W
HStem: -8 40<477 492> 418 38<233 243> 558 40<270 289>
DStem: 611 594 687 594 494 172 574 186
Fore
687 594 m 1
 574 186 l 0
 574 186 l 0
 570 172 550 163 550 163 c 1
 575.379 154.426 586.879 131.619 586.879 105.351 c 0
 586.879 55.0273 544.674 -8 477 -8 c 0
 439 -8 417 15 417 54 c 0
 417 97 452 131 452 131 c 1
 451.464 131.004 450.929 131.006 450.394 131.006 c 0
 325.261 131.006 238.949 14.9362 227 0 c 1
 158 0 l 1
 276 427 l 1
 263 418 247 418 233 418 c 0
 232.081 417.976 231.173 417.964 230.275 417.964 c 0
 187.477 417.964 168.465 445.456 168.465 478.954 c 0
 168.465 531.178 214.674 598 289 598 c 0
 360.875 598 375.328 561.281 375.328 531.057 c 0
 375.328 512.922 370.125 497.125 369 493 c 0
 368 492 253 77 253 77 c 1
 253 77 325.756 172.067 486.554 172.068 c 0
 489.016 172.068 491.497 172.045 494 172 c 1
 611 594 l 1
 687 594 l 1
241 456 m 0
 241 456 l 0
 280.421 456 306.601 493.517 306.601 523.045 c 0
 306.601 542.204 295.579 558 270 558 c 0
 230.579 558 204.399 520.483 204.399 490.955 c 0
 204.399 471.796 215.421 456 241 456 c 0
490 32 m 0
 526 32 549.4 64.04 549.4 89.672 c 0
 549.4 106.76 539 121 515 121 c 0
 480.016 121 457.038 88.6205 457.038 62.9222 c 0
 457.038 46.0151 466.984 32 490 32 c 0
EndSplineSet
KernsSLIF: 212 -46 1 0 215 -46 1 0 214 -46 1 0 213 -46 1 0
EndChar
StartChar: uni0E1A
Encoding: 186 3610 154
Width: 618
Flags: W
HStem: 0 45<117 421> 418 38<232 245> 558 38<270 290>
DStem: 610 594 684 594 478 118 549 106
Fore
684 594 m 1
 549 106 l 0
 549 106 l 0
 541 66 498 0 421 0 c 2
 106 0 l 1
 118 45 l 1
 170 45 l 1
 276 425 l 1
 268 421 247 418 234 418 c 0
 186.289 418 165.294 446.138 165.294 480.039 c 0
 165.294 531.404 213.494 596 290 596 c 0
 360.917 596 375.118 559.765 375.118 530.057 c 0
 375.118 512.427 370.117 497.097 369 493 c 0
 368 492 244 45 244 45 c 1
 393 45 l 2
 425 45 466 66 478 118 c 1
 610 594 l 1
 684 594 l 1
241 456 m 0
 280.421 456 306.601 493.517 306.601 523.045 c 0
 306.601 542.204 295.579 558 270 558 c 0
 230.579 558 204.399 520.483 204.399 490.955 c 0
 204.399 471.796 215.421 456 241 456 c 0
EndSplineSet
EndChar
StartChar: uni0E1B
Encoding: 187 3611 155
Width: 634
Flags: W
HStem: 0 45<117 435> 418 38<232 245> 558 38<270 290>
DStem: 730 974 805 974 493 118 564 106
AnchorPoint: "AboveBase" 546.594 645.12 basechar 0
Fore
805 974 m 1
 564 106 l 0
 564 106 l 0
 556 66 513 0 435 0 c 2
 106 0 l 1
 118 45 l 1
 170 45 l 1
 276 425 l 1
 268 421 247 418 234 418 c 0
 186.289 418 165.294 446.138 165.294 480.039 c 0
 165.294 531.404 213.494 596 290 596 c 0
 360.917 596 375.118 559.765 375.118 530.057 c 0
 375.118 512.427 370.117 497.097 369 493 c 0
 368 492 244 45 244 45 c 1
 408 45 l 2
 440 45 481 66 493 118 c 1
 730 974 l 1
 805 974 l 1
241 456 m 0
 280.421 456 306.601 493.517 306.601 523.045 c 0
 306.601 542.204 295.579 558 270 558 c 0
 230.579 558 204.399 520.483 204.399 490.955 c 0
 204.399 471.796 215.421 456 241 456 c 0
EndSplineSet
EndChar
StartChar: uni0E1C
Encoding: 188 3612 156
Width: 618
Flags: W
HStem: 0 21G<88 164 445 520> 574 20G<610 685>
DStem: 224 490 284 433 88 0 196 115 392 316 415 401 450 58 478 118 415 401 392 316 196 115 191 58 610 594 685 594 478 118 520 0
Fore
685 594 m 1
 520 0 l 1
 445 0 l 1
 451 22 l 2
 452.948 28.8179 453.631 34.2655 453.631 38.7536 c 0
 453.631 48.0892 450.675 53.2726 450 58 c 1
 392 316 l 1
 191 58 l 1
 186 51 176 45 170 22 c 6
 164 0 l 1
 88 0 l 1
 224 490 l 2
 235.635 533.63 277.351 594.181 364.643 594.181 c 0
 367.384 594.181 370.169 594.122 373 594 c 0
 413.515 592.638 430.615 567.282 430.615 536.559 c 0
 430.615 487.269 386.6 424.164 324.645 424.164 c 0
 311.792 424.164 298.165 426.88 284 433 c 1
 196 115 l 1
 415 401 l 1
 478 118 l 1
 610 594 l 1
 685 594 l 1
336 462 m 0
 373.457 462 398.139 497.404 398.139 525.434 c 0
 398.139 543.8 387.543 559 363 559 c 0
 324.526 559 299.424 523.946 299.424 495.983 c 0
 299.424 477.431 310.474 462 336 462 c 0
EndSplineSet
EndChar
StartChar: uni0E1D
Encoding: 189 3613 157
Width: 634
Flags: W
HStem: 0 21G<88 164 460 535>
DStem: 224 490 284 433 88 0 196 117 402 326 425 407 463 54 493 118 425 407 402 326 196 117 190 54 730 974 805 974 493 118 535 0
AnchorPoint: "AboveBase" 546.594 645.12 basechar 0
Fore
805 974 m 1
 535 0 l 1
 460 0 l 1
 465 17 l 2
 466.763 23.1716 467.404 28.2204 467.404 32.4763 c 0
 467.404 42.7021 463.706 48.3511 463 54 c 1
 402 326 l 1
 190 54 l 1
 185 46 175 40 169 17 c 2
 164 0 l 1
 88 0 l 1
 224 490 l 2
 235.635 533.63 277.351 594.181 364.643 594.181 c 0
 367.384 594.181 370.169 594.122 373 594 c 0
 413.515 592.638 430.615 567.282 430.615 536.559 c 0
 430.615 487.269 386.6 424.164 324.645 424.164 c 0
 311.792 424.164 298.165 426.88 284 433 c 1
 196 117 l 1
 425 407 l 1
 493 118 l 1
 730 974 l 1
 805 974 l 1
336 462 m 0
 373.457 462 398.139 497.404 398.139 525.434 c 0
 398.139 543.8 387.543 559 363 559 c 0
 324.526 559 299.424 523.946 299.424 495.983 c 0
 299.424 477.431 310.474 462 336 462 c 0
EndSplineSet
EndChar
StartChar: uni0E1E
Encoding: 190 3614 158
Width: 689
Flags: W
HStem: 0 21G<159 237 511 590> 416 39<233 245> 556 38<271 291>
VStem: 511 38<0 588>
DStem: 524 588 511 490 265 115 237 0 682 594 755 594 549 115 590 0
Fore
755 594 m 1
 590 0 l 1
 511 0 l 1
 511 490 l 1
 237 0 l 1
 159 0 l 1
 277 424 l 1
 269 419 247 416 235 416 c 0
 189.938 416 170.032 443.812 170.032 477.449 c 0
 170.032 528.909 216.62 594 291 594 c 0
 361.314 594 375.705 559.001 375.705 529.83 c 0
 375.705 511.706 370.15 495.832 369 492 c 0
 369 490 265 115 265 115 c 1
 524 588 l 1
 551 588 l 1
 549 115 l 1
 682 594 l 1
 755 594 l 1
243 455 m 0
 281.694 455 307.228 491.918 307.228 521.114 c 0
 307.228 540.209 296.306 556 271 556 c 0
 231.798 556 206.054 519.262 206.054 490.1 c 0
 206.054 470.91 217.202 455 243 455 c 0
EndSplineSet
EndChar
StartChar: uni0E1F
Encoding: 191 3615 159
Width: 689
Flags: W
HStem: 0 21G<159 237 511 590> 416 39<233 245> 556 38<271 291>
VStem: 511 37<0 591>
DStem: 511 490 552 591 511 0 548 111 525 591 511 490 264 111 237 0 787 974 861 974 548 111 590 0
AnchorPoint: "AboveBase" 602.26 645.12 basechar 0
Fore
861 974 m 0
 590 0 l 1
 511 0 l 1
 511 490 l 1
 237 0 l 1
 159 0 l 1
 277 424 l 1
 269 419 247 416 235 416 c 0
 189.938 416 170.032 443.812 170.032 477.449 c 0
 170.032 528.909 216.62 594 291 594 c 0
 361.314 594 375.705 559.001 375.705 529.83 c 0
 375.705 511.706 370.15 495.832 369 492 c 0
 369 490 264 111 264 111 c 1
 525 591 l 1
 552 591 l 1
 548 111 l 1
 787 974 l 1
 861 974 l 0
243 455 m 0
 281.694 455 307.228 491.918 307.228 521.114 c 0
 307.228 540.209 296.306 556 271 556 c 0
 231.798 556 206.054 519.262 206.054 490.1 c 0
 206.054 470.91 217.202 455 243 455 c 0
EndSplineSet
EndChar
StartChar: uni0E20
Encoding: 192 3616 160
Width: 590
Flags: W
HStem: -5 40<116 129> 392 44<228 263 228 383>
DStem: 215 332 291 341 169 166 219 83 532 410 607 416 418 0 492 0
Fore
492 0 m 0
 418 0 l 1
 532 410 l 2
 536.529 426.408 538.627 441.26 538.627 454.612 c 0
 538.627 519.963 488.385 549.382 427.121 549.382 c 0
 354.427 549.382 266.214 507.962 228 436 c 1
 395 436 l 1
 383 392 l 1
 347 392 l 2
 304 392 291 341 291 341 c 1
 219 83 l 2
 204 28 160 -5 116 -5 c 0
 73.8078 -5 55.4246 22.0141 55.4246 54.5774 c 0
 55.4246 103.978 97.7326 166.149 163.405 166.149 c 0
 165.251 166.149 167.117 166.1 169 166 c 1
 215 332 l 2
 228 379 263 392 263 392 c 1
 166 392 l 1
 204.219 527.599 339.197 599.058 450.818 599.058 c 0
 538.882 599.058 612.409 554.578 612.409 462.023 c 0
 612.409 447.819 610.677 432.482 607 416 c 1
 607 416 502 37 492 0 c 0
127 35 m 0
 161.763 35 184.312 66.972 184.312 92.5903 c 0
 184.312 109.715 174.237 124 151 124 c 0
 115.223 124 92.2453 92.3549 92.2453 66.804 c 0
 92.2453 49.5053 102.777 35 127 35 c 0
EndSplineSet
EndChar
StartChar: uni0E21
Encoding: 193 3617 161
Width: 616
Flags: W
HStem: 0 21G<441 517> 416 39<231 243> 556 38<269 290>
DStem: 608 594 682 594 465 80 517 0
Fore
682 594 m 1
 517 0 l 0
 441 0 l 0
 404 127 274 147 274 147 c 1
 250 51 232 -5 152 -5 c 0
 151.681 -5.00231 151.364 -5.00346 151.047 -5.00346 c 0
 98.5405 -5.00346 76.2236 26.7014 76.2236 65.7046 c 0
 76.2236 128.035 133.217 209.003 215.073 209.003 c 0
 215.381 209.003 215.691 209.002 216 209 c 1
 276 424 l 1
 266 418 246 416 233 416 c 0
 188.841 416 169.244 443.671 169.244 477.193 c 0
 169.244 528.692 215.496 594 290 594 c 0
 360.191 594 374.435 558.503 374.435 529.211 c 0
 374.435 511.346 369.137 495.788 368 492 c 0
 368 490 288 203 288 203 c 1
 288 203 407 174 465 80 c 1
 608 594 l 5
 682 594 l 1
670 551 m 0
241 455 m 0
 241 455 l 0
 280.202 455 305.946 491.738 305.946 520.9 c 0
 305.946 540.091 294.798 556 269 556 c 0
 229.798 556 204.054 519.262 204.054 490.1 c 0
 204.054 470.91 215.202 455 241 455 c 0
177 68 m 1
 202 157 l 1
 198.571 157.497 195.24 157.735 192.01 157.735 c 0
 146.85 157.735 121.417 111.271 121.417 77.7541 c 0
 121.417 65.4396 124.851 54.8727 132 49 c 1
 135.6 47.4 142.4 45.32 149.712 45.32 c 0
 160.68 45.32 172.8 50 177 68 c 1
EndSplineSet
EndChar
StartChar: uni0E22
Encoding: 194 3618 162
Width: 553
Flags: W
HStem: -8 54<267 293> 309 41<311 340> 422 39<319 330> 562 36<349 368>
Fore
619 594 m 1
 497 154 l 1
 497 154 l 0
 468 52 379 -8 269 -8 c 0
 178.184 -8 118.606 33.6505 118.606 108.854 c 0
 118.606 123.913 120.995 140.316 126 158 c 2
 126 158 145 227 146 229 c 0
 167 287 207 313 243 324 c 1
 211 327 190 358 189 379 c 0
 188.698 383.329 188.548 387.709 188.548 392.126 c 0
 188.548 431.584 200.517 474.027 223 510 c 0
 260 567 302 598 368 598 c 0
 411.107 598 429.815 570.942 429.815 538.043 c 0
 429.815 487.753 386.102 423.814 319 422 c 0
 284 422 274 436 274 436 c 1
 270.31 424.44 268.436 413.363 268.436 403.232 c 0
 268.436 372.174 286.052 350 323 350 c 2
 351 350 l 1
 340 309 l 1
 313 309 l 2
 272 309 233 276 220 232 c 2
 198 152 l 2
 194.946 140.803 193.475 130.354 193.475 120.722 c 0
 193.475 73.5789 228.706 46 286 46 c 0
 357 46 404 83 421 146 c 0
 422.976 150.94 546.002 594.197 546.053 594.197 c 0
 546.053 594.197 l 0
 546.053 594.194 546.035 594.129 546 594 c 1
 619 594 l 1
330 461 m 0
 369.711 461 395.665 497.563 395.665 526.691 c 0
 395.665 545.975 384.289 562 358 562 c 0
 318.798 562 293.054 525.262 293.054 496.1 c 0
 293.054 476.91 304.202 461 330 461 c 0
EndSplineSet
EndChar
StartChar: uni0E23
Encoding: 195 3619 163
Width: 440
Flags: W
HStem: -3 38<216 230> 138 37<254 265> 574 20G<290.5 364.443>
DStem: 153 442 207 472 337 387 396 416 350 344 430 367 300 163 356 101
Fore
562 576 m 0
 562 576 l 0
 526.943 509.575 479.78 496.488 447.967 496.488 c 0
 428.054 496.488 414.155 501.615 413 502 c 0
 362.989 519.953 326.681 529.866 297.829 529.866 c 0
 259.181 529.866 233.91 512.079 207 472 c 1
 396 416 l 2
 408.176 413.391 431.7 402.46 431.7 378.604 c 0
 431.7 375.031 431.172 371.168 430 367 c 2
 356 101 l 2
 353 89 336 -3 218 -3 c 0
 169.497 -3 149.139 24.9896 149.139 58.7718 c 0
 149.139 110.186 196.293 175.017 263.149 175.017 c 0
 263.764 175.017 264.381 175.011 265 175 c 0
 276 175 291 174 300 163 c 1
 350 344 l 1
 353.337 352.343 355.804 360.164 355.804 366.882 c 0
 355.804 376.269 350.988 383.503 337 387 c 2
 153 442 l 1
 171 476 241 594 340 594 c 0
 388.885 594 440.615 564.134 488.334 564.134 c 0
 509.922 564.134 530.689 570.246 550 588 c 0
 553.248 590.887 556.757 592.472 559.539 592.472 c 0
 562.59 592.472 564.768 590.566 564.768 586.381 c 0
 564.768 583.809 563.946 580.378 562 576 c 0
226 35 m 0
 264.185 35 289.512 72.8387 289.512 102.647 c 0
 289.512 122.019 278.815 138 254 138 c 0
 214.289 138 188.335 100.713 188.335 71.0078 c 0
 188.335 51.3423 199.711 35 226 35 c 0
EndSplineSet
KernsSLIF: 212 46 1 0 215 46 1 0 214 46 1 0 213 46 1 0
EndChar
StartChar: uni0E24
Encoding: 196 3620 164
Width: 569
Flags: W
HStem: 392 44<212 229 212 361>
DStem: 513 410 587 410 332 -240 406 -240
Fore
332 -240 m 0
 513 410 l 2
 517.615 426.632 519.751 441.672 519.751 455.175 c 0
 519.751 520.006 470.515 549.389 410.127 549.389 c 0
 338.665 549.389 251.584 508.241 212 436 c 1
 373 436 l 1
 361 392 l 1
 350 392 316 392 314 392 c 0
 271 392 256 333 256 333 c 1
 256 330 208 158 208 158 c 1
 223.306 162.694 236.697 164.806 248.269 164.806 c 0
 288.939 164.806 307.152 138.725 307.152 106.994 c 0
 307.152 59.2737 265.957 -1.22462 198 -5 c 0
 195.772 -5.09582 193.6 -5.14286 191.481 -5.14286 c 0
 129.397 -5.14286 113.57 35.2466 113.57 72.4545 c 0
 113.57 86.987 115.984 101.034 119 112 c 2
 178 324 l 2
 191 373 229 392 229 392 c 1
 150 392 l 1
 191.06 529.552 324.057 599.139 434.066 599.139 c 0
 521.918 599.139 595.109 554.76 595.109 465.177 c 0
 595.109 448.376 592.535 429.986 587 410 c 2
 406 -240 l 5
 332 -240 l 0
209 35 m 0
 244.777 35 267.755 66.6451 267.755 92.196 c 0
 267.755 109.495 257.223 124 233 124 c 0
 198.745 124 176.408 91.8563 176.408 66.2037 c 0
 176.408 49.171 186.255 35 209 35 c 0
EndSplineSet
EndChar
StartChar: uni0E25
Encoding: 197 3621 165
Width: 552
Flags: W
HStem: 0 21G<381 454> 401 49<360 390>
DStem: 161 293 235 289 110 108 199 158 461 289 574 433 381 0 454 0
Fore
454 0 m 1
 381 0 l 1
 461 289 l 2
 464.024 299.754 465.468 310.055 465.468 319.754 c 0
 465.468 367.775 430.078 401 376 401 c 0
 307 401 251 347 235 289 c 2
 199 158 l 1
 214.866 163.044 228.69 165.305 240.58 165.305 c 0
 281.019 165.305 299.094 139.147 299.094 107.324 c 0
 299.094 59.4537 258.195 -1.23707 191 -5 c 0
 189.34 -5.05927 187.71 -5.08849 186.109 -5.08849 c 0
 124.665 -5.08849 105.704 37.918 105.704 76.4554 c 0
 105.704 87.7531 107.333 98.6667 110 108 c 2
 161 293 l 2
 183 372 272 450 370 450 c 0
 459 450 492 395 492 395 c 1
 499.694 417.544 503.033 436.63 503.033 452.775 c 0
 503.033 526.865 432.696 539 390 539 c 0
 316 539 238 505 180 444 c 1
 161 467 l 1
 244.761 560.162 340.94 598.354 419.959 598.354 c 0
 511.161 598.354 579.503 547.477 579.503 471.524 c 0
 579.503 459.297 577.732 446.419 574 433 c 2
 454 0 l 1
197 32 m 0
 234.966 32 259.857 67.2267 259.857 95.2228 c 0
 259.857 113.683 249.034 129 224 129 c 0
 186.034 129 161.143 93.7733 161.143 65.7772 c 0
 161.143 47.3167 171.966 32 197 32 c 0
EndSplineSet
EndChar
StartChar: uni0E26
Encoding: 198 3622 166
Width: 582
Flags: W
HStem: -5 40<94 107> 392 44<224 374>
DStem: 191 326 268 335 147 166 198 83 526 410 600 410 345 -240 419 -240
Fore
345 -240 m 0
 526 410 l 2
 530.666 426.762 532.823 441.888 532.823 455.446 c 0
 532.823 520.46 483.208 549.375 422.675 549.375 c 0
 349.736 549.375 260.945 507.394 224 436 c 1
 386 436 l 1
 374 392 l 1
 328 392 l 2
 284 392 268 335 268 335 c 1
 198 83 l 2
 183 28 139 -5 94 -5 c 0
 49.0169 -5 29.413 22.5589 29.413 55.5592 c 0
 29.413 104.797 73.0555 166.149 141.158 166.149 c 0
 143.086 166.149 145.033 166.1 147 166 c 1
 191 326 l 2
 205 375 243 392 243 392 c 1
 161 392 l 1
 201.586 529.172 335.344 598.775 446.063 598.775 c 0
 534.392 598.775 608.059 554.476 608.059 464.847 c 0
 608.059 448.141 605.5 429.861 600 410 c 2
 419 -240 l 5
 345 -240 l 0
105 35 m 0
 139.763 35 162.312 66.972 162.312 92.5903 c 0
 162.312 109.715 152.237 124 129 124 c 0
 94.7447 124 72.4078 91.8563 72.4078 66.2037 c 0
 72.4078 49.171 82.2553 35 105 35 c 0
EndSplineSet
EndChar
StartChar: uni0E27
Encoding: 199 3623 167
Width: 481
Flags: W
HStem: -5 36<262 278> 131 35<303 311> 545 53<340 373>
DStem: 429 438 503 438 351 155 415 118
Fore
415 118 m 1
 415 118 l 0
 393 41 352 -5 262 -5 c 0
 225.353 -5 203.273 20.6675 203.273 55.2466 c 0
 203.273 62.1841 204.162 69.4804 206 77 c 0
 217 124 258 164 309 166 c 0
 330 166 338 163 351 155 c 1
 429 438 l 2
 431.76 447.812 433.062 457.13 433.062 465.876 c 0
 433.062 514.174 393.341 545 340 545 c 0
 257 545 196 484 182 470 c 1
 150 479 l 1
 161 502 243 598 373 598 c 0
 450.259 598 508.777 549.706 508.777 478.209 c 0
 508.777 465.493 506.926 452.043 503 438 c 2
 415 118 l 1
276 31 m 0
 314.474 31 339.576 67.1384 339.576 95.9658 c 0
 339.576 115.092 328.526 131 303 131 c 0
 265.034 131 240.143 94.6838 240.143 65.8219 c 0
 240.143 46.7904 250.966 31 276 31 c 0
EndSplineSet
EndChar
StartChar: uni0E28
Encoding: 200 3624 168
Width: 561
Flags: W
HStem: 0 21G<96 172 393 465> 273 36<314 329> 407 37<351 365> 553 46<383 404>
DStem: 158 224 236 229 96 0 172 0 504 401 576 401 393 0 465 0
Fore
329 309 m 0
 329 309 l 0
 367.982 309 393.296 344.247 393.296 372.464 c 0
 393.296 391.298 382.018 407 356 407 c 0
 318.034 407 293.143 371.41 293.143 343.125 c 0
 293.143 324.475 303.966 309 329 309 c 0
511 473 m 0
 511 473 l 0
 504 535 452 553 388 553 c 0
 295 553 210 479 192 413 c 0
 187.306 397.111 184.958 382.526 184.958 369.716 c 0
 184.958 347.052 192.306 329.944 207 321 c 1
 233 376 284 444 363 444 c 0
 393 444 412 432 419 415 c 1
 448 427 480 447 511 473 c 0
587 482 m 1
 587.592 477.858 587.872 473.444 587.872 468.781 c 0
 587.872 449.8 583.225 426.689 576 401 c 2
 465 0 l 1
 393 0 l 1
 504 401 l 2
 506 409 508 415 508 422 c 1
 481 404 453 390 427 378 c 1
 425 330 380 273 314 273 c 0
 278 273 264 301 264 301 c 1
 251 280 240 246 236 229 c 2
 172 0 l 1
 96 0 l 1
 158 224 l 2
 159.304 228.562 159.864 233.149 159.864 237.831 c 0
 159.864 266.448 138.945 298.676 138.945 351.189 c 0
 138.945 369.186 141.402 389.566 148 413 c 0
 177 519 289 599 402 599 c 0
 474 599 537 584 568 536 c 1
 589 565 607 601 618 641 c 1
 618 641 649.556 641.444 670.593 641.444 c 0
 681.111 641.444 689 641.333 689 641 c 0
 672 582 633 528 587 482 c 1
EndSplineSet
EndChar
StartChar: uni0E29
Encoding: 201 3625 169
Width: 634
Flags: W
HStem: 0 45<117 451> 346 41<361 372> 418 37<233 251> 556 38<272 290>
DStem: 274 425 291 212 168 45 244 45 530 240 700 594 491 101 564 103 628 594 700 594 558 344 564 103
Fore
244 455 m 0
 244 455 l 0
 283.202 455 308.946 491.738 308.946 520.9 c 0
 308.946 540.091 297.798 556 272 556 c 0
 232.289 556 206.335 519.437 206.335 490.309 c 0
 206.335 471.025 217.711 455 244 455 c 0
338 255 m 0
 338 255 l 0
 371.966 255 394.528 288.478 394.528 314.823 c 0
 394.528 331.912 385.034 346 363 346 c 0
 327.508 346 304.32 313.069 304.32 286.828 c 0
 304.32 269.447 314.492 255 338 255 c 0
291 212 m 0
 244 45 l 1
 414 45 l 2
 447 45 482 69 491 101 c 2
 530 240 l 1
 500.407 197.121 435.07 165.548 378.485 165.548 c 0
 341.376 165.548 308.031 179.127 291 212 c 0
700 594 m 0
 564 103 l 0
 553 51 510 0 451 0 c 2
 106 0 l 1
 118 45 l 1
 168 45 l 1
 274 425 l 1
 261 418 247 418 234 418 c 0
 189.628 418 169.898 445.624 169.898 478.985 c 0
 169.898 529.83 215.73 594 290 594 c 0
 360.191 594 374.435 558.503 374.435 529.211 c 0
 374.435 511.346 369.137 495.788 368 492 c 2
 368 492 337 379 337 378 c 1
 347 384 359 387 372 387 c 0
 373.636 387.084 375.261 387.126 376.87 387.126 c 0
 411.951 387.126 440.195 367.338 440.195 333.881 c 0
 440.195 332.285 440.131 330.658 440 329 c 0
 434 257 387 224 353 221 c 1
 366.703 213.541 381.249 210.235 396.031 210.235 c 0
 466.472 210.235 542.296 285.315 558 344 c 2
 628 594 l 1
 700 594 l 0
EndSplineSet
EndChar
StartChar: uni0E2A
Encoding: 202 3626 170
Width: 552
Flags: W
HStem: 0 21G<381 454>
DStem: 155 270 229 266 110 108 199 158 450 250 573 429 381 0 454 0
Fore
197 32 m 0
 197 32 l 0
 234.966 32 259.857 67.2267 259.857 95.2228 c 0
 259.857 113.683 249.034 129 224 129 c 0
 186.034 129 161.143 93.7733 161.143 65.7772 c 0
 161.143 47.3167 171.966 32 197 32 c 0
488 501 m 0
 488 501 l 0
 467.042 526.37 430.942 538.086 389.593 538.086 c 0
 318.484 538.086 231.85 503.438 180 444 c 1
 161 467 l 1
 247.427 564.159 341.192 598.139 417.243 598.139 c 0
 475.823 598.139 523.893 577.977 550 551 c 1
 576 576 600 607 618 641 c 1
 689 641 l 1
 666 588 621 545 573 510 c 1
 577.222 496.865 579.023 484.17 579.023 471.606 c 0
 579.023 457.386 576.716 443.334 573 429 c 2
 454 0 l 1
 381 0 l 1
 450 250 l 2
 453.288 261.875 454.875 273.683 454.875 285.052 c 0
 454.875 335.916 423.125 378 370 378 c 0
 301 378 245 324 229 266 c 2
 199 158 l 1
 214.866 163.044 228.69 165.305 240.58 165.305 c 0
 281.019 165.305 299.094 139.147 299.094 107.324 c 0
 299.094 59.4537 258.195 -1.23707 191 -5 c 0
 189.34 -5.05927 187.71 -5.08849 186.109 -5.08849 c 0
 124.665 -5.08849 105.704 37.918 105.704 76.4554 c 0
 105.704 87.7531 107.333 98.6667 110 108 c 2
 155 270 l 2
 173 335 246 413 337 425 c 1
 383 442 438 467 488 501 c 0
396 424 m 1
 466 409 481 356 481 356 c 1
 484 369 498 418 499 422 c 0
 502.314 433.598 504.255 446.569 504.255 458.069 c 0
 504.255 460.451 504.172 462.77 504 465 c 1
 463 445 423 430 396 424 c 1
EndSplineSet
EndChar
StartChar: uni0E2B
Encoding: 203 3627 171
Width: 623
Flags: W
HStem: 0 21G<150 224 450 525> 418 37<222 234> 556 38<260 282>
DStem: 270 432 358 492 150 0 290 244 270 432 254 109 150 0 224 0 554 376 631 384 450 0 525 0
Fore
525 0 m 1
 450 0 l 1
 554 376 l 2
 556.077 382.923 556.876 389.101 556.876 394.508 c 0
 556.876 412.533 548 422 548 422 c 1
 418 352 296 190 284 172 c 0
 270 147 259 127 254 109 c 2
 224 0 l 1
 150 0 l 1
 270 432 l 1
 255 419 239 418 225 418 c 0
 180.759 418 160.823 445.958 160.823 479.589 c 0
 160.823 530.337 206.219 594 282 594 c 0
 350.774 594 365.097 559.921 365.097 530.991 c 0
 365.097 512.388 359.174 495.914 358 492 c 2
 290 244 l 1
 395 379 535 456 535 456 c 1
 529.309 465.864 526.713 476.951 526.713 488.443 c 0
 526.713 537.532 574.089 594 630 594 c 0
 672.293 594 689.549 569.546 689.549 539.875 c 0
 689.549 502.196 661.721 456.105 622 441 c 1
 622 441 633.908 426.585 633.908 403.709 c 0
 633.908 397.689 633.083 391.083 631 384 c 2
 525 0 l 1
596 472 m 0
 596 472 l 0
 630.984 472 653.962 504.38 653.962 530.078 c 0
 653.962 546.985 644.016 561 621 561 c 0
 587.543 561 565.188 528.067 565.188 502.267 c 0
 565.188 485.655 574.457 472 596 472 c 0
232 455 m 0
 271.711 455 297.665 491.563 297.665 520.691 c 0
 297.665 539.975 286.289 556 260 556 c 0
 220.798 556 195.054 519.262 195.054 490.1 c 0
 195.054 470.91 206.202 455 232 455 c 0
EndSplineSet
EndChar
StartChar: uni0E2C
Encoding: 204 3628 172
Width: 681
Flags: W
HStem: 0 21G<151 226 506 583> 418 37<224 235> 475 41<638 647> 556 38<261 283> 607 38<670 683>
DStem: 271 432 362 492 151 0 260 121 476 425 512 556 506 0 541 126 512 556 476 425 260 121 226 0 638 475 722 502 541 126 583 0
Fore
850 659 m 1
 850 659 l 0
 813 536 722 502 722 502 c 1
 583 0 l 1
 506 0 l 1
 476 425 l 1
 226 0 l 1
 151 0 l 1
 271 432 l 1
 256 419 237 418 226 418 c 0
 182.106 418 162.256 446.025 162.256 479.708 c 0
 162.256 530.436 207.279 594 283 594 c 0
 354.032 594 368.381 558.282 368.381 528.938 c 0
 368.381 511.187 363.131 495.769 362 492 c 2
 260 121 l 1
 512 556 l 1
 541 126 l 1
 638 475 l 1
 592.977 475 573.487 502.471 573.487 535.327 c 0
 573.487 584.205 616.621 645 683 645 c 0
 735.324 645 745.931 615.656 745.931 591.863 c 0
 745.931 575.641 741 562 741 562 c 1
 779 607 784 639 787 659 c 1
 850 659 l 1
647 516 m 0
 647 516 l 0
 680.966 516 703.528 549.478 703.528 575.823 c 0
 703.528 592.912 694.034 607 672 607 c 0
 637.016 607 614.038 573.893 614.038 547.617 c 0
 614.038 530.33 623.984 516 647 516 c 0
233 455 m 0
 272.711 455 298.665 491.563 298.665 520.691 c 0
 298.665 539.975 287.289 556 261 556 c 0
 222.306 556 196.772 519.082 196.772 489.886 c 0
 196.772 470.791 207.694 455 233 455 c 0
EndSplineSet
EndChar
StartChar: uni0E2D
Encoding: 205 3629 173
Width: 553
Flags: W
HStem: -8 21G<231.531 286.5> 548 46<383 410>
DStem: 170 327 232 280 120 147 191 132 497 421 575 429 417 132 496 146
Fore
496 146 m 1
 496 146 l 0
 461 18 313 -8 260 -8 c 0
 203.061 -8 112.63 9.11819 112.63 98.5742 c 0
 112.63 112.81 114.92 128.878 120 147 c 2
 170 327 l 2
 180.681 365.839 228.129 445.216 306.853 445.216 c 0
 309.208 445.216 311.59 445.145 314 445 c 0
 357.433 442.881 375.804 415.45 375.804 383.049 c 0
 375.804 333.48 332.81 272.28 270.786 272.28 c 0
 258.538 272.28 245.548 274.666 232 280 c 1
 191 132 l 1
 188.469 122.815 187.287 114.279 187.287 106.395 c 0
 187.287 59.4524 229.184 35.6217 277.609 35.6217 c 0
 333.51 35.6217 398.111 67.3793 417 132 c 1
 497 421 l 2
 499.894 431.724 501.368 442.476 501.368 452.937 c 0
 501.368 503.933 466.34 548 390 548 c 0
 286 548 233 496 197 464 c 1
 174 485 l 1
 218 527 293 594 408 594 c 0
 516.267 594 580.234 538.625 580.234 465.94 c 0
 580.234 454.035 578.518 441.666 575 429 c 2
 496 146 l 1
277 309 m 0
 316.489 309 342.017 344.798 342.017 373.558 c 0
 342.017 392.865 330.511 409 304 409 c 0
 264.511 409 238.983 373.202 238.983 344.442 c 0
 238.983 325.135 250.489 309 277 309 c 0
EndSplineSet
EndChar
StartChar: uni0E2E
Encoding: 206 3630 174
Width: 553
Flags: W
HStem: -8 21G<231.531 286.5> 553 43<383 402>
DStem: 497 421 575 429 417 132 496 146
Fore
631 602 m 1
 631 602 l 0
 614 567 596 542 572 516 c 1
 577.937 504.666 580.67 488.671 580.67 471.788 c 0
 580.67 457.391 578.682 442.348 575 429 c 2
 496 146 l 2
 461 18 313 -8 260 -8 c 0
 203.061 -8 112.63 9.11819 112.63 98.5742 c 0
 112.63 112.81 114.92 128.878 120 147 c 2
 146 243 l 2
 156.681 281.839 205.072 361.216 283.851 361.216 c 0
 286.207 361.216 288.59 361.145 291 361 c 0
 333.906 358.89 352.075 331.671 352.075 299.397 c 0
 352.075 249.518 308.677 187.565 246.129 187.565 c 0
 234.073 187.565 221.305 189.866 208 195 c 1
 191 132 l 1
 188.469 122.815 187.287 114.279 187.287 106.395 c 0
 187.287 59.4524 229.184 35.6217 277.609 35.6217 c 0
 333.51 35.6217 398.111 67.3793 417 132 c 1
 497 421 l 2
 499.773 431.169 505.111 447.322 505.111 458.395 c 0
 505.111 459.299 505.076 460.169 505 461 c 1
 447.424 419.084 376.693 399.446 317.63 399.446 c 0
 250.151 399.446 197.902 425.081 197.902 472.415 c 0
 197.902 473.597 197.934 474.792 198 476 c 0
 203 544 316 596 400 596 c 0
 479 596 521 565 533 559 c 1
 541 571 549 584 554 602 c 1
 631 602 l 1
491 508 m 0
 491 508 l 0
 480 531 449 553 386 553 c 0
 341 553 245 530 243 481 c 0
 242.988 480.657 242.982 480.316 242.982 479.977 c 0
 242.982 454.536 277.261 439.491 322.77 439.491 c 0
 375.751 439.491 443.952 459.882 491 508 c 0
253 224 m 0
 292.711 224 318.665 260.201 318.665 289.041 c 0
 318.665 308.134 307.289 324 281 324 c 0
 241.289 324 215.335 287.799 215.335 258.959 c 0
 215.335 239.866 226.711 224 253 224 c 0
EndSplineSet
EndChar
StartChar: uni0E2F
Encoding: 207 3631 175
Width: 514
Flags: W
HStem: 556 38<266 277>
DStem: 460 465 569 591 332 3 406 3
Fore
406 3 m 1
 332 3 l 1
 460 465 l 1
 406.481 425.89 344.487 412.467 292.69 412.467 c 0
 243.833 412.467 204.047 424.409 189 438 c 0
 174.153 451.786 167.671 469.228 167.671 487.417 c 0
 167.671 537.835 217.475 594 277 594 c 0
 319 594 341 571 342 533 c 0
 341 492 309 462 309 462 c 1
 314.425 461.598 319.705 461.405 324.843 461.405 c 0
 447.554 461.405 489.241 571.804 495 591 c 1
 569 591 l 1
 406 3 l 1
243 465 m 0
 277.984 465 300.962 498.107 300.962 524.383 c 0
 300.962 541.67 291.016 556 268 556 c 0
 232.508 556 209.32 523.069 209.32 496.828 c 0
 209.32 479.447 219.492 465 243 465 c 0
EndSplineSet
EndChar
StartChar: uni0E30
Encoding: 208 3632 176
Width: 438
Flags: W
HStem: 141 33<162 174> 551 33<276 288>
Fore
525 579 m 1
 525 579 l 0
 476.172 460.037 383.207 415.949 296.484 415.949 c 0
 285.522 415.949 274.66 416.653 264 418 c 1
 264 418 187.778 423.646 187.778 486.057 c 0
 187.778 487.984 187.85 489.964 188 492 c 0
 190 521 219 584 288 584 c 0
 320.869 584 342.273 566.361 342.273 533.569 c 0
 342.273 531.443 342.183 529.253 342 527 c 0
 339 487 313 461 313 461 c 1
 317.538 460.637 321.996 460.457 326.373 460.457 c 0
 394.315 460.457 442.573 503.841 467 579 c 1
 525 579 l 1
411 169 m 1
 411 169 l 0
 362.766 49.3081 268.257 6.20957 180.922 6.20957 c 0
 170.481 6.20957 160.144 6.82545 150 8 c 1
 150 8 73.7777 13.6461 73.7777 75.1446 c 0
 73.7777 77.0427 73.8503 78.994 74 81 c 0
 77 111 105 174 174 174 c 0
 206.352 174 228.451 156.912 228.451 125.105 c 0
 228.451 122.502 228.303 119.8 228 117 c 0
 225 77 199 51 199 51 c 1
 203.538 50.6369 208 50.4569 212.383 50.4569 c 0
 280.429 50.4569 329.513 93.841 353 169 c 1
 411 169 l 1
255 468 m 0
 255 468 l 0
 286.493 468 307.349 498.444 307.349 522.457 c 0
 307.349 538.092 298.507 551 278 551 c 0
 245.49 551 224.215 520.916 224.215 496.972 c 0
 224.215 481.144 233.51 468 255 468 c 0
141 58 m 0
 172.493 58 193.349 88.4445 193.349 112.457 c 0
 193.349 128.092 184.507 141 164 141 c 0
 131.49 141 110.215 110.916 110.215 86.9717 c 0
 110.215 71.1445 119.51 58 141 58 c 0
EndSplineSet
EndChar
StartChar: uni0E31
Encoding: 209 3633 177
Width: 0
Flags: W
HStem: 874 41<-15 -5>
AnchorPoint: "AboveMark" 167.284 967.68 basemark 0
AnchorPoint: "AboveBase" 77.8311 645.12 mark 0
Fore
387 911 m 1
 387 911 l 0
 305.704 747.118 159.468 675.652 44.1771 675.652 c 0
 -19.221 675.652 -73.2615 697.263 -102 737 c 0
 -116.18 756.558 -122.291 777.312 -122.291 797.478 c 0
 -122.291 858.986 -65.4443 915.03 -7.30732 915.03 c 0
 -6.53839 915.03 -5.76925 915.02 -5 915 c 0
 32.3629 915 61.0251 895.665 61.0251 854.143 c 0
 61.0251 853.435 61.0168 852.721 61 852 c 0
 59 774 -12 745 -12 745 c 1
 14.9238 733.369 42.126 727.908 68.8271 727.908 c 0
 166.092 727.908 256.708 800.37 303 911 c 1
 387 911 l 1
-40 782 m 0
 -5.52473 782 17.2443 815.655 17.2443 842.254 c 0
 17.2443 859.633 7.52473 874 -15 874 c 0
 -51.5075 874 -75.1205 841.047 -75.1205 814.585 c 0
 -75.1205 796.832 -64.4925 782 -40 782 c 0
EndSplineSet
EndChar
StartChar: uni0E32
Encoding: 210 3634 178
Width: 407
Flags: W
HStem: 558 44<299 321>
DStem: 362 459 440 464 236 3 312 3
Fore
312 3 m 1
 236 3 l 1
 362 459 l 2
 365.459 471.108 367.189 482.608 367.189 493.198 c 0
 367.189 531.584 344.459 558 299 558 c 0
 234 558 175 516 155 499 c 1
 167 542 l 1
 191 562 246 602 321 602 c 0
 402.296 602 447.242 572.92 447.242 511.537 c 0
 447.242 497.414 444.863 481.582 440 464 c 2
 312 3 l 1
EndSplineSet
EndChar
StartChar: uni0E33
Encoding: 211 3635 179
Width: 407
Flags: W
HStem: 558 44<299 321> 685 43<64 78> 829 47<102 116>
DStem: 362 459 440 464 236 3 312 3
Fore
64 685 m 0
 64 685 l 0
 15.6777 685 -5.19011 714.965 -5.19011 751.157 c 0
 -5.19011 806.34 43.3223 876 117 876 c 0
 164.34 876 184.756 846.275 184.756 810.277 c 0
 184.756 755.027 136.66 685 64 685 c 0
312 3 m 1
 236 3 l 1
 362 459 l 2
 365.459 471.108 367.189 482.608 367.189 493.198 c 0
 367.189 531.584 344.459 558 299 558 c 0
 234 558 175 516 155 499 c 1
 167 542 l 1
 191 562 246 602 321 602 c 0
 402.296 602 447.242 572.92 447.242 511.537 c 0
 447.242 497.414 444.863 481.582 440 464 c 2
 312 3 l 1
139 779 m 0
 140.4 784.074 141.065 788.903 141.065 793.417 c 0
 141.065 814.705 126.276 829 104 829 c 0
 76 829 49 808 41 779 c 0
 39.5517 773.931 38.8572 769.026 38.8572 764.391 c 0
 38.8572 743.426 53.0691 728 76 728 c 0
 103 728 131 751 139 779 c 0
EndSplineSet
MultipleSubs: 0 1 'ccmp' uni0E4D uni0E32
EndChar
StartChar: uni0E34
Encoding: 212 3636 180
Width: 0
Flags: W
AnchorPoint: "AboveMark" 130.662 967.68 basemark 0
AnchorPoint: "AboveBase" 77.8311 645.12 mark 0
Fore
101 651 m 0
 101 651 l 0
 66 671 -2 713 -96 730 c 0
 -133.711 737.071 -166.329 739.667 -195.25 739.667 c 0
 -239.952 739.667 -275.819 733.465 -308 728 c 1
 -258.494 818.443 -159.138 892.572 -60.8425 892.572 c 0
 -55.8901 892.572 -50.9405 892.384 -46 892 c 0
 54.0525 884.619 109.043 824.778 109.043 723.508 c 0
 109.043 701.293 106.397 677.085 101 651 c 0
65 717 m 1
 54 808 5 837 -62 843 c 0
 -67.6345 843.528 -73.2148 843.785 -78.7333 843.785 c 0
 -135.897 843.785 -186.434 816.214 -222 777 c 1
 -205.767 778.888 -189.25 779.777 -172.286 779.777 c 0
 -144.312 779.777 -115.125 777.357 -84 773 c 0
 -2 760 65 717 65 717 c 1
EndSplineSet
EndChar
StartChar: uni0E35
Encoding: 213 3637 181
Width: 0
Flags: W
AnchorPoint: "AboveMark" 130.662 967.68 basemark 0
AnchorPoint: "AboveBase" 77.8311 645.12 mark 0
Fore
62 849 m 0
 91 951 l 1
 163 951 l 5
 163 951 108 753 107 751 c 0
 107.804 743.229 108.177 735.1 108.177 726.65 c 0
 108.177 703.564 105.392 678.086 101 651 c 1
 66 671 -2 713 -96 730 c 0
 -133.711 737.071 -166.329 739.667 -195.25 739.667 c 0
 -239.952 739.667 -275.819 733.465 -308 728 c 1
 -258.494 818.443 -159.138 892.572 -60.8425 892.572 c 0
 -55.8901 892.572 -50.9405 892.384 -46 892 c 0
 1 889 37 874 62 849 c 0
65 717 m 1
 54 808 5 837 -62 843 c 0
 -67.6345 843.528 -73.2148 843.785 -78.7333 843.785 c 0
 -135.897 843.785 -186.434 816.214 -222 777 c 1
 -205.767 778.888 -189.25 779.777 -172.286 779.777 c 0
 -144.312 779.777 -115.125 777.357 -84 773 c 0
 -2 760 65 717 65 717 c 1
EndSplineSet
EndChar
StartChar: uni0E36
Encoding: 214 3638 182
Width: 0
Flags: W
HStem: 906 45<113 128>
AnchorPoint: "AboveMark" 132.127 967.68 basemark 0
AnchorPoint: "AboveBase" 77.8311 645.12 mark 0
Fore
101 651 m 0
 101 651 l 0
 51 684 -35 722 -106 731 c 1
 -142.057 737.319 -173.416 739.631 -200.642 739.631 c 0
 -246.659 739.631 -280.869 733.026 -306 728 c 1
 -260.451 819.099 -157.609 894.231 -57.5498 894.231 c 0
 -54.363 894.231 -51.1791 894.154 -48 894 c 1
 -5 889 23 874 23 874 c 1
 26 892 56 951 128 951 c 4
 172.3 951 191.145 924.478 191.145 892.161 c 0
 191.145 847.879 155.763 792.718 102 780 c 1
 102 780 108.824 759.102 108.824 722.32 c 0
 108.824 702.779 106.898 678.755 101 651 c 0
91 820 m 0
 91 820 l 0
 124.747 820 146.873 851.232 146.873 876.053 c 0
 146.873 892.42 137.253 906 115 906 c 0
 80.237 906 57.6879 875.106 57.6879 850.351 c 0
 57.6879 833.804 67.763 820 91 820 c 0
65 717 m 1
 54 808 5 837 -62 843 c 0
 -67.6345 843.528 -73.2148 843.785 -78.7333 843.785 c 0
 -135.897 843.785 -186.434 816.214 -222 777 c 1
 -205.767 778.888 -189.25 779.777 -172.286 779.777 c 0
 -144.312 779.777 -115.125 777.357 -84 773 c 0
 -2 760 65 717 65 717 c 1
EndSplineSet
EndChar
StartChar: uni0E37
Encoding: 215 3639 183
Width: 0
Flags: W
DStem: -31 951 35 951 -53 876 12 863 98 951 163 951 63 831 107 743
AnchorPoint: "AboveMark" 70.6025 967.68 basemark 0
AnchorPoint: "AboveBase" 77.8311 645.12 mark 0
Fore
101 648 m 0
 101 648 l 0
 45 684 -24 714 -106 728 c 0
 -140.476 733.959 -170.966 736.476 -199.168 736.476 c 0
 -237.224 736.476 -271.112 731.892 -305 725 c 1
 -228.294 867.08 -93.8444 876.198 -60.5967 876.198 c 0
 -55.7014 876.198 -53 876 -53 876 c 1
 -31 951 l 1
 35 951 l 1
 12 863 l 1
 45 852 63 831 63 831 c 1
 98 951 l 1
 163 951 l 5
 107 743 l 1
 107 743 108.882 735.203 108.882 718.494 c 0
 108.882 702.978 107.259 679.778 101 648 c 0
64 714 m 1
 58 788 14 823 -66 829 c 0
 -71.7339 829.541 -77.5497 829.813 -83.4222 829.813 c 0
 -131.83 829.813 -184.085 811.348 -226 773 c 1
 -210.773 775.175 -195.284 776.168 -178.959 776.168 c 0
 -150.256 776.168 -118.973 773.1 -82 768 c 0
 -6 757 64 714 64 714 c 1
EndSplineSet
EndChar
StartChar: uni0E38
Encoding: 216 3640 184
Width: 0
Flags: W
HStem: -220 36<-269 -257>
DStem: -234 -214 -142 -155 -260 -307 -184 -307
AnchorPoint: "BelowBase" -118.781 -69.1201 mark 0
Fore
-184 -307 m 5
 -260 -307 l 1
 -234 -214 l 1
 -238 -215 -249 -220 -269 -220 c 0
 -306.418 -219.204 -322.761 -196.383 -322.761 -168.693 c 0
 -322.761 -126.821 -285.388 -73.8155 -227 -69 c 0
 -224.139 -68.8593 -221.332 -68.789 -218.583 -68.789 c 0
 -170.287 -68.789 -139.703 -90.4898 -139.703 -133.332 c 0
 -139.703 -140.037 -140.452 -147.261 -142 -155 c 1
 -184 -307 l 5
-259 -184 m 0
 -227.726 -184 -207.304 -155.064 -207.304 -131.997 c 0
 -207.304 -116.709 -216.274 -104 -237 -104 c 0
 -267.766 -104 -287.978 -133.112 -287.978 -156.213 c 0
 -287.978 -171.407 -279.234 -184 -259 -184 c 0
EndSplineSet
EndChar
StartChar: uni0E39
Encoding: 217 3641 185
Width: 0
Flags: W
HStem: -307 34<-285 -272> -206 28<-375 -362> -101 32<-350 -336>
DStem: -194 -69 -118 -69 -241 -238 -158 -212
AnchorPoint: "BelowBase" -118.781 -69.1201 mark 0
Fore
-158 -212 m 1
 -158 -212 l 0
 -172 -264 -216 -307 -274 -307 c 0
 -323.658 -307 -352.064 -284.332 -352.064 -247.938 c 0
 -352.064 -241.091 -351.058 -233.759 -349 -226 c 2
 -342 -201 l 1
 -346 -203 -353 -206 -374 -206 c 0
 -410.874 -205.198 -426.864 -183.031 -426.864 -156.754 c 0
 -426.864 -117.47 -391.126 -69 -336 -69 c 0
 -292.939 -69 -274.682 -89.3949 -274.682 -120.772 c 0
 -274.682 -131.657 -276.879 -143.864 -281 -157 c 1
 -303 -238 l 1
 -304.984 -242.711 -305.922 -247.238 -305.922 -251.382 c 0
 -305.922 -263.951 -297.289 -273 -283 -273 c 0
 -262 -273 -247 -261 -241 -238 c 2
 -194 -69 l 1
 -118 -69 l 5
 -158 -212 l 1
-321 -140 m 0
 -319.689 -135.693 -319.08 -131.631 -319.08 -127.874 c 0
 -319.08 -111.568 -330.558 -101 -346 -101 c 0
 -367 -101 -388 -117 -395 -140 c 0
 -395.763 -142.746 -396.13 -145.538 -396.13 -148.298 c 0
 -396.13 -163.636 -384.797 -178 -367 -178 c 0
 -348 -178 -326 -158 -321 -140 c 0
EndSplineSet
EndChar
StartChar: uni0E3A
Encoding: 218 3642 186
Width: 0
Flags: W
AnchorPoint: "BelowBase" -115.799 -58.3682 mark 0
Fore
-179 -161 m 0
 -206.816 -161 -218.842 -144.262 -218.842 -124.089 c 0
 -218.842 -93.4951 -191.184 -55 -149 -55 c 0
 -124.764 -55 -114.439 -70.6874 -114.439 -89.9923 c 0
 -114.439 -120.869 -140.851 -161 -179 -161 c 0
EndSplineSet
EndChar
StartChar: uni200B
Encoding: 220 8203 187
Width: 798
Flags: W
HStem: 0 60<115 618>
DStem: 115 60 151 -48 47 -183 113 -183 653 -52 750 60 616 -183 682 -183
Fore
682 -183 m 1
 616 -183 l 1
 653 -52 l 2
 654.668 -45.5127 655.512 -39.6437 655.512 -34.3868 c 0
 655.512 -11.2821 639.215 0 605 0 c 2
 215 0 l 2
 181 0 160 -15 151 -48 c 2
 113 -183 l 1
 47 -183 l 1
 115 60 l 1
 750 60 l 1
 682 -183 l 1
EndSplineSet
EndChar
StartChar: uni25CC
Encoding: 221 9676 188
Width: 618
Flags: W
HStem: 5 36<328 338> 41 39<196 207> 52 39<464 475> 134 36<127 137> 146 37<568 579> 276 37<640 650> 283 36<132 142> 412 37<642 653> 501 38<577 587> 508 37<335 345> 544 37<476 486>
Fore
213 453 m 6
334 544 m 6
195 78 m 6
126 169 m 6
464 88 m 6
567 181 m 6
641 447 m 6
577 536 m 6
639 312 m 6
132 318 m 6
476 579 m 6
222 455 m 4,11,12
 231.191 455 235.495 448.018 235.495 440.471 c 0,0,0
 235.495 438.986 235.329 437.48 235 436 c 4,13,14
 232 425 222 416 211 416 c 4,15,16
 203.775 416 199.128 421.8 199.128 429.779 c 0,0,0
 199.128 431.739 199.408 433.831 200 436 c 4,17,18
 202 445 213 455 222 455 c 4,11,12
345 545 m 4,19,20
 353.412 545 359.701 540.047 359.701 531.927 c 0,0,0
 359.701 530.393 359.477 528.747 359 527 c 4,21,22
 357 518 345 508 335 508 c 4,23,24
 327.047 508 320.656 515.808 320.656 523.834 c 0,0,0
 320.656 524.892 320.767 525.953 321 527 c 4,25,26
 324 538 336 545 345 545 c 4,19,20
207 80 m 4,27,28
 214.406 80 219.78 73.9059 219.78 66.1752 c 0,0,0
 219.78 64.5111 219.531 62.7712 219 61 c 4,29,30
 216 51 205 41 196 41 c 4,31,32
 187.752 41 182.225 47.8031 182.225 55.798 c 0,0,0
 182.225 57.4962 182.474 59.2481 183 61 c 4,33,34
 186 71 197 80 207 80 c 4,27,28
137 170 m 4,35,36
 144.406 170 149.78 165.26 149.78 157.452 c 0,0,0
 149.78 155.771 149.531 153.948 149 152 c 4,37,38
 146 141 136 134 127 134 c 4,39,40
 118.113 134 113.143 138.569 113.143 146.124 c 0,0,0
 113.143 147.921 113.424 149.887 114 152 c 4,41,42
 117 163 126 170 137 170 c 4,35,36
475 91 m 4,43,44
 483.333 91 487.5 84.0556 487.5 75.9537 c 0,0,0
 487.5 74.3333 487.333 72.6667 487 71 c 4,45,46
 484 61 474 52 464 52 c 4,47,48
 456.594 52 451.22 58.0941 451.22 65.8248 c 0,0,0
 451.22 67.4889 451.469 69.2288 452 71 c 4,49,50
 454 81 466 91 475 91 c 4,43,44
579 183 m 4,51,52
 587.458 183 592.368 178.271 592.368 171.085 c 0,0,0
 592.368 168.925 591.924 166.542 591 164 c 4,53,54
 589 154 579 146 568 146 c 4,55,56
 560.328 146 555.562 151.814 555.562 159.724 c 0,0,0
 555.562 161.093 555.705 162.525 556 164 c 4,57,58
 560 175 570 183 579 183 c 4,51,52
653 449 m 4,59,60
 661.643 449 665.964 444.061 665.964 436.609 c 0,0,0
 665.964 434.577 665.643 432.357 665 430 c 4,61,62
 662 419 653 412 642 412 c 4,63,64
 634.594 412 629.22 416.74 629.22 424.548 c 0,0,0
 629.22 426.229 629.469 428.052 630 430 c 4,65,66
 633 441 644 449 653 449 c 4,59,60
587 539 m 4,67,68
 595.412 539 601.701 532.632 601.701 524.062 c 0,0,0
 601.701 522.444 601.476 520.747 601 519 c 4,69,70
 598 510 587 501 577 501 c 4,71,72
 569.594 501 564.22 507.094 564.22 514.268 c 0,0,0
 564.22 515.812 564.469 517.406 565 519 c 4,73,74
 568 530 578 539 587 539 c 4,67,68
650 313 m 4,75,76
 658.412 313 664.701 308.047 664.701 299.927 c 0,0,0
 664.701 298.393 664.476 296.747 664 295 c 4,77,78
 661 284 650 276 640 276 c 4,79,80
 632.443 276 626.295 281.641 626.295 289.963 c 0,0,0
 626.295 291.551 626.519 293.237 627 295 c 4,81,82
 630 306 641 313 650 313 c 4,75,76
142 319 m 4,83,84
 150.677 319 156.243 314.644 156.243 307.405 c 0,0,0
 156.243 305.467 155.845 303.323 155 301 c 4,85,86
 153 292 143 283 132 283 c 4,87,88
 123.459 283 118.565 289.565 118.565 297.089 c 0,0,0
 118.565 298.374 118.708 299.687 119 301 c 4,89,90
 123 312 132 319 142 319 c 4,83,84
338 41 m 4,91,92
 346.054 41 350.865 36.4593 350.865 28.9453 c 0,0,0
 350.865 27.1297 350.584 25.1406 350 23 c 4,93,94
 347 12 338 5 328 5 c 4,95,96
 320.442 5 314.295 9.93596 314.295 18.0315 c 0,0,0
 314.295 19.5767 314.519 21.237 315 23 c 4,97,98
 318 34 329 41 338 41 c 4,91,92
486 581 m 4,99,100
 494.918 581 498.578 574.427 498.578 567.143 c 0,0,0
 498.578 565.442 498.379 563.703 498 562 c 4,101,102
 495 551 487 544 476 544 c 4,103,104
 469.294 544 463.291 548.918 463.291 556.988 c 0,0,0
 463.291 558.546 463.515 560.22 464 562 c 4,105,106
 466 571 478 581 486 581 c 4,99,100
EndSplineSet
EndChar
StartChar: uni0E3F
Encoding: 223 3647 189
Width: 717
Flags: W
HStem: -106 144<320 356> 2 18<39 63.3733> 2 36<309 331> 3 17<34 39> 359 40<346 420> 359 363<335 420> 684 38<484 509.986> 707 15<229 243>
DStem: 311 637 415 650 158 88 346 399 311 637 335 359 158 88 263 100 321 2 388 3 293 -106 356 -106 420 359 484 349 331 38 399 45 510 684 574 674 431 399 500 406 550 822 613 822 521 723 587 720
Fore
684 200 m 0x41
 684 200 l 0
 650 77 538 11 388 3 c 1x11
 356 -106 l 1
 293 -106 l 1x80
 321 2 l 1x20
 34 3 l 1x10
 39 20 l 1
 126 20 149 54 158 88 c 2
 311 637 l 2
 312.963 644.197 314.307 651.489 314.307 658.514 c 0
 314.307 683.697 297.026 705.436 229 707 c 1
 233 722 l 1
 265 722 519 723 521 723 c 1
 550 822 l 1
 613 822 l 1
 587 720 l 1
 684.07 709.871 753.353 671.243 753.353 590.283 c 0
 753.353 575.329 750.989 558.93 746 541 c 0
 721 450 650 404 565 382 c 1
 563 376 l 1
 633.269 361.779 690.942 320.965 690.942 247.12 c 0
 690.942 232.69 688.74 217 684 200 c 0x41
643 536 m 0
 643 536 l 0
 647.524 552.804 649.681 568.077 649.681 581.848 c 0
 649.681 631.997 621.074 662.232 574 674 c 1
 500 406 l 1
 570 422 624 467 643 536 c 0
431 399 m 1x0a
 510 684 l 0
 500.526 684.474 491.9 684.748 484.055 684.748 c 0
 442.213 684.748 422.579 676.947 415 650 c 2
 346 399 l 1
 431 399 l 1x0a
331 38 m 0x84
 420 359 l 0x88
 412 359 335 359 335 359 c 1
 263 100 l 2
 260.309 90.2147 258.576 81.5066 258.576 73.9343 c 0
 258.576 50.5528 275.103 38 331 38 c 0x84
572 203 m 0
 576.554 219.211 578.652 233.829 578.652 246.994 c 0
 578.652 306.106 536.343 335.914 484 349 c 1
 399 45 l 1
 479 58 544 100 572 203 c 0
EndSplineSet
EndChar
StartChar: uni0E40
Encoding: 224 3648 190
Width: 321
Flags: W
HStem: -5 40<190 203> 127 39<224 237> 574 20G<258 334>
DStem: 258 594 334 594 123 109 214 164
Fore
334 594 m 1
 214 164 l 1
 214 164 227 166 237 166 c 0
 278.726 166 296.922 138.995 296.922 106.449 c 0
 296.922 57.096 255.081 -5 190 -5 c 0
 190 -5 l 0
 139.433 -5 117.916 30.7073 117.916 72.4601 c 0
 117.916 84.3774 119.669 96.7873 123 109 c 2
 258 594 l 1
 334 594 l 1
201 35 m 0
 237 35 260.4 68.12 260.4 94.616 c 0
 260.4 112.28 250 127 226 127 c 0
 190.508 127 167.32 93.7074 167.32 67.1773 c 0
 167.32 49.6053 177.492 35 201 35 c 0
EndSplineSet
EndChar
StartChar: uni0E41
Encoding: 225 3649 191
Width: 580
Flags: W
HStem: -5 40<190 203 447 460> 127 39<224 237 481 494> 574 20G<258 334 515 591>
DStem: 258 594 334 594 123 109 214 164 515 594 591 594 380 109 471 164
Fore
591 594 m 1
 471 164 l 1
 471 164 486 166 494 166 c 0
 536.217 166 554.641 138.875 554.641 106.232 c 0
 554.641 56.9141 512.588 -5 447 -5 c 0
 447 -5 l 0
 396.433 -5 374.916 30.7073 374.916 72.4601 c 0
 374.916 84.3774 376.669 96.7873 380 109 c 2
 515 594 l 1
 591 594 l 1
334 594 m 1
 214 164 l 1
 214 164 227 166 237 166 c 0
 278.726 166 296.922 138.995 296.922 106.449 c 0
 296.922 57.096 255.081 -5 190 -5 c 0
 190 -5 l 0
 139.433 -5 117.916 30.7073 117.916 72.4601 c 0
 117.916 84.3774 119.669 96.7873 123 109 c 2
 258 594 l 1
 334 594 l 1
458 35 m 0
 458 35 l 0
 494 35 517.4 68.12 517.4 94.616 c 0
 517.4 112.28 507 127 483 127 c 0
 448.016 127 425.038 93.529 425.038 66.9645 c 0
 425.038 49.4876 434.984 35 458 35 c 0
201 35 m 0
 237 35 260.4 68.12 260.4 94.616 c 0
 260.4 112.28 250 127 226 127 c 0
 190.508 127 167.32 93.7074 167.32 67.1773 c 0
 167.32 49.6053 177.492 35 201 35 c 0
EndSplineSet
EndChar
StartChar: uni0E42
Encoding: 226 3650 192
Width: 315
Flags: W
HStem: -5 40<215 228> 127 39<251 262>
DStem: 182 836 241 860 303 757 373 770 322 700 394 694 157 106 247 164
Fore
570 909 m 0
 570 909 l 0
 532.567 843.985 493.679 827.489 463.73 827.489 c 0
 432.874 827.489 411.507 845 411 845 c 0
 359.993 878.841 326.306 891.514 301.207 891.514 c 0
 275.13 891.514 258.325 877.834 241 860 c 1
 373 770 l 2
 382.891 762.391 399.729 750.731 399.729 724.006 c 0
 399.729 715.606 398.066 705.718 394 694 c 1
 247 164 l 1
 251.2 165.8 254.68 166.16 257.44 166.16 c 0
 259.28 166.16 260.8 166 262 166 c 0
 302.452 166 319.922 139.624 319.922 107.59 c 0
 319.922 58.059 278.155 -4.99999 215 -5 c 0
 166.129 -5 149.865 23.093 149.865 59.0259 c 0
 149.865 73.8257 152.624 89.9554 157 106 c 2
 322 700 l 1
 324.35 707.442 326.547 715.038 326.547 722.607 c 0
 326.547 734.361 321.249 746.051 303 757 c 2
 182 836 l 1
 201 862 267 955 342 958 c 0
 343.321 958.081 344.655 958.121 346.002 958.121 c 0
 396.461 958.121 465.146 902.601 519.01 902.601 c 0
 534.493 902.601 548.751 907.189 561 919 c 0
 564.441 921.409 567.526 922.633 569.768 922.633 c 0
 572.064 922.633 573.474 921.349 573.474 918.736 c 0
 573.474 916.485 572.428 913.249 570 909 c 0
226 35 m 0
 260.475 35 283.244 68.6553 283.244 95.2545 c 0
 283.244 112.633 273.525 127 251 127 c 0
 215 127 191.6 93.88 191.6 67.384 c 0
 191.6 49.72 202 35 226 35 c 0
EndSplineSet
EndChar
StartChar: uni0E43
Encoding: 227 3651 193
Width: 345
Flags: W
HStem: -5 40<234 247> 127 37<267 281> 679 40<224 237> 793 36<257 268> 908 50<326 350>
DStem: 373 811 446 808 177 106 267 164
Fore
234 -5 m 0
 234 -5 l 0
 186.668 -5 170.195 23.8009 170.195 60.3793 c 0
 170.195 74.8063 172.757 90.4431 177 106 c 2
 373 811 l 2
 376.352 823.21 378.041 835.018 378.041 845.945 c 0
 378.041 880.66 360.987 906.479 326 908 c 0
 271 908 231 868 212 803 c 1
 231 826 260 829 268 829 c 0
 305.817 829 322.22 805.723 322.22 777.508 c 0
 322.22 734.098 283.395 679 224 679 c 0
 179.864 679 165.483 713.392 165.483 753.83 c 0
 165.483 778.444 170.811 805.298 178 828 c 1
 206 900 268 958 350 958 c 0
 419.92 958 453.426 917.265 453.426 859.069 c 0
 453.426 843.189 450.931 826.008 446 808 c 2
 267 164 l 1
 269 164 276 166 281 166 c 0
 322.236 166 340.204 139.117 340.204 106.67 c 0
 340.204 57.2812 298.575 -5 234 -5 c 0
258 793 m 0
 258 793 l 0
 234 793 217 777 212 756 c 0
 210.723 751.913 209.968 747.5 209.968 743.195 c 0
 209.968 730.642 216.385 719 235 719 c 0
 264.82 719 283.899 746.406 283.899 767.862 c 0
 283.899 781.662 276.006 793 258 793 c 0
245 35 m 0
 281 35 304.4 68.12 304.4 94.616 c 0
 304.4 112.28 294 127 270 127 c 0
 234 127 210.6 93.88 210.6 67.384 c 0
 210.6 49.72 221 35 245 35 c 0
EndSplineSet
EndChar
StartChar: uni0E44
Encoding: 228 3652 194
Width: 384
Flags: W
HStem: -5 40<277 290> 127 37<310 324> 654 37<249 266> 919 39<422 452>
DStem: 243 909 305 931 195 734 247 720 343 866 382 883 303 720 339 730 439 883 507 871 223 106 310 164
Fore
277 -5 m 0
 277 -5 l 0
 231.315 -5 215.763 22.6642 215.763 58.2014 c 0
 215.763 73.2256 218.543 89.6569 223 106 c 2
 439 883 l 2
 440.438 888.271 441.129 893.083 441.129 897.353 c 0
 441.129 910.905 434.166 919 422 919 c 0
 402 919 387 900 382 883 c 2
 339 730 l 2
 328 688 298 654 249 654 c 0
 248.352 653.987 247.709 653.98 247.072 653.98 c 0
 209.631 653.98 190.911 676.68 190.911 707.532 c 0
 190.911 715.856 192.274 724.774 195 734 c 2
 243 909 l 2
 244.556 914.188 246.382 919.376 246.382 925.403 c 0
 246.382 930.992 244.812 937.301 240 945 c 0
 232 957 227 958 217 971 c 1
 215.762 973.122 215.212 975.151 215.212 977.003 c 0
 215.212 982.653 220.331 986.656 226.641 986.656 c 0
 229.955 986.656 233.598 985.551 237 983 c 1
 295 962 l 1
 304.902 954.428 307.679 948.891 307.679 943.414 c 0
 307.679 939.488 306.253 935.593 305 931 c 2
 247 720 l 2
 245.94 716.395 245.419 713.014 245.419 709.925 c 0
 245.419 698.45 252.605 691 266 691 c 0
 282 691 298 702 303 720 c 2
 343 866 l 2
 357 917 394 958 452 958 c 0
 495.547 958 511.078 932.318 511.078 901.021 c 0
 511.078 891.352 509.596 881.148 507 871 c 2
 310 164 l 1
 315 164 322 166 324 166 c 0
 365.872 166 384.208 138.806 384.208 106.107 c 0
 384.208 56.8095 342.532 -5 277 -5 c 0
288 35 m 0
 325.015 35 348.842 67.7909 348.842 94.2196 c 0
 348.842 112.059 337.985 127 313 127 c 0
 277.508 127 254.32 93.7074 254.32 67.1773 c 0
 254.32 49.6053 264.492 35 288 35 c 0
EndSplineSet
EndChar
StartChar: uni0E45
Encoding: 229 3653 195
Width: 289
Flags: W
HStem: 558 44<182 203>
DStem: 244 459 323 464 50 -240 127 -240
Fore
50 -240 m 1
 244 459 l 2
 247.534 471.369 249.312 483.103 249.312 493.88 c 0
 249.312 531.897 227.19 558 182 558 c 0
 117 558 58 516 39 499 c 1
 51 542 l 1
 74 562 129 602 203 602 c 0
 284.517 602 330.151 572.762 330.151 511.035 c 0
 330.151 497.039 327.805 481.374 323 464 c 2
 127 -240 l 1
 50 -240 l 1
EndSplineSet
EndChar
StartChar: uni0E46
Encoding: 230 3654 196
Width: 670
Flags: W
HStem: 263 32<395 407> 382 34<425 438>
DStem: 621 464 695 464 425 -240 499 -240
Fore
425 -240 m 0
 621 464 l 2
 624.213 475.682 625.719 485.147 625.719 492.842 c 0
 625.719 511.495 616.867 519.752 602 524 c 1
 513 455 l 1
 504 468 463 524 463 524 c 1
 412 499 382 429 381 399 c 1
 381 399 411 416 438 416 c 0
 477.286 414.81 494.211 390.47 494.211 361.542 c 0
 494.211 317.572 455.11 263 396 263 c 0
 341.669 263 323.76 300.278 323.76 346.787 c 0
 323.76 371.328 328.746 398.44 336 424 c 0
 351 479 408 565 484 598 c 1
 533 528 l 1
 623 599 l 1
 684.611 598.3 703.577 563.287 703.577 520.73 c 0
 703.577 502.503 700.098 482.892 695 464 c 2
 499 -240 l 1
 425 -240 l 0
405 295 m 0
 439.255 295 461.592 326.421 461.592 351.498 c 0
 461.592 368.147 451.745 382 429 382 c 0
 395.761 382 373.845 350.225 373.845 325.081 c 0
 373.845 308.62 383.239 295 405 295 c 0
EndSplineSet
EndChar
StartChar: uni0E47
Encoding: 231 3655 197
Width: 0
Flags: W
HStem: 668 94<-186 -185.663> 757 57<-126 -113>
AnchorPoint: "AboveMark" -97.9551 645.12 mark 0
AnchorPoint: "AboveBase" 54.3926 645.12 mark 0
Fore
213 1028 m 1x80
 213 1028 l 0
 187.89 936.768 126.352 886.168 24.8672 886.168 c 0
 5.10202 886.168 -16.1784 888.088 -39 892 c 0
 -58.3418 895.81 -75.6225 898.331 -91.1439 898.331 c 0
 -128.586 898.331 -155.792 883.658 -177 837 c 0
 -185.763 817.596 -189.041 797.409 -189.041 782.323 c 0
 -189.041 773.308 -187.87 766.115 -186 762 c 1x80
 -186 762 -170 814 -113 814 c 0x40
 -53 814 -53 753 -30 739 c 1
 -30 739 -30.16 740.44 -30.16 742.68 c 0
 -30.16 746.04 -29.8 751.2 -28 756 c 0
 -13.6702 808.378 29.9596 834.386 66.9356 834.386 c 0
 98.2097 834.386 124.724 815.781 124.724 778.789 c 0
 124.724 771.006 123.55 762.409 121 753 c 0
 105.267 696.951 55.6912 667.975 22.6657 667.975 c 0
 22.1056 667.975 21.5503 667.983 21 668 c 0x80
 -89.7418 670.966 -71.4327 757.034 -124.175 757.034 c 0
 -124.774 757.034 -125.382 757.022 -126 757 c 0x40
 -162.695 756.185 -180.771 708.823 -180.771 682.151 c 0
 -180.771 676.114 -179.846 671.137 -178 668 c 1
 -217 668 l 1
 -235.088 688.915 -247.745 723.569 -247.745 764.197 c 0
 -247.745 795.442 -240.259 830.221 -222 865 c 0
 -200.782 904.041 -162.997 947.404 -67.6849 947.404 c 0
 -50.6951 947.404 -31.8775 946.026 -11 943 c 0
 9.30407 940.099 27.388 938.134 43.407 938.134 c 0
 93.6603 938.134 123.593 957.48 138 1028 c 1
 213 1028 l 1x80
84 753 m 0
 85.2756 757.762 85.8641 762.119 85.8641 766.071 c 0
 85.8641 785.357 71.8485 795 55.25 795 c 0
 35.25 795 11.5 781 4 753 c 0
 2.72445 748.408 2.13586 744.206 2.13586 740.396 c 0
 2.13586 721.799 16.1515 712.5 32.75 712.5 c 0
 52.75 712.5 76.5 726 84 753 c 0
EndSplineSet
EndChar
StartChar: uni0E48
Encoding: 232 3656 198
Width: 0
Flags: W
DStem: 167 1210 239 1210 111 1009 183 1009
AnchorPoint: "AboveMark" 135.057 967.68 mark 0
Fore
239 1210 m 1
 183 1009 l 1
 111 1009 l 1
 167 1210 l 1
 239 1210 l 1
EndSplineSet
Substitution: 0 65534 'loww' uni0E48.low
Substitution: 0 65534 'amni' uni0E4D
EndChar
StartChar: uni0E49
Encoding: 233 3657 199
Width: 0
Flags: W
HStem: 1063 37<106 117> 1184 34<138 150>
AnchorPoint: "AboveMark" 215.626 967.68 mark 0
Fore
464 1213 m 1
 464 1213 l 0
 403.163 1060.47 245.932 973.235 97.8583 973.235 c 0
 77.989 973.235 58.2845 974.806 39 978 c 1
 48 1008 l 1
 58 1011 100 1032 123 1066 c 1
 123 1066 l 1
 123 1066 117 1063 107 1063 c 0
 66.4584 1063 48.9819 1087.49 48.9819 1117 c 0
 48.9819 1161.73 89.1441 1218 150 1218 c 0
 198.89 1218 206.963 1184.36 206.963 1162.14 c 0
 206.963 1151.18 205 1143 205 1143 c 1
 182 1061 128 1021 128 1021 c 1
 123 1017 l 1
 213 1025 348 1087 388 1213 c 1
 464 1213 l 1
117 1100 m 0
 149.51 1100 170.785 1130.45 170.785 1154.68 c 0
 170.785 1170.7 161.49 1184 140 1184 c 0
 105.967 1184 84.0544 1154.05 84.0544 1129.92 c 0
 84.0544 1113.64 94.0333 1100 117 1100 c 0
EndSplineSet
Substitution: 0 65534 'loww' uni0E49.low
Substitution: 0 65534 'amni' uni0E4D
EndChar
StartChar: uni0E4A
Encoding: 234 3658 200
Width: 0
Flags: W
HStem: 1172 54<152 167>
AnchorPoint: "AboveMark" 165.819 967.68 mark 0
Fore
456 1229 m 1
 456 1229 l 0
 426 1091 330 1009 209 992 c 5
 216 1017 l 1
 256.034 1038.95 280.225 1091.35 280.225 1129.48 c 0
 280.225 1150.41 272.943 1167.04 257 1172 c 1
 193 1134 l 1
 152 1172 l 1
 117 1172 78 1129 74 1091 c 1
 74 1091 92 1123 138 1123 c 0
 168.673 1123 186.288 1101.7 186.288 1076.18 c 0
 186.288 1070.91 185.539 1065.47 184 1060 c 0
 173 1020 142 989 101 989 c 0
 55.4515 989 31.8022 1020.12 31.8022 1066.61 c 0
 31.8022 1081.36 34.1828 1097.66 39 1115 c 0
 53 1166 118 1226 167 1226 c 1
 167 1226 206 1180 207 1180 c 2
 270 1224 l 1
 316.659 1210.73 332.139 1182.4 332.139 1151.45 c 0
 332.139 1114.73 310.362 1074.33 293 1051 c 1
 357 1089 392 1157 395 1229 c 1
 456 1229 l 1
154 1055 m 0
 155.23 1059.48 155.796 1063.57 155.796 1067.26 c 0
 155.796 1084.59 143.337 1093.25 128.5 1093.25 c 0
 110.5 1093.25 89 1080.5 82 1055 c 0
 80.77 1050.69 80.2038 1046.77 80.2038 1043.22 c 0
 80.2038 1026.57 92.6629 1018.25 107.5 1018.25 c 0
 125.5 1018.25 147 1030.5 154 1055 c 0
EndSplineSet
Substitution: 0 65534 'loww' uni0E4A.low
Substitution: 0 65534 'amni' uni0E4D
EndChar
StartChar: uni0E4B
Encoding: 235 3659 201
Width: 0
Flags: W
HStem: 1080 58<48 134 209 291>
DStem: 134 1080 191 1080 111 992 165 992 149 1140 209 1140 48 1138 307 1138 172 1229 235 1229 149 1140 209 1140
AnchorPoint: "AboveMark" 129.197 967.68 mark 0
Fore
291 1081 m 5
 191 1080 l 1
 165 992 l 1
 111 992 l 1
 134 1080 l 1
 32 1081 l 1
 48 1138 l 1
 149 1140 l 1
 172 1229 l 1
 235 1229 l 1
 209 1140 l 1
 307 1138 l 1
 291 1081 l 5
EndSplineSet
MinimumDistance: x6,11 x5,0 
Substitution: 0 65534 'loww' uni0E4B.low
Substitution: 0 65534 'amni' uni0E4D
EndChar
StartChar: uni0E4C
Encoding: 236 3660 202
Width: 0
Flags: W
HStem: 902 29<87 98>
AnchorPoint: "AboveMark" 84.4609 890.88 mark 0
Fore
361 1143 m 1
 361 1143 l 0
 301.215 1044.99 158.822 1041.12 158.822 1038.18 c 0
 158.822 1038.12 158.88 1038.06 159 1038 c 0
 175.452 1029.33 182.688 1013.67 182.688 995.989 c 0
 182.688 954.56 142.967 902 89 902 c 4
 50.9455 902 30.5913 921.667 30.5913 951.977 c 0
 30.5913 959.103 31.716 966.816 34 975 c 0
 51 1035 107 1069 179 1081 c 0
 205 1086 293 1118 311 1172 c 1
 361 1143 l 1
96 931 m 0
 128.002 931 149.067 961.261 149.067 985.239 c 0
 149.067 1000.97 139.998 1014 119 1014 c 0
 86.4895 1014 65.2153 983.916 65.2153 959.972 c 0
 65.2153 944.145 74.5105 931 96 931 c 0
EndSplineSet
Substitution: 0 65534 'loww' uni0E4C.low
EndChar
StartChar: uni0E4D
Encoding: 237 3661 203
Width: 0
Flags: W
HStem: 668 43<51 65> 813 46<89 104>
AnchorPoint: "AboveMark" 44.1377 645.12 mark 0
AnchorPoint: "AboveMark" 133.592 967.68 basemark 0
AnchorPoint: "AboveBase" 77.8311 645.12 mark 0
Fore
51 668 m 0
 51 668 l 0
 2.1862 668 -18.908 698.082 -18.908 734.37 c 0
 -18.908 789.518 29.8138 859 104 859 c 0
 151.34 859 171.756 829.275 171.756 793.277 c 0
 171.756 738.027 123.66 668 51 668 c 0
124 762 m 0
 125.411 767.115 126.076 772.013 126.076 776.61 c 0
 126.076 798.077 111.59 813 91 813 c 0
 63 813 36 791 28 762 c 0
 26.799 757.196 26.2162 752.539 26.2162 748.12 c 0
 26.2162 726.785 39.804 711 63 711 c 0
 88 711 117 734 124 762 c 0
EndSplineSet
Substitution: 0 65534 'G006' uni0E4B
Substitution: 0 65534 'G005' uni0E4A
Substitution: 0 65534 'G004' uni0E49
Substitution: 0 65534 'G003' uni0E48
EndChar
StartChar: uni0E4E
Encoding: 238 3662 204
Width: 0
Flags: W
AnchorPoint: "AboveBase" 77.8311 645.12 mark 0
Fore
327 865 m 2
 307.757 881.91 288.939 888.705 272.108 888.705 c 0
 234.256 888.705 206.451 854.341 206.451 823.386 c 0
 206.451 820.896 206.631 818.427 207 816 c 1
 207 816 207.5 813.25 207.5 809.875 c 0
 207.5 806.5 207 802.5 205 800 c 0
 194.536 788.584 159.636 761.784 144.21 761.784 c 0
 143.42 761.784 142.682 761.854 142 762 c 0
 139 762 136 765 136 765 c 1
 123.464 784.241 106.339 792.263 89.0348 792.263 c 0
 54.0481 792.263 18.3289 759.469 18.3289 720.297 c 0
 18.3289 712.385 19.7859 704.214 23 696 c 1
 23 696 25.3934 691.612 25.3934 687.119 c 0
 25.3934 684.499 24.5789 681.842 22 680 c 0
 12 674 -21 654 -30 651 c 0
 -30.4 650.933 -30.7911 650.902 -31.1727 650.902 c 0
 -36.5156 650.902 -40 657 -40 657 c 1
 -47.6379 671.07 -51.0563 685.786 -51.0563 700.489 c 0
 -51.0563 769.642 24.5575 838.511 92.4325 838.511 c 0
 117.827 838.511 142.137 828.871 161 806 c 1
 162 808 l 1
 161.199 813.007 160.814 817.944 160.814 822.796 c 0
 160.814 885.781 225.701 934.308 287.062 934.308 c 0
 315.362 934.308 342.912 923.986 363 900 c 1
 363 900 363.16 899.52 363.16 898.624 c 0
 363.16 897.28 362.8 895 361 892 c 0
 357.097 882.242 342.721 862.964 330.878 862.964 c 0
 330.584 862.964 330.291 862.976 330 863 c 0
 329 863 327 865 327 865 c 2
EndSplineSet
EndChar
StartChar: uni0E4F
Encoding: 239 3663 205
Width: 702
Flags: W
HStem: -2 54<347 376> 164 43<397 413> 382 47<456 471> 539 55<491 519>
Fore
762 296 m 0
 762 296 l 0
 708 101 504 -2 351 -2 c 0
 216.233 -2 92.3788 72.9361 92.3788 215.982 c 0
 92.3788 240.642 96.0596 267.327 104 296 c 0
 158 492 359 594 517 594 c 0
 647.789 594 773.463 519.465 773.463 375.392 c 0
 773.463 350.925 769.839 324.453 762 296 c 0
665 296 m 0
 665 296 l 0
 671.461 319.401 674.538 342.04 674.538 363.468 c 0
 674.538 464.746 605.821 539 501 539 c 0
 370 539 237 430 200 296 c 0
 193.455 272.472 190.32 249.632 190.32 227.974 c 0
 190.32 127.201 258.174 52 366 52 c 0
 493 52 628 163 665 296 c 0
561 296 m 0
 561 296 l 0
 539 218 464 164 397 164 c 0
 337.158 164 298.148 200.287 298.148 256.336 c 0
 298.148 268.661 300.034 281.94 304 296 c 0
 326 376 398 429 471 429 c 0
 526.316 429 566.636 392.874 566.636 335.253 c 0
 566.636 323.082 564.837 309.951 561 296 c 0
494 296 m 0
 497.807 309.178 499.899 322.013 499.899 333.575 c 0
 499.899 361.497 487.701 382 458 382 c 0
 415 382 387 341 374 296 c 0
 370.314 282.484 368.137 268.874 368.137 256.503 c 0
 368.137 228.6 379.209 207 409 207 c 0
 451 207 482 252 494 296 c 0
EndSplineSet
EndChar
StartChar: uni0E50
Encoding: 240 3664 206
Width: 615
Flags: W
HStem: -8 45<304 330> 430 45<424 442>
Fore
625 232 m 0
 625 232 l 0
 587 92 444 -8 306 -8 c 0
 185.757 -8 105.258 59.6338 105.258 165.79 c 0
 105.258 186.765 108.401 209.243 115 233 c 0
 153 373 296 475 440 475 c 0
 555.39 475 634.424 403.685 634.424 297.886 c 0
 634.424 277.155 631.39 255.101 625 232 c 0
549 233 m 0
 554.41 252.902 557.058 272.468 557.058 291.085 c 0
 557.058 368.817 510.905 430 427 430 c 0
 319 430 221 341 190 232 c 0
 184.738 212.767 182.209 194.094 182.209 176.411 c 0
 182.209 96.6334 233.688 37 318 37 c 0
 420 37 521 132 549 233 c 0
EndSplineSet
EndChar
StartChar: uni0E51
Encoding: 241 3665 207
Width: 615
Flags: W
HStem: 95 46<313 329.5> 430 45<419 442>
Fore
630 232 m 0
 630 232 l 0
 595 104 495 0 373 -29 c 1
 345 -14 l 1
 481 32 531 146 556 233 c 0
 561.888 254.413 564.657 274.456 564.657 292.938 c 0
 564.657 378.028 505.978 430 423 430 c 0
 323 430 223 352 189 232 c 0
 180.562 201.515 176.847 175.03 176.847 152.312 c 0
 176.847 75.7671 219.018 41.9782 264.793 41.9782 c 0
 305.26 41.9782 348.543 68.3836 368 115 c 1
 368 115 351 95 313 95 c 0
 272.934 95 253.416 121.968 253.416 155.324 c 0
 253.416 163.595 254.616 172.258 257 181 c 0
 271 230 315 269 367 269 c 0
 417.809 269 439.289 237.37 439.289 195.043 c 0
 439.289 181.556 437.108 166.982 433 152 c 0
 404.192 48.6565 317.673 -5.54898 240.086 -5.54898 c 0
 166.127 -5.54898 100.284 43.7064 100.284 146.607 c 0
 100.284 171.827 104.239 200.27 113 232 c 0
 156 386 301 475 436 475 c 0
 549.203 475 639.568 410.055 639.568 298.251 c 0
 639.568 277.712 636.518 255.59 630 232 c 0
381 183 m 0
 382.29 187.73 382.885 192.054 382.885 195.97 c 0
 382.885 214.823 369.103 224.25 352.75 224.25 c 0
 333 224.25 309.5 210.5 302 183 c 0
 300.542 177.898 299.873 173.26 299.873 169.088 c 0
 299.873 150.363 313.349 141 329.5 141 c 0
 349.25 141 373 155 381 183 c 0
EndSplineSet
EndChar
StartChar: uni0E52
Encoding: 242 3666 208
Width: 615
Flags: W
HStem: 0 45<197 468>
DStem: 199 551 270 551 81 126 151 124
Fore
637 232 m 0
 637 232 l 0
 623 180 613 146 595 104 c 0
 568 46 544 0 450 0 c 2
 185 0 l 2
 107.663 0 74.8229 34.3261 74.8229 84.7331 c 0
 74.8229 97.5492 76.9458 111.405 81 126 c 2
 199 551 l 2
 215.095 608.571 218.161 638.168 218.161 652.362 c 0
 218.161 661.097 217 664 217 664 c 1
 218.182 687.045 227.744 694.029 237.639 694.029 c 0
 244.49 694.029 251.5 690.682 256 687 c 1
 279 641 l 1
 279 641 281.63 636.003 281.63 621.559 c 0
 281.63 607.838 279.256 585.59 270 551 c 2
 151 124 l 2
 148.635 114.903 147.527 106.501 147.527 98.8424 c 0
 147.527 64.4074 169.914 45 201 45 c 2
 455 45 l 2
 494 45 512 71 523 95 c 0
 551 166 547 160 568 233 c 0
 580.975 280.951 592.041 328.584 592.041 362.793 c 0
 592.041 389.224 585.435 407.641 568 412 c 0
 566.789 412.251 565.548 412.372 564.281 412.372 c 0
 535.21 412.372 492.332 348.413 477 312 c 0
 467.776 293.039 453.036 282.481 441.664 282.481 c 0
 432.405 282.481 425.379 289.48 425.379 304.638 c 0
 425.379 307.192 425.578 309.978 426 313 c 0
 426.763 318.952 427.153 325.532 427.153 332.39 c 0
 427.153 368.539 416.305 412.382 392.006 412.382 c 0
 390.709 412.382 389.374 412.258 388 412 c 0
 352 404 309 327 300 235 c 1
 300 235 316 253 347 253 c 0
 388.825 251.827 406.661 225.597 406.661 194.078 c 0
 406.661 144.961 363.348 83 300 83 c 0
 243.17 83 225.399 122.058 225.399 168.611 c 0
 225.399 173.666 225.608 178.809 226 184 c 0
 239.831 350.964 321.01 472.054 398.179 472.054 c 0
 399.12 472.054 400.06 472.036 401 472 c 0
 448.221 470.343 463.872 422.703 463.872 385.368 c 0
 463.872 377.637 463.201 370.348 462 364 c 1
 467 364 l 1
 483 401 532 470 593 472 c 0
 594.03 472.006 l 0
 642.333 472.006 660.432 431.117 660.432 373.354 c 0
 660.432 331.956 651.136 281.892 637 232 c 0
361 166 m 0
 362.442 171.136 363.104 175.808 363.104 180.019 c 0
 363.104 199.173 349.396 208.75 333 208.75 c 0
 313 208.75 289 194.5 281 166 c 0
 279.724 161.408 279.136 157.207 279.136 153.395 c 0
 279.136 134.798 293.151 125.5 309.75 125.5 c 0
 329.75 125.5 353.5 139 361 166 c 0
EndSplineSet
EndChar
StartChar: uni0E53
Encoding: 243 3667 209
Width: 615
Flags: W
HStem: -8 21G<155 207> 412 61<314 331>
Fore
521 412 m 0
 521 412 l 0
 473 406 424 316 402 238 c 0
 398 223 395 214 391 197 c 0
 385.538 178.627 371.445 169.624 359.864 169.624 c 0
 350.384 169.624 342.588 175.657 342.588 187.522 c 0
 342.588 190.351 343.031 193.511 344 197 c 0
 348 212 351 223 355 237 c 0
 363.655 268.53 367.628 297.288 367.628 321.977 c 0
 367.628 377.155 347.781 412 316 412 c 0
 270 412 191 352 169 137 c 1
 169 137 195 163 230 163 c 0
 268.635 163 289.778 137.085 289.778 102.985 c 0
 289.778 94.7203 288.536 85.9743 286 77 c 0
 274 31 231 -8 183 -8 c 0
 127 -8 99 32 96 86 c 0
 95.5032 93.6174 95.2532 101.573 95.2532 109.806 c 0
 95.2532 250.73 168.494 473 331 473 c 0
 408 473 412 370 412 370 c 1
 414 370 l 1
 459 450 505 473 552 473 c 0
 623.125 473 654.243 426.676 654.243 353.158 c 0
 654.243 266.463 610.97 141.953 539 11 c 1
 495 0 l 2
 490.409 -0.655791 485.066 -1.74164 480.522 -1.74164 c 0
 474.738 -1.74164 470.248 0.0168836 470.248 6.65816 c 0
 470.248 10.7139 471.923 16.5907 476 25 c 0
 547.639 167.732 578.307 272.782 578.307 337.206 c 0
 578.307 386.9 560.06 412.422 528.295 412.422 c 0
 525.937 412.422 523.505 412.282 521 412 c 0
245 75 m 0
 246.442 80.1356 247.104 84.8085 247.104 89.0186 c 0
 247.104 108.173 233.396 117.75 217 117.75 c 0
 197 117.75 173 103.5 165 75 c 0
 163.724 70.323 163.136 66.0437 163.136 62.1621 c 0
 163.136 43.2207 177.151 33.75 193.75 33.75 c 0
 213.75 33.75 237.5 47.5 245 75 c 0
EndSplineSet
EndChar
StartChar: uni0E54
Encoding: 244 3668 210
Width: 615
Flags: W
HStem: 421 47<473 492> 424 48<387 409>
Fore
462 257 m 0x00
 462 257 l 0
 463.442 261.955 464.104 266.464 464.104 270.527 c 0
 464.104 289.009 450.396 298.25 434 298.25 c 0
 414 298.25 390 284.5 382 257 c 0
 380.558 251.864 379.896 247.192 379.896 242.981 c 0
 379.896 223.827 393.604 214.25 410 214.25 c 0
 430 214.25 454 228.5 462 257 c 0x00
548 46 m 0
 554 46 571 49 577 49 c 0
 584.143 49 586.439 46.449 586.439 43.1691 c 0
 586.439 37.2653 579 29 579 29 c 1
 555 0 l 1
 555 0 470 0 386 3 c 0
 381.127 3.24366 376.372 3.35374 371.709 3.35374 c 0
 338.099 3.35374 309.249 -2.36549 275 -5 c 0
 271.452 -5.19008 267.927 -5.28481 264.429 -5.28481 c 0
 177.546 -5.28481 107.077 53.1463 107.077 160.756 c 0
 107.077 185.589 110.83 213.042 119 243 c 0
 162 398 293 472 409 472 c 0x40
 446 472 453 468 480 468 c 0
 570 468 657 536 699 690 c 1
 760 670 l 2
 763.536 668.586 767.071 666.172 767.071 659.929 c 0
 767.071 657.343 766.464 654.101 765 650 c 0
 720 519 614 421 473 421 c 0x80
 456 421 426 424 408 424 c 0x40
 293 424 222 329 196 243 c 0
 187.894 213.547 183.219 184.824 183.219 158.784 c 0
 183.219 92.9731 213.078 44.3021 292.861 44.3021 c 0
 298.337 44.3021 304.048 44.5313 310 45 c 0
 324 46 332 48 347 48 c 0
 368 48 390 45 390 45 c 1
 346.008 64.5519 304.007 115.297 304.007 184.799 c 0
 304.007 200.61 306.181 217.393 311 235 c 0
 330.825 304.861 390.757 344.419 441.994 344.419 c 0
 445.03 344.419 448.035 344.28 451 344 c 0
 488.109 340.052 508.387 317.402 508.387 282.449 c 0
 508.387 273.133 506.946 262.943 504 252 c 0
 490.814 203.65 441.135 169.254 400.567 169.254 c 0
 385.758 169.254 372.162 173.838 362 184 c 1
 361.356 181.776 361.041 179.309 361.041 176.637 c 0
 361.041 135.444 435.879 45.4742 534.899 45.4742 c 0
 539.221 45.4742 543.59 45.6456 548 46 c 0
EndSplineSet
EndChar
StartChar: uni0E55
Encoding: 245 3669 211
Width: 615
Flags: W
HStem: 567 44<481 497>
Fore
462 257 m 0
 462 257 l 0
 463.442 261.955 464.104 266.464 464.104 270.527 c 0
 464.104 289.009 450.396 298.25 434 298.25 c 0
 414 298.25 390 284.5 382 257 c 0
 380.558 251.864 379.896 247.192 379.896 242.981 c 0
 379.896 223.827 393.604 214.25 410 214.25 c 0
 430 214.25 454 228.5 462 257 c 0
524 507 m 0
 524 507 l 0
 525.951 514.093 526.848 520.557 526.848 526.392 c 0
 526.848 553.464 507.535 567 484.5 567 c 0
 456.5 567 423 547 412 507 c 0
 409.646 499.545 408.831 493.475 408.831 488.369 c 0
 408.831 480.46 410.785 474.861 412 470 c 1
 421.603 468.691 435.778 467.953 450.618 467.953 c 0
 469.775 467.953 490.039 469.182 503 472 c 1
 513 481 519 492 524 507 c 0
697 690 m 1
 760 670 l 2
 763.536 668.586 767.071 666.172 767.071 659.929 c 0
 767.071 657.343 766.464 654.101 765 650 c 0
 719 515 606 422 480 421 c 0
 461 421 425 422 407 422 c 0
 292 422 222 329 196 243 c 0
 187.894 213.547 183.219 184.824 183.219 158.784 c 0
 183.219 92.9731 213.078 44.3021 292.861 44.3021 c 0
 298.337 44.3021 304.048 44.5313 310 45 c 0
 324 46 332 48 347 48 c 0
 368 48 392 43 392 43 c 1
 347.756 63.4832 304.184 115.517 304.184 185.902 c 0
 304.184 201.423 306.303 217.836 311 235 c 0
 330.825 304.861 390.757 344.419 441.994 344.419 c 0
 445.03 344.419 448.035 344.28 451 344 c 0
 488.109 340.052 508.387 317.402 508.387 282.449 c 0
 508.387 273.133 506.946 262.943 504 252 c 0
 490.814 203.65 441.135 169.254 400.567 169.254 c 0
 385.758 169.254 372.162 173.838 362 184 c 1
 361.356 181.776 361.041 179.309 361.041 176.637 c 0
 361.041 135.444 435.879 45.4742 534.899 45.4742 c 0
 539.221 45.4742 543.59 45.6456 548 46 c 0
 554 46 571 49 577 49 c 0
 584.143 49 586.439 46.449 586.439 43.1691 c 0
 586.439 37.2653 579 29 579 29 c 1
 555 0 l 1
 555 0 470 0 386 3 c 0
 381.127 3.24366 376.372 3.35374 371.709 3.35374 c 0
 338.099 3.35374 309.249 -2.36549 275 -5 c 0
 271.452 -5.19008 267.927 -5.28481 264.429 -5.28481 c 0
 177.546 -5.28481 107.077 53.1463 107.077 160.756 c 0
 107.077 185.589 110.83 213.042 119 243 c 0
 160 390 277 456 367 468 c 1
 365.845 474.351 364.691 481.368 364.691 488.668 c 0
 364.691 494.011 365.309 499.506 367 505 c 0
 385 570 440 611 497 611 c 0
 545.324 611 574.188 583.107 574.188 539.338 c 0
 574.188 528.762 572.503 517.26 569 505 c 0
 567 496 564 490 558 485 c 1
 597 508 663 553 697 690 c 1
EndSplineSet
EndChar
StartChar: uni0E56
Encoding: 246 3670 212
Width: 615
Flags: W
HStem: -8 45<290 324> 430 45<402 426>
Fore
424 475 m 0
 424 475 l 0
 547.8 475 629.488 410.108 629.488 301.545 c 0
 629.488 279.447 626.103 255.539 619 230 c 0
 581 94 467 -8 294 -8 c 0
 164.956 -8 115.623 55.4166 115.623 122.733 c 0
 115.623 198.872 178.734 280 261 280 c 0
 301.062 280 321.864 253.037 321.864 217.628 c 0
 321.864 208.844 320.584 199.541 318 190 c 0
 305 146 266 104 214 104 c 0
 187 104 180 120 180 120 c 1
 179.81 118.178 179.717 116.375 179.717 114.591 c 0
 179.717 69.3933 239.619 37 306 37 c 0
 412 37 512 118 543 230 c 0
 548.995 251.619 551.822 271.984 551.822 290.837 c 0
 551.822 375.758 494.469 430 411 430 c 0
 370 430 310 419 262 393 c 0
 259.202 391.493 255.57 390.635 251.742 390.635 c 0
 241.12 390.635 228.992 397.241 228.992 414.928 c 0
 228.992 420.48 230.188 427.125 233 435 c 1
 248.443 491.11 255.142 535.825 255.142 574.739 c 0
 255.142 611.42 249.19 642.945 239 674 c 0
 238.776 675.344 238.602 676.939 238.602 678.605 c 0
 238.602 684.376 240.688 691 250 691 c 2
 324 691 l 1
 327.093 680.561 329.738 659.21 329.738 630.53 c 0
 329.738 585.03 323.081 521.084 301 453 c 1
 332 468 383 475 424 475 c 0
277 192 m 0
 278.276 196.677 278.864 200.956 278.864 204.838 c 0
 278.864 223.779 264.849 233.25 248.25 233.25 c 0
 228.25 233.25 204.5 219.5 197 192 c 0
 195.558 186.864 194.896 182.192 194.896 177.981 c 0
 194.896 158.827 208.604 149.25 225 149.25 c 0
 245 149.25 269 163.5 277 192 c 0
EndSplineSet
EndChar
StartChar: uni0E57
Encoding: 247 3671 213
Width: 615
Flags: W
HStem: -8 21G<133.5 189.5> 671 21G<746 746>
Fore
746 671 m 0
 746 671 l 0
 746.436 662.242 746.65 653.292 746.65 644.172 c 0
 746.65 402.325 596.004 41.3648 437 -2 c 1
 437 -2 424.16 -5.16049 411.387 -5.16049 c 0
 398.744 -5.16049 386.165 -2.06417 386.165 10.2579 c 0
 386.165 13.4973 387.034 17.3742 389 22 c 1
 389 22 427 97 449 146 c 0
 493.933 248.077 509.526 315.327 509.526 357.42 c 0
 509.526 401.511 492.417 418 474 418 c 0
 434 418 397 366 377 326 c 0
 371 312 362 287 358 275 c 0
 351.41 257.257 338.395 247.995 327.944 247.995 c 0
 319.27 247.995 312.363 254.376 312.363 267.586 c 0
 312.363 269.855 312.566 272.326 313 275 c 0
 317 290 322 313 323 327 c 0
 323.487 332.236 323.737 337.545 323.737 342.833 c 0
 323.737 380.977 310.738 418 280 418 c 0
 248 418 173 367 148 138 c 1
 148 138 176 163 212 163 c 0
 250.283 163 271.316 137.125 271.316 102.668 c 0
 271.316 94.8221 270.226 86.5315 268 78 c 0
 255 32 214 -8 165 -8 c 0
 102 -8 79 38 78 94 c 0
 80 281 160 465 297 472 c 0
 297.416 472.011 297.831 472.016 298.246 472.016 c 0
 331.94 472.016 358.607 436.805 358.607 384.714 c 0
 358.607 377.454 358.089 369.866 357 362 c 1
 362 362 l 1
 387.723 426.306 447.702 472.016 487.712 472.016 c 0
 488.144 472.016 488.573 472.011 489 472 c 0
 544.632 468.808 572.401 429.435 572.401 365.544 c 0
 572.401 289.323 532.88 178.208 454 52 c 1
 454 52 492 68 519 109 c 0
 604.008 232.971 672.55 411.829 672.55 577.531 c 0
 672.55 598.956 671.404 620.162 669 641 c 1
 716 687 l 2
 722.928 693.928 729.43 699.363 734.618 699.363 c 0
 740.662 699.363 744.924 691.986 746 671 c 0
225 75 m 0
 226.458 80.1935 227.127 84.9138 227.127 89.1609 c 0
 227.127 108.22 213.651 117.75 197.5 117.75 c 0
 177.75 117.75 154 103.5 146 75 c 0
 144.71 70.2698 144.115 65.9464 144.115 62.0299 c 0
 144.115 43.1766 157.897 33.75 174.25 33.75 c 0
 194 33.75 217.5 47.5 225 75 c 0
EndSplineSet
EndChar
StartChar: uni0E58
Encoding: 248 3672 214
Width: 615
Flags: W
HStem: -3 21G<409.748 468> 289 47<554 569> 421 47<477 494> 424 49<391 407>
Fore
637 240 m 0xd0
 637 240 l 0
 602 71 503 -3 433 -3 c 0
 386.496 -3 309.601 4.19803 309.601 110.146 c 0
 309.601 122.667 310.675 136.568 313 152 c 1
 285 134 243 48 222 -6 c 1
 221.216 -6.02528 220.426 -6.03794 219.63 -6.03794 c 0
 168.905 -6.03794 93.187 45.3139 93.187 157.41 c 0
 93.187 182.79 97.0684 211.284 106 243 c 0
 151 398 278 473 393 473 c 0xd0
 421 473 455 468 477 468 c 0
 559 468 647 542 685 690 c 1
 746 668 l 2
 751.028 667.282 755.024 664.5 755.024 657.802 c 0
 755.024 655.175 754.409 651.945 753 648 c 0
 707 519 593 421 480 421 c 0xe0
 453 421 430 424 407 424 c 0
 287 424 209 338 182 241 c 0
 172.815 208.651 167.776 178.854 167.776 152.565 c 0
 167.776 113.027 179.173 81.4215 205 61 c 1
 205 61 257 192 334 220 c 1
 373 214 l 1
 365.276 185.768 361.862 161.259 361.862 140.376 c 0
 361.862 77.6483 392.669 47.6284 430.024 47.6284 c 0
 473.617 47.6284 526.126 88.5097 549 166 c 1
 536.681 162.367 525.659 160.73 515.883 160.73 c 0
 473.805 160.73 454.808 191.058 454.808 223.126 c 0
 454.808 230.781 455.89 238.535 458 246 c 0
 474 303 521 336 569 336 c 0
 624.031 336 639.624 302.924 639.624 267.21 c 0
 639.624 258.144 638.62 248.908 637 240 c 0xd0
584 247 m 0
 585.29 251.609 585.901 255.945 585.901 259.954 c 0
 585.901 277.69 573.944 289 556 289 c 0
 533 289 512 272 505 247 c 0
 503.912 242.649 503.383 238.527 503.383 234.696 c 0
 503.383 217.394 514.17 206 533 206 c 0
 555 206 578 223 584 247 c 0
EndSplineSet
EndChar
StartChar: uni0E59
Encoding: 249 3673 215
Width: 615
Flags: W
HStem: -9 41<227 240> 115 45<261 274> 346 60<582 597> 413 54<488 498>
Fore
289 74 m 0
 289 74 l 0
 289.953 77.6531 290.401 81.18 290.401 84.5287 c 0
 290.401 102.264 277.823 115 261 115 c 0
 239 115 216 97 210 74 c 0
 208.71 69.7601 208.099 65.656 208.099 61.7819 c 0
 208.099 44.6406 220.056 32 238 32 c 0
 258 32 282 51 289 74 c 0
445 362 m 1
 449 356 459 327 462 318 c 0
 499 190 519 40 519 40 c 2
 519.748 36.7338 520.099 33.5927 520.099 30.5901 c 0
 520.099 7.06668 498.598 -7.9522 478.624 -7.9522 c 0
 463.68 -7.9522 449.59 0.455657 446 20 c 2
 446 20 418 178 393 275 c 0
 367.76 362.958 336.085 412.306 291.264 412.306 c 0
 277.483 412.306 262.461 407.641 246 398 c 0
 205.557 373.864 182.559 298.667 182.559 227.089 c 0
 182.559 188.938 189.093 151.815 203 124 c 1
 203 124 230 160 274 160 c 0
 312.027 160 333.688 135.78 333.688 100.579 c 0
 333.688 92.2729 332.482 83.3552 330 74 c 0
 318 31 272 -9 227 -9 c 0
 189 -9 157 11 135 51 c 0
 115.696 88.9532 106.027 136.113 106.027 184.948 c 0
 106.027 285.373 146.916 392.884 229 442 c 0
 244 451.5 276.5 465 312.375 465 c 0
 348.25 465 387.5 451.5 416 407 c 1
 425 439 466 467 498 467 c 0
 498.576 467.008 499.146 467.012 499.711 467.012 c 0
 569.732 467.012 553.336 406 595 406 c 0
 641 406 690 501 713 687 c 1
 783 664 l 1
 787.962 664 789.846 662.077 789.846 658.469 c 0
 789.846 656.259 789.139 653.418 788 650 c 0
 743 449 670 346 582 346 c 0
 517 346 527 412 492 413 c 0
 491.019 413.073 490.052 413.108 489.099 413.108 c 0
 463.853 413.108 448.855 388.018 445 362 c 1
EndSplineSet
EndChar
StartChar: uni0E5A
Encoding: 250 3674 216
Width: 697
Flags: W
HStem: 0 21G<331 405 514 588> 556 38<266 277>
DStem: 460 465 569 591 331 0 405 0 678 591 752 591 514 0 588 0
Fore
405 0 m 1
 331 0 l 1
 460 465 l 1
 408.731 423.687 349.039 409.874 298.188 409.874 c 0
 246.878 409.874 204.57 423.937 189 438 c 0
 174.153 451.786 167.671 469.228 167.671 487.417 c 0
 167.671 537.835 217.475 594 277 594 c 0
 319 594 341 571 342 533 c 0
 341 492 309 462 309 462 c 1
 314.425 461.598 319.705 461.405 324.843 461.405 c 0
 447.554 461.405 489.241 571.804 495 591 c 1
 569 591 l 1
 405 0 l 1
243 465 m 0
 243 465 l 0
 277.984 465 300.962 498.107 300.962 524.383 c 0
 300.962 541.67 291.016 556 268 556 c 0
 232.508 556 209.32 523.069 209.32 496.828 c 0
 209.32 479.447 219.492 465 243 465 c 0
678 591 m 1
 752 591 l 1
 588 0 l 1
 514 0 l 1
 678 591 l 1
EndSplineSet
EndChar
